<svg width="29" height="32" viewBox="0 0 29 32" fill="none" xmlns="http://www.w3.org/2000/svg">
<path fill-rule="evenodd" clip-rule="evenodd" d="M28.4132 16.586C28.7881 16.9611 28.9988 17.4697 28.9988 18C28.9988 18.5303 28.7881 19.0389 28.4132 19.414L16.4132 31.414C16.0381 31.7889 15.5295 31.9996 14.9992 31.9996C14.4689 31.9996 13.9602 31.7889 13.5852 31.414L1.58519 19.414C1.39417 19.2295 1.2418 19.0088 1.13698 18.7648C1.03217 18.5208 0.976993 18.2584 0.974685 17.9928C0.972377 17.7272 1.02298 17.4639 1.12354 17.2181C1.2241 16.9723 1.37261 16.749 1.5604 16.5612C1.74818 16.3734 1.97148 16.2249 2.21728 16.1244C2.46307 16.0238 2.72643 15.9732 2.99199 15.9755C3.25755 15.9778 3.51999 16.033 3.76399 16.1378C4.008 16.2426 4.22869 16.395 4.41319 16.586L12.9992 25.172V2C12.9992 1.46957 13.2099 0.960859 13.585 0.585786C13.96 0.210714 14.4688 0 14.9992 0C15.5296 0 16.0383 0.210714 16.4134 0.585786C16.7885 0.960859 16.9992 1.46957 16.9992 2V25.172L25.5852 16.586C25.9602 16.2111 26.4689 16.0004 26.9992 16.0004C27.5295 16.0004 28.0381 16.2111 28.4132 16.586Z" fill="white"/>
</svg>
