<svg width="20" height="20" viewBox="0 0 20 20" fill="none" xmlns="http://www.w3.org/2000/svg">
<path fill-rule="evenodd" clip-rule="evenodd" d="M10.293 3.29304C10.4805 3.10557 10.7348 3.00025 11 3.00025C11.2652 3.00025 11.5195 3.10557 11.707 3.29304L17.707 9.29304C17.8945 9.48057 17.9998 9.73488 17.9998 10C17.9998 10.2652 17.8945 10.5195 17.707 10.707L11.707 16.707C11.6148 16.8026 11.5044 16.8787 11.3824 16.9311C11.2604 16.9836 11.1292 17.0111 10.9964 17.0123C10.8636 17.0134 10.7319 16.9881 10.609 16.9379C10.4861 16.8876 10.3745 16.8133 10.2806 16.7194C10.1867 16.6255 10.1125 16.5139 10.0622 16.391C10.0119 16.2681 9.98659 16.1364 9.98775 16.0036C9.9889 15.8709 10.0165 15.7396 10.0689 15.6176C10.1213 15.4956 10.1975 15.3853 10.293 15.293L14.586 11H3C2.73478 11 2.48043 10.8947 2.29289 10.7071C2.10536 10.5196 2 10.2653 2 10C2 9.73482 2.10536 9.48047 2.29289 9.29293C2.48043 9.1054 2.73478 9.00004 3 9.00004H14.586L10.293 4.70704C10.1055 4.51951 10.0002 4.26521 10.0002 4.00004C10.0002 3.73488 10.1055 3.48057 10.293 3.29304Z" fill="#1A1B22"/>
</svg>
