<svg width="20" height="20" viewBox="0 0 20 20" fill="none" xmlns="http://www.w3.org/2000/svg">
<path fill-rule="evenodd" clip-rule="evenodd" d="M14.7064 12.7072C14.5189 12.8947 14.2646 13 13.9994 13C13.7343 13 13.48 12.8947 13.2924 12.7072L9.99943 9.41421L6.70643 12.7072C6.51783 12.8894 6.26523 12.9902 6.00303 12.9879C5.74083 12.9856 5.49002 12.8804 5.30461 12.695C5.1192 12.5096 5.01403 12.2588 5.01176 11.9966C5.00948 11.7344 5.11027 11.4818 5.29243 11.2932L9.29243 7.29321C9.47996 7.10574 9.73427 7.00043 9.99943 7.00043C10.2646 7.00043 10.5189 7.10574 10.7064 7.29321L14.7064 11.2932C14.8939 11.4807 14.9992 11.735 14.9992 12.0002C14.9992 12.2654 14.8939 12.5197 14.7064 12.7072Z" fill="#D7D7D7"/>
</svg>
