<svg width="25" height="19" viewBox="0 0 25 19" fill="none" xmlns="http://www.w3.org/2000/svg">
<path d="M20.4688 2.23438C20.4688 2.23438 20.4688 2.23438 20.4297 2.23438C18.9844 1.57031 17.3828 1.0625 15.7812 0.789062C15.7422 0.789062 15.7422 0.75 15.7422 0.75L15.7031 0.789062C15.4688 1.17969 15.2734 1.60938 15.1172 2C14.2578 1.88281 13.3594 1.80469 12.4609 1.80469C11.5625 1.80469 10.7031 1.88281 9.84375 2C9.6875 1.60938 9.49219 1.17969 9.25781 0.789062H9.21875C9.17969 0.789062 9.17969 0.789062 9.17969 0.789062C7.57812 1.0625 5.97656 1.57031 4.53125 2.23438C4.49219 2.23438 4.49219 2.23438 4.49219 2.23438C1.52344 6.6875 0.703125 11.0234 1.09375 15.3203C1.09375 15.3203 1.09375 15.3594 1.13281 15.3594C2.8125 16.6484 4.76562 17.625 6.875 18.25C6.91406 18.25 6.91406 18.25 6.95312 18.25C7.38281 17.625 7.77344 17 8.125 16.3359V16.2969C8.125 16.2578 8.08594 16.2578 8.08594 16.2188C7.46094 15.9844 6.83594 15.7109 6.28906 15.3594C6.25 15.3594 6.25 15.3594 6.25 15.3203C6.25 15.2812 6.25 15.2812 6.28906 15.2422C6.40625 15.1641 6.52344 15.0859 6.64062 14.9688C6.64062 14.9688 6.64062 14.9688 6.67969 14.9688C6.67969 14.9688 6.67969 14.9688 6.71875 14.9688C10.4688 16.6875 14.5312 16.6875 18.2422 14.9688H18.2812H18.3203C18.4375 15.0859 18.5547 15.1641 18.6719 15.2422C18.7109 15.2812 18.7109 15.2812 18.7109 15.3203C18.7109 15.3594 18.7109 15.3594 18.6719 15.3594C18.0859 15.7109 17.5 15.9844 16.875 16.2188C16.8359 16.2578 16.8359 16.2578 16.8359 16.2969V16.3359C17.1875 17 17.5781 17.625 18.0078 18.25C18.0078 18.25 18.0469 18.25 18.0859 18.25C20.1562 17.625 22.1094 16.6484 23.8281 15.3594C23.8672 15.3594 23.8672 15.3203 23.8672 15.3203C24.3359 10.3594 23.0469 6.0625 20.4688 2.23438ZM8.67188 12.7031C7.53906 12.7031 6.60156 11.6484 6.60156 10.3984C6.60156 9.10938 7.53906 8.09375 8.67188 8.09375C9.84375 8.09375 10.7422 9.10938 10.7422 10.3984C10.7422 11.6484 9.80469 12.7031 8.67188 12.7031ZM16.2891 12.7031C15.1562 12.7031 14.2578 11.6484 14.2578 10.3984C14.2578 9.10938 15.1562 8.09375 16.2891 8.09375C17.4609 8.09375 18.3984 9.10938 18.3594 10.3984C18.3594 11.6484 17.4609 12.7031 16.2891 12.7031Z" fill="#FFFEFE"/>
</svg>
