<svg width="185" height="46" viewBox="0 0 185 46" fill="none" xmlns="http://www.w3.org/2000/svg">
<path d="M105.643 11.0509C105.881 10.4108 106 9.74044 106 9.04331C106 7.515 105.498 6.25146 104.495 5.246C103.491 4.24388 102.24 3.73779 100.738 3.73779C96.0399 3.73779 92.0783 5.38006 88.8463 8.65788C85.6143 11.9391 84 15.9643 84 20.7302C84 21.4005 84.0396 22.0708 84.1188 22.7378C84.0396 23.4081 84 24.0784 84 24.7454C84 29.5147 85.6176 33.5365 88.8463 36.8177C92.0783 40.0989 96.0399 41.7378 100.738 41.7378C102.24 41.7378 103.494 41.2351 104.495 40.2296C105.495 39.2275 106 37.9606 106 36.4356C106 35.7385 105.881 35.0682 105.643 34.428C105.881 33.7845 106 33.1176 106 32.4205C106 30.8151 105.459 29.5012 104.379 28.4857C105.462 27.4702 106 26.1564 106 24.5476C106 23.8505 105.881 23.1835 105.643 22.5401C105.881 21.8966 106 21.2296 106 20.5325C106 19.0611 105.525 17.8143 104.574 16.7955C105.525 15.7766 106 14.5332 106 13.0585C106 12.3614 105.881 11.691 105.643 11.0509ZM103.597 11.9491C102.857 12.6999 101.867 13.0987 100.738 13.0987C99.1035 13.0987 97.6675 13.5646 96.3502 14.5198C95.5711 15.0828 94.9406 15.7464 94.4487 16.5139H100.738C101.857 16.5139 102.844 16.9027 103.583 17.6334C104.336 18.3774 104.732 19.3795 104.732 20.5291C104.732 21.6787 104.339 22.6842 103.597 23.4349C102.854 24.189 101.867 24.5845 100.738 24.5845H94.2341C94.7293 25.4526 95.3929 26.1966 96.2347 26.8401C97.5849 27.8657 99.0573 28.3617 100.738 28.3617C101.867 28.3617 102.854 28.7605 103.597 29.5147C104.339 30.2654 104.732 31.2709 104.732 32.4171C104.732 33.5633 104.336 34.5722 103.587 35.3162C102.834 36.0602 101.877 36.4356 100.738 36.4356C96.413 36.4356 92.7155 34.9073 89.7443 31.8909C86.7698 28.8745 85.2644 25.1174 85.2644 20.7302C85.2644 16.343 86.7731 12.5859 89.7443 9.56951C92.7122 6.5531 96.4097 5.02479 100.738 5.02479C101.877 5.02479 102.834 5.40017 103.587 6.14421C104.336 6.88491 104.732 7.88703 104.732 9.03996C104.732 10.1929 104.339 11.195 103.597 11.9458V11.9491Z" fill="white"/>
<path d="M126 32.4015C126 30.8701 125.507 29.5973 124.522 28.5763C123.539 27.5587 122.297 27.0483 120.799 27.0483H119.068C118.648 27.0483 118.437 26.8333 118.437 26.4035V9.0541C118.437 7.52268 117.938 6.25657 116.943 5.24906C115.944 4.24491 114.699 3.73779 113.201 3.73779C111.703 3.73779 110.464 4.24155 109.478 5.24906C108.496 6.25322 108 7.52268 108 9.0541V30.4268C108 33.6206 109.064 36.3039 111.19 38.4768C113.316 40.6497 115.94 41.7378 119.065 41.7378H120.796C122.291 41.7378 123.533 41.234 124.518 40.2299C125.504 39.2224 125.997 37.9563 125.997 36.4248C125.997 35.7263 125.878 35.0546 125.642 34.4132C125.878 33.7986 125.997 33.1269 125.997 32.4015H126ZM123.628 35.2897C122.892 36.042 121.943 36.4215 120.799 36.4215H119.068C116.282 36.4215 113.927 35.4576 112.067 33.5602C110.208 31.6593 109.265 29.2514 109.265 26.4001V9.0541C109.265 7.88874 109.639 6.91482 110.375 6.16254C111.098 5.42034 112.077 5.02741 113.201 5.02741C114.324 5.02741 115.29 5.40355 116.036 6.14911C116.782 6.89131 117.179 7.89546 117.179 9.05074V26.3967C117.179 26.9576 117.35 27.3942 117.721 27.7737C118.092 28.1565 118.519 28.3312 119.068 28.3312H120.799C121.93 28.3312 122.912 28.7342 123.638 29.4965C124.367 30.2622 124.735 31.2395 124.735 32.3948C124.735 33.5501 124.351 34.5442 123.625 35.2864L123.628 35.2897Z" fill="white"/>
<path d="M149.452 15.2806C147.983 13.8126 146.2 13.0987 144 13.0987C141.8 13.0987 140.013 13.8092 138.545 15.2638C137.076 16.7184 136.365 18.5081 136.365 20.7302C136.365 22.9523 137.086 24.7085 138.568 26.1765C140.05 27.6478 141.827 28.3617 144.003 28.3617C146.179 28.3617 147.987 27.6478 149.455 26.1798C150.927 24.7119 151.642 22.9288 151.642 20.7302C151.642 18.5316 150.927 16.7486 149.459 15.2806H149.452ZM147.816 25.8715C146.716 26.6759 145.445 27.0747 144 27.0747C142.555 27.0747 141.287 26.6725 140.201 25.8715C139.115 25.0671 138.374 24.0214 137.971 22.7378C138.347 21.424 139.084 20.3749 140.181 19.584C141.281 18.793 142.551 18.4009 144 18.4009C145.794 18.4009 147.309 19.0042 148.54 20.2074C149.264 20.9581 149.771 21.7859 150.066 22.6976C149.663 24.0114 148.912 25.0671 147.816 25.8715ZM149.452 15.2806C147.983 13.8126 146.2 13.0987 144 13.0987C141.8 13.0987 140.013 13.8092 138.545 15.2638C137.076 16.7184 136.365 18.5081 136.365 20.7302C136.365 22.9523 137.086 24.7085 138.568 26.1765C140.05 27.6478 141.827 28.3617 144.003 28.3617C146.179 28.3617 147.987 27.6478 149.455 26.1798C150.927 24.7119 151.642 22.9288 151.642 20.7302C151.642 18.5316 150.927 16.7486 149.459 15.2806H149.452ZM147.816 25.8715C146.716 26.6759 145.445 27.0747 144 27.0747C142.555 27.0747 141.287 26.6725 140.201 25.8715C139.115 25.0671 138.374 24.0214 137.971 22.7378C138.347 21.424 139.084 20.3749 140.181 19.584C141.281 18.793 142.551 18.4009 144 18.4009C145.794 18.4009 147.309 19.0042 148.54 20.2074C149.264 20.9581 149.771 21.7859 150.066 22.6976C149.663 24.0114 148.912 25.0671 147.816 25.8715ZM149.452 15.2806C147.983 13.8126 146.2 13.0987 144 13.0987C141.8 13.0987 140.013 13.8092 138.545 15.2638C137.076 16.7184 136.365 18.5081 136.365 20.7302C136.365 22.9523 137.086 24.7085 138.568 26.1765C140.05 27.6478 141.827 28.3617 144.003 28.3617C146.179 28.3617 147.987 27.6478 149.455 26.1798C150.927 24.7119 151.642 22.9288 151.642 20.7302C151.642 18.5316 150.927 16.7486 149.459 15.2806H149.452ZM147.816 25.8715C146.716 26.6759 145.445 27.0747 144 27.0747C142.555 27.0747 141.287 26.6725 140.201 25.8715C139.115 25.0671 138.374 24.0214 137.971 22.7378C138.347 21.424 139.084 20.3749 140.181 19.584C141.281 18.793 142.551 18.4009 144 18.4009C145.794 18.4009 147.309 19.0042 148.54 20.2074C149.264 20.9581 149.771 21.7859 150.066 22.6976C149.663 24.0114 148.912 25.0671 147.816 25.8715ZM149.452 15.2806C147.983 13.8126 146.2 13.0987 144 13.0987C141.8 13.0987 140.013 13.8092 138.545 15.2638C137.076 16.7184 136.365 18.5081 136.365 20.7302C136.365 22.9523 137.086 24.7085 138.568 26.1765C140.05 27.6478 141.827 28.3617 144.003 28.3617C146.179 28.3617 147.987 27.6478 149.455 26.1798C150.927 24.7119 151.642 22.9288 151.642 20.7302C151.642 18.5316 150.927 16.7486 149.459 15.2806H149.452ZM147.816 25.8715C146.716 26.6759 145.445 27.0747 144 27.0747C142.555 27.0747 141.287 26.6725 140.201 25.8715C139.115 25.0671 138.374 24.0214 137.971 22.7378C138.347 21.424 139.084 20.3749 140.181 19.584C141.281 18.793 142.551 18.4009 144 18.4009C145.794 18.4009 147.309 19.0042 148.54 20.2074C149.264 20.9581 149.771 21.7859 150.066 22.6976C149.663 24.0114 148.912 25.0671 147.816 25.8715ZM149.452 15.2806C147.983 13.8126 146.2 13.0987 144 13.0987C141.8 13.0987 140.013 13.8092 138.545 15.2638C137.076 16.7184 136.365 18.5081 136.365 20.7302C136.365 22.9523 137.086 24.7085 138.568 26.1765C140.05 27.6478 141.827 28.3617 144.003 28.3617C146.179 28.3617 147.987 27.6478 149.455 26.1798C150.927 24.7119 151.642 22.9288 151.642 20.7302C151.642 18.5316 150.927 16.7486 149.459 15.2806H149.452ZM147.816 25.8715C146.716 26.6759 145.445 27.0747 144 27.0747C142.555 27.0747 141.287 26.6725 140.201 25.8715C139.115 25.0671 138.374 24.0214 137.971 22.7378C138.347 21.424 139.084 20.3749 140.181 19.584C141.281 18.793 142.551 18.4009 144 18.4009C145.794 18.4009 147.309 19.0042 148.54 20.2074C149.264 20.9581 149.771 21.7859 150.066 22.6976C149.663 24.0114 148.912 25.0671 147.816 25.8715ZM149.452 15.2806C147.983 13.8126 146.2 13.0987 144 13.0987C141.8 13.0987 140.013 13.8092 138.545 15.2638C137.076 16.7184 136.365 18.5081 136.365 20.7302C136.365 22.9523 137.086 24.7085 138.568 26.1765C140.05 27.6478 141.827 28.3617 144.003 28.3617C146.179 28.3617 147.987 27.6478 149.455 26.1798C150.927 24.7119 151.642 22.9288 151.642 20.7302C151.642 18.5316 150.927 16.7486 149.459 15.2806H149.452ZM147.816 25.8715C146.716 26.6759 145.445 27.0747 144 27.0747C142.555 27.0747 141.287 26.6725 140.201 25.8715C139.115 25.0671 138.374 24.0214 137.971 22.7378C138.347 21.424 139.084 20.3749 140.181 19.584C141.281 18.793 142.551 18.4009 144 18.4009C145.794 18.4009 147.309 19.0042 148.54 20.2074C149.264 20.9581 149.771 21.7859 150.066 22.6976C149.663 24.0114 148.912 25.0671 147.816 25.8715ZM149.452 15.2806C147.983 13.8126 146.2 13.0987 144 13.0987C141.8 13.0987 140.013 13.8092 138.545 15.2638C137.076 16.7184 136.365 18.5081 136.365 20.7302C136.365 22.9523 137.086 24.7085 138.568 26.1765C140.05 27.6478 141.827 28.3617 144.003 28.3617C146.179 28.3617 147.987 27.6478 149.455 26.1798C150.927 24.7119 151.642 22.9288 151.642 20.7302C151.642 18.5316 150.927 16.7486 149.459 15.2806H149.452ZM147.816 25.8715C146.716 26.6759 145.445 27.0747 144 27.0747C142.555 27.0747 141.287 26.6725 140.201 25.8715C139.115 25.0671 138.374 24.0214 137.971 22.7378C138.347 21.424 139.084 20.3749 140.181 19.584C141.281 18.793 142.551 18.4009 144 18.4009C145.794 18.4009 147.309 19.0042 148.54 20.2074C149.264 20.9581 149.771 21.7859 150.066 22.6976C149.663 24.0114 148.912 25.0671 147.816 25.8715ZM149.452 15.2806C147.983 13.8126 146.2 13.0987 144 13.0987C141.8 13.0987 140.013 13.8092 138.545 15.2638C137.076 16.7184 136.365 18.5081 136.365 20.7302C136.365 22.9523 137.086 24.7085 138.568 26.1765C140.05 27.6478 141.827 28.3617 144.003 28.3617C146.179 28.3617 147.987 27.6478 149.455 26.1798C150.927 24.7119 151.642 22.9288 151.642 20.7302C151.642 18.5316 150.927 16.7486 149.459 15.2806H149.452ZM147.816 25.8715C146.716 26.6759 145.445 27.0747 144 27.0747C142.555 27.0747 141.287 26.6725 140.201 25.8715C139.115 25.0671 138.374 24.0214 137.971 22.7378C138.347 21.424 139.084 20.3749 140.181 19.584C141.281 18.793 142.551 18.4009 144 18.4009C145.794 18.4009 147.309 19.0042 148.54 20.2074C149.264 20.9581 149.771 21.7859 150.066 22.6976C149.663 24.0114 148.912 25.0671 147.816 25.8715ZM149.452 15.2806C147.983 13.8126 146.2 13.0987 144 13.0987C141.8 13.0987 140.013 13.8092 138.545 15.2638C137.076 16.7184 136.365 18.5081 136.365 20.7302C136.365 22.9523 137.086 24.7085 138.568 26.1765C140.05 27.6478 141.827 28.3617 144.003 28.3617C146.179 28.3617 147.987 27.6478 149.455 26.1798C150.927 24.7119 151.642 22.9288 151.642 20.7302C151.642 18.5316 150.927 16.7486 149.459 15.2806H149.452ZM147.816 25.8715C146.716 26.6759 145.445 27.0747 144 27.0747C142.555 27.0747 141.287 26.6725 140.201 25.8715C139.115 25.0671 138.374 24.0214 137.971 22.7378C138.347 21.424 139.084 20.3749 140.181 19.584C141.281 18.793 142.551 18.4009 144 18.4009C145.794 18.4009 147.309 19.0042 148.54 20.2074C149.264 20.9581 149.771 21.7859 150.066 22.6976C149.663 24.0114 148.912 25.0671 147.816 25.8715ZM149.452 15.2806C147.983 13.8126 146.2 13.0987 144 13.0987C141.8 13.0987 140.013 13.8092 138.545 15.2638C137.076 16.7184 136.365 18.5081 136.365 20.7302C136.365 22.9523 137.086 24.7085 138.568 26.1765C140.05 27.6478 141.827 28.3617 144.003 28.3617C146.179 28.3617 147.987 27.6478 149.455 26.1798C150.927 24.7119 151.642 22.9288 151.642 20.7302C151.642 18.5316 150.927 16.7486 149.459 15.2806H149.452ZM147.816 25.8715C146.716 26.6759 145.445 27.0747 144 27.0747C142.555 27.0747 141.287 26.6725 140.201 25.8715C139.115 25.0671 138.374 24.0214 137.971 22.7378C138.347 21.424 139.084 20.3749 140.181 19.584C141.281 18.793 142.551 18.4009 144 18.4009C145.794 18.4009 147.309 19.0042 148.54 20.2074C149.264 20.9581 149.771 21.7859 150.066 22.6976C149.663 24.0114 148.912 25.0671 147.816 25.8715ZM149.452 15.2806C147.983 13.8126 146.2 13.0987 144 13.0987C141.8 13.0987 140.013 13.8092 138.545 15.2638C137.076 16.7184 136.365 18.5081 136.365 20.7302C136.365 22.9523 137.086 24.7085 138.568 26.1765C140.05 27.6478 141.827 28.3617 144.003 28.3617C146.179 28.3617 147.987 27.6478 149.455 26.1798C150.927 24.7119 151.642 22.9288 151.642 20.7302C151.642 18.5316 150.927 16.7486 149.459 15.2806H149.452ZM147.816 25.8715C146.716 26.6759 145.445 27.0747 144 27.0747C142.555 27.0747 141.287 26.6725 140.201 25.8715C139.115 25.0671 138.374 24.0214 137.971 22.7378C138.347 21.424 139.084 20.3749 140.181 19.584C141.281 18.793 142.551 18.4009 144 18.4009C145.794 18.4009 147.309 19.0042 148.54 20.2074C149.264 20.9581 149.771 21.7859 150.066 22.6976C149.663 24.0114 148.912 25.0671 147.816 25.8715ZM149.452 15.2806C147.983 13.8126 146.2 13.0987 144 13.0987C141.8 13.0987 140.013 13.8092 138.545 15.2638C137.076 16.7184 136.365 18.5081 136.365 20.7302C136.365 22.9523 137.086 24.7085 138.568 26.1765C140.05 27.6478 141.827 28.3617 144.003 28.3617C146.179 28.3617 147.987 27.6478 149.455 26.1798C150.927 24.7119 151.642 22.9288 151.642 20.7302C151.642 18.5316 150.927 16.7486 149.459 15.2806H149.452ZM147.816 25.8715C146.716 26.6759 145.445 27.0747 144 27.0747C142.555 27.0747 141.287 26.6725 140.201 25.8715C139.115 25.0671 138.374 24.0214 137.971 22.7378C138.347 21.424 139.084 20.3749 140.181 19.584C141.281 18.793 142.551 18.4009 144 18.4009C145.794 18.4009 147.309 19.0042 148.54 20.2074C149.264 20.9581 149.771 21.7859 150.066 22.6976C149.663 24.0114 148.912 25.0671 147.816 25.8715ZM161 20.7302C161 15.9643 159.357 11.9391 156.078 8.65788C152.795 5.37671 148.768 3.73779 144 3.73779C139.232 3.73779 135.205 5.38006 131.922 8.65788C128.64 11.9391 127 15.9643 127 20.7302C127 21.4005 127.04 22.0708 127.121 22.7378C127.04 23.4081 127 24.0784 127 24.7454C127 29.5147 128.64 33.5365 131.922 36.8177C135.202 40.0989 139.229 41.7378 144 41.7378C148.771 41.7378 152.762 40.0922 156.058 36.7976C159.354 33.503 161 29.4878 161 24.7454C161 24.0784 160.96 23.4215 160.879 22.778C160.96 22.1077 161 21.424 161 20.7302ZM155.166 31.8909C152.148 34.9073 148.392 36.4356 144 36.4356C139.607 36.4356 135.852 34.9073 132.834 31.8909C129.817 28.8711 128.288 25.1174 128.288 20.7302C128.288 16.343 129.817 12.5859 132.834 9.56951C135.852 6.5531 139.607 5.02479 144 5.02479C148.392 5.02479 152.148 6.55646 155.166 9.56951C158.183 12.5826 159.712 16.3397 159.712 20.7302C159.712 25.1208 158.183 28.8745 155.166 31.8909ZM144 13.0954C141.797 13.0954 140.013 13.8059 138.545 15.2605C137.076 16.715 136.365 18.5048 136.365 20.7269C136.365 22.9489 137.086 24.7052 138.568 26.1731C140.05 27.6445 141.827 28.3584 144.003 28.3584C146.179 28.3584 147.987 27.6445 149.455 26.1765C150.927 24.7085 151.642 22.9255 151.642 20.7269C151.642 18.5282 150.927 16.7452 149.459 15.2772C147.99 13.8092 146.206 13.0954 144.007 13.0954H144ZM147.816 25.8715C146.716 26.6759 145.445 27.0747 144 27.0747C142.555 27.0747 141.287 26.6725 140.201 25.8715C139.115 25.0671 138.374 24.0214 137.971 22.7378C138.347 21.424 139.084 20.3749 140.181 19.584C141.281 18.793 142.551 18.4009 144 18.4009C145.794 18.4009 147.309 19.0042 148.54 20.2074C149.264 20.9581 149.771 21.7859 150.066 22.6976C149.663 24.0114 148.912 25.0671 147.816 25.8715ZM149.452 15.2806C147.983 13.8126 146.2 13.0987 144 13.0987C141.8 13.0987 140.013 13.8092 138.545 15.2638C137.076 16.7184 136.365 18.5081 136.365 20.7302C136.365 22.9523 137.086 24.7085 138.568 26.1765C140.05 27.6478 141.827 28.3617 144.003 28.3617C146.179 28.3617 147.987 27.6478 149.455 26.1798C150.927 24.7119 151.642 22.9288 151.642 20.7302C151.642 18.5316 150.927 16.7486 149.459 15.2806H149.452ZM147.816 25.8715C146.716 26.6759 145.445 27.0747 144 27.0747C142.555 27.0747 141.287 26.6725 140.201 25.8715C139.115 25.0671 138.374 24.0214 137.971 22.7378C138.347 21.424 139.084 20.3749 140.181 19.584C141.281 18.793 142.551 18.4009 144 18.4009C145.794 18.4009 147.309 19.0042 148.54 20.2074C149.264 20.9581 149.771 21.7859 150.066 22.6976C149.663 24.0114 148.912 25.0671 147.816 25.8715ZM149.452 15.2806C147.983 13.8126 146.2 13.0987 144 13.0987C141.8 13.0987 140.013 13.8092 138.545 15.2638C137.076 16.7184 136.365 18.5081 136.365 20.7302C136.365 22.9523 137.086 24.7085 138.568 26.1765C140.05 27.6478 141.827 28.3617 144.003 28.3617C146.179 28.3617 147.987 27.6478 149.455 26.1798C150.927 24.7119 151.642 22.9288 151.642 20.7302C151.642 18.5316 150.927 16.7486 149.459 15.2806H149.452ZM147.816 25.8715C146.716 26.6759 145.445 27.0747 144 27.0747C142.555 27.0747 141.287 26.6725 140.201 25.8715C139.115 25.0671 138.374 24.0214 137.971 22.7378C138.347 21.424 139.084 20.3749 140.181 19.584C141.281 18.793 142.551 18.4009 144 18.4009C145.794 18.4009 147.309 19.0042 148.54 20.2074C149.264 20.9581 149.771 21.7859 150.066 22.6976C149.663 24.0114 148.912 25.0671 147.816 25.8715ZM149.452 15.2806C147.983 13.8126 146.2 13.0987 144 13.0987C141.8 13.0987 140.013 13.8092 138.545 15.2638C137.076 16.7184 136.365 18.5081 136.365 20.7302C136.365 22.9523 137.086 24.7085 138.568 26.1765C140.05 27.6478 141.827 28.3617 144.003 28.3617C146.179 28.3617 147.987 27.6478 149.455 26.1798C150.927 24.7119 151.642 22.9288 151.642 20.7302C151.642 18.5316 150.927 16.7486 149.459 15.2806H149.452ZM147.816 25.8715C146.716 26.6759 145.445 27.0747 144 27.0747C142.555 27.0747 141.287 26.6725 140.201 25.8715C139.115 25.0671 138.374 24.0214 137.971 22.7378C138.347 21.424 139.084 20.3749 140.181 19.584C141.281 18.793 142.551 18.4009 144 18.4009C145.794 18.4009 147.309 19.0042 148.54 20.2074C149.264 20.9581 149.771 21.7859 150.066 22.6976C149.663 24.0114 148.912 25.0671 147.816 25.8715ZM149.452 15.2806C147.983 13.8126 146.2 13.0987 144 13.0987C141.8 13.0987 140.013 13.8092 138.545 15.2638C137.076 16.7184 136.365 18.5081 136.365 20.7302C136.365 22.9523 137.086 24.7085 138.568 26.1765C140.05 27.6478 141.827 28.3617 144.003 28.3617C146.179 28.3617 147.987 27.6478 149.455 26.1798C150.927 24.7119 151.642 22.9288 151.642 20.7302C151.642 18.5316 150.927 16.7486 149.459 15.2806H149.452ZM147.816 25.8715C146.716 26.6759 145.445 27.0747 144 27.0747C142.555 27.0747 141.287 26.6725 140.201 25.8715C139.115 25.0671 138.374 24.0214 137.971 22.7378C138.347 21.424 139.084 20.3749 140.181 19.584C141.281 18.793 142.551 18.4009 144 18.4009C145.794 18.4009 147.309 19.0042 148.54 20.2074C149.264 20.9581 149.771 21.7859 150.066 22.6976C149.663 24.0114 148.912 25.0671 147.816 25.8715ZM149.452 15.2806C147.983 13.8126 146.2 13.0987 144 13.0987C141.8 13.0987 140.013 13.8092 138.545 15.2638C137.076 16.7184 136.365 18.5081 136.365 20.7302C136.365 22.9523 137.086 24.7085 138.568 26.1765C140.05 27.6478 141.827 28.3617 144.003 28.3617C146.179 28.3617 147.987 27.6478 149.455 26.1798C150.927 24.7119 151.642 22.9288 151.642 20.7302C151.642 18.5316 150.927 16.7486 149.459 15.2806H149.452ZM147.816 25.8715C146.716 26.6759 145.445 27.0747 144 27.0747C142.555 27.0747 141.287 26.6725 140.201 25.8715C139.115 25.0671 138.374 24.0214 137.971 22.7378C138.347 21.424 139.084 20.3749 140.181 19.584C141.281 18.793 142.551 18.4009 144 18.4009C145.794 18.4009 147.309 19.0042 148.54 20.2074C149.264 20.9581 149.771 21.7859 150.066 22.6976C149.663 24.0114 148.912 25.0671 147.816 25.8715ZM149.452 15.2806C147.983 13.8126 146.2 13.0987 144 13.0987C141.8 13.0987 140.013 13.8092 138.545 15.2638C137.076 16.7184 136.365 18.5081 136.365 20.7302C136.365 22.9523 137.086 24.7085 138.568 26.1765C140.05 27.6478 141.827 28.3617 144.003 28.3617C146.179 28.3617 147.987 27.6478 149.455 26.1798C150.927 24.7119 151.642 22.9288 151.642 20.7302C151.642 18.5316 150.927 16.7486 149.459 15.2806H149.452ZM147.816 25.8715C146.716 26.6759 145.445 27.0747 144 27.0747C142.555 27.0747 141.287 26.6725 140.201 25.8715C139.115 25.0671 138.374 24.0214 137.971 22.7378C138.347 21.424 139.084 20.3749 140.181 19.584C141.281 18.793 142.551 18.4009 144 18.4009C145.794 18.4009 147.309 19.0042 148.54 20.2074C149.264 20.9581 149.771 21.7859 150.066 22.6976C149.663 24.0114 148.912 25.0671 147.816 25.8715ZM149.452 15.2806C147.983 13.8126 146.2 13.0987 144 13.0987C141.8 13.0987 140.013 13.8092 138.545 15.2638C137.076 16.7184 136.365 18.5081 136.365 20.7302C136.365 22.9523 137.086 24.7085 138.568 26.1765C140.05 27.6478 141.827 28.3617 144.003 28.3617C146.179 28.3617 147.987 27.6478 149.455 26.1798C150.927 24.7119 151.642 22.9288 151.642 20.7302C151.642 18.5316 150.927 16.7486 149.459 15.2806H149.452ZM147.816 25.8715C146.716 26.6759 145.445 27.0747 144 27.0747C142.555 27.0747 141.287 26.6725 140.201 25.8715C139.115 25.0671 138.374 24.0214 137.971 22.7378C138.347 21.424 139.084 20.3749 140.181 19.584C141.281 18.793 142.551 18.4009 144 18.4009C145.794 18.4009 147.309 19.0042 148.54 20.2074C149.264 20.9581 149.771 21.7859 150.066 22.6976C149.663 24.0114 148.912 25.0671 147.816 25.8715ZM149.452 15.2806C147.983 13.8126 146.2 13.0987 144 13.0987C141.8 13.0987 140.013 13.8092 138.545 15.2638C137.076 16.7184 136.365 18.5081 136.365 20.7302C136.365 22.9523 137.086 24.7085 138.568 26.1765C140.05 27.6478 141.827 28.3617 144.003 28.3617C146.179 28.3617 147.987 27.6478 149.455 26.1798C150.927 24.7119 151.642 22.9288 151.642 20.7302C151.642 18.5316 150.927 16.7486 149.459 15.2806H149.452ZM147.816 25.8715C146.716 26.6759 145.445 27.0747 144 27.0747C142.555 27.0747 141.287 26.6725 140.201 25.8715C139.115 25.0671 138.374 24.0214 137.971 22.7378C138.347 21.424 139.084 20.3749 140.181 19.584C141.281 18.793 142.551 18.4009 144 18.4009C145.794 18.4009 147.309 19.0042 148.54 20.2074C149.264 20.9581 149.771 21.7859 150.066 22.6976C149.663 24.0114 148.912 25.0671 147.816 25.8715ZM149.452 15.2806C147.983 13.8126 146.2 13.0987 144 13.0987C141.8 13.0987 140.013 13.8092 138.545 15.2638C137.076 16.7184 136.365 18.5081 136.365 20.7302C136.365 22.9523 137.086 24.7085 138.568 26.1765C140.05 27.6478 141.827 28.3617 144.003 28.3617C146.179 28.3617 147.987 27.6478 149.455 26.1798C150.927 24.7119 151.642 22.9288 151.642 20.7302C151.642 18.5316 150.927 16.7486 149.459 15.2806H149.452ZM147.816 25.8715C146.716 26.6759 145.445 27.0747 144 27.0747C142.555 27.0747 141.287 26.6725 140.201 25.8715C139.115 25.0671 138.374 24.0214 137.971 22.7378C138.347 21.424 139.084 20.3749 140.181 19.584C141.281 18.793 142.551 18.4009 144 18.4009C145.794 18.4009 147.309 19.0042 148.54 20.2074C149.264 20.9581 149.771 21.7859 150.066 22.6976C149.663 24.0114 148.912 25.0671 147.816 25.8715ZM149.452 15.2806C147.983 13.8126 146.2 13.0987 144 13.0987C141.8 13.0987 140.013 13.8092 138.545 15.2638C137.076 16.7184 136.365 18.5081 136.365 20.7302C136.365 22.9523 137.086 24.7085 138.568 26.1765C140.05 27.6478 141.827 28.3617 144.003 28.3617C146.179 28.3617 147.987 27.6478 149.455 26.1798C150.927 24.7119 151.642 22.9288 151.642 20.7302C151.642 18.5316 150.927 16.7486 149.459 15.2806H149.452ZM147.816 25.8715C146.716 26.6759 145.445 27.0747 144 27.0747C142.555 27.0747 141.287 26.6725 140.201 25.8715C139.115 25.0671 138.374 24.0214 137.971 22.7378C138.347 21.424 139.084 20.3749 140.181 19.584C141.281 18.793 142.551 18.4009 144 18.4009C145.794 18.4009 147.309 19.0042 148.54 20.2074C149.264 20.9581 149.771 21.7859 150.066 22.6976C149.663 24.0114 148.912 25.0671 147.816 25.8715Z" fill="white"/>
<path d="M184.99 27.8596L184.964 14.548C184.964 11.547 183.857 8.97524 181.635 6.83265C179.495 4.77053 176.947 3.73779 174 3.73779C171.053 3.73779 168.315 4.83088 166.189 7.01371C164.062 9.19654 163 11.8723 163 15.0308V36.3696C163 37.8952 163.49 39.1627 164.467 40.1686C165.447 41.1711 166.679 41.6741 168.168 41.6741C169.658 41.6741 170.896 41.1711 171.89 40.1686C172.883 39.1627 173.376 37.8986 173.376 36.3696V19.0478C173.376 18.6186 173.585 18.4073 174.003 18.4073C174.395 18.4073 174.591 18.6219 174.591 19.0478L174.614 29.6199L174.631 36.8893V36.896C174.722 38.2171 175.212 39.3303 176.104 40.2323C177.097 41.2348 178.339 41.7378 179.828 41.7378C179.858 41.7378 179.887 41.7378 179.917 41.7378C181.367 41.7177 182.573 41.2181 183.533 40.2323C184.072 39.679 184.464 39.042 184.706 38.3311C184.902 37.751 185 37.1173 185 36.4366V34.4684L184.987 27.8596H184.99ZM183.745 32.5706C183.713 33.6536 183.334 34.5992 182.641 35.3067C181.909 36.0577 180.962 36.4366 179.828 36.4366C178.695 36.4366 177.737 36.0477 177.006 35.3167C176.333 34.6461 175.941 33.7509 175.882 32.7248C175.872 32.6075 175.872 32.5035 175.872 32.423V29.2343L175.846 15.0409C175.846 14.5044 175.669 14.0685 175.294 13.6729C174.925 13.2839 174.516 13.1062 174.003 13.1062C173.461 13.1062 173.036 13.2839 172.664 13.6628C172.295 14.0417 172.121 14.4809 172.121 15.0375V32.3593C172.121 33.5161 171.729 34.5187 170.985 35.2597C170.246 36.0007 169.296 36.3763 168.168 36.3763C167.041 36.3763 166.087 35.9974 165.359 35.2463C164.637 34.5086 164.255 33.5094 164.255 32.3593V15.0308C164.255 12.2143 165.199 9.81685 167.058 7.90562C168.92 5.99439 171.259 5.02536 174.003 5.02536C176.574 5.02536 178.852 5.94745 180.772 7.76815C182.726 9.61567 183.716 11.8991 183.716 14.548L183.749 32.5505V32.5706H183.745Z" fill="white"/>
<path d="M77.7982 7.01921C75.667 4.83272 73.0545 3.73779 69.9705 3.73779C67.9899 3.73779 66.1664 4.23152 64.4967 5.21561C62.8271 4.23152 61.0036 3.73779 59.0229 3.73779C55.9357 3.73779 53.3265 4.83272 51.1952 7.01921C49.064 9.20571 48 11.8859 48 15.0498V36.4244C48 37.9526 48.4976 39.2221 49.4896 40.2297C50.4815 41.234 51.7256 41.7378 53.2185 41.7378C54.7113 41.7378 55.9455 41.234 56.9277 40.2297C57.9066 39.2221 58.3976 37.9559 58.3976 36.4244V19.0735C58.3976 18.6436 58.6071 18.432 59.0262 18.432C59.4452 18.432 59.6548 18.6469 59.6548 19.0735V36.4244C59.6548 37.9526 60.1458 39.2221 61.1247 40.2297C62.0315 41.1601 63.1577 41.6572 64.5 41.7277C65.8423 41.6572 66.9685 41.1567 67.8753 40.2297C68.8542 39.2221 69.3452 37.9559 69.3452 36.4244V19.0735C69.3452 18.6436 69.5548 18.432 69.9738 18.432C70.3929 18.432 70.6024 18.6469 70.6024 19.0735V36.4244C70.6024 37.9526 71.0935 39.2221 72.0723 40.2297C73.0545 41.234 74.2887 41.7378 75.7815 41.7378C77.2744 41.7378 78.5152 41.234 79.5104 40.2297C80.5057 39.2221 81 37.9559 81 36.4244V15.0532C81 11.8859 79.9327 9.20907 77.8048 7.02257L77.7982 7.01921ZM79.7396 32.4007C79.7396 33.5594 79.3467 34.5637 78.6036 35.3026C77.8604 36.0482 76.9077 36.4244 75.7783 36.4244C74.6488 36.4244 73.6929 36.0448 72.9628 35.2925C72.2393 34.5502 71.8563 33.5527 71.8563 32.4007V15.0498C71.8563 14.4923 71.686 14.0556 71.3128 13.6727C70.9429 13.2932 70.5173 13.1152 69.9705 13.1152C69.4238 13.1152 69.031 13.2999 68.6479 13.6929C68.2649 14.0859 68.0848 14.5191 68.0848 15.0498V32.4007C68.0848 33.5527 67.7018 34.5536 66.9783 35.2925C66.317 35.971 65.4854 36.3438 64.4935 36.4143C63.5048 36.3471 62.6699 35.971 62.0086 35.2925C61.2851 34.5536 60.9021 33.5527 60.9021 32.4007V15.0498C60.9021 14.5191 60.722 14.0892 60.339 13.6929C59.956 13.2999 59.5336 13.1152 59.0164 13.1152C58.4729 13.1152 58.0473 13.2932 57.6741 13.6727C57.3042 14.0523 57.1307 14.4923 57.1307 15.0498V32.4007C57.1307 33.5527 56.7476 34.5536 56.0241 35.2925C55.2908 36.0415 54.3446 36.4244 53.2086 36.4244C52.0726 36.4244 51.1265 36.0482 50.3833 35.3026C49.6402 34.5637 49.2473 33.5594 49.2473 32.4007V15.0498C49.2473 12.2285 50.1935 9.82706 52.0563 7.91262C53.9223 5.99818 56.2664 5.02752 59.0164 5.02752C61.0265 5.02752 62.8631 5.61193 64.4902 6.7606C66.1173 5.61193 67.9539 5.02752 69.964 5.02752C72.714 5.02752 75.0548 5.99818 76.9241 7.91262C78.7869 9.82706 79.733 12.2285 79.733 15.0498V32.4007H79.7396Z" fill="white"/>
<path d="M17.2881 3.03442V4.12516C19.1642 4.12516 21.2938 4.6378 23.4453 5.61128C27.691 7.53097 31.7321 11.0077 34.8244 15.4033C37.8866 19.7581 39.6127 24.4346 39.689 28.5766V28.5985C39.7272 30.8154 39.2909 32.6778 38.3883 34.1339C37.9248 34.7284 37.4176 35.301 36.8777 35.8382C35.6206 36.8253 34.0254 37.327 32.1357 37.327C30.246 37.327 28.1682 36.8253 25.9758 35.8327C21.7274 33.913 17.6862 30.4363 14.5967 26.0407C11.5345 21.6859 9.80841 17.0094 9.73206 12.8674V12.8483C9.67752 9.57609 10.6592 7.06468 12.5734 5.58128C13.0752 5.26224 13.5878 4.96502 14.1032 4.70324C15.0439 4.31876 16.1156 4.12516 17.2854 4.12516V3.03442M17.2854 3.03442C15.9656 3.03442 14.7385 3.25802 13.6478 3.7134C13.0724 4.00518 12.5025 4.33239 11.9462 4.68961C9.72388 6.38842 8.58133 9.21342 8.64405 12.8674V12.8865C8.72313 17.2439 10.5201 22.1386 13.7078 26.6679C16.9091 31.2189 21.1084 34.8265 25.5313 36.8253C27.8791 37.886 30.1233 38.415 32.1411 38.415C34.2681 38.415 36.1414 37.826 37.6084 36.6508C38.2083 36.0536 38.7728 35.4183 39.2882 34.7556C40.3216 33.1114 40.8261 31.0308 40.7825 28.5766V28.5548C40.7034 24.1974 38.9037 19.3054 35.7188 14.7734C32.5175 10.2196 28.3181 6.61475 23.8979 4.61599C21.572 3.56616 19.3196 3.03442 17.2908 3.03442H17.2854Z" fill="white"/>
<path d="M33.1496 30.0517C33.1087 30.0162 33.0542 30.008 33.0051 30.0299C32.956 30.0517 32.926 30.098 32.9233 30.1498L32.8606 31.7941C32.8551 31.9659 32.956 32.1241 33.1196 32.1841C33.2587 32.2359 33.4359 32.2822 33.6186 32.2822C33.755 32.2822 33.894 32.2577 34.0276 32.1895C34.2594 32.0723 34.423 31.8514 34.5157 31.5323C34.5567 31.3933 34.5103 31.2406 34.4012 31.1451L33.1551 30.0517H33.1496Z" fill="white"/>
<path d="M27.9848 13.4263C27.8403 13.4399 27.7175 13.5381 27.6712 13.6799L27.1695 15.2505C27.1531 15.2996 27.1695 15.3541 27.2049 15.3896C27.2294 15.4141 27.2649 15.4277 27.3003 15.4277C27.3167 15.4277 27.3303 15.4277 27.3467 15.4196L28.8683 14.8797C29.0319 14.8224 29.1355 14.667 29.1246 14.4924C29.111 14.2307 29.0373 13.8707 28.7674 13.6362C28.571 13.4672 28.3093 13.3935 27.9848 13.4235V13.4263Z" fill="white"/>
<path d="M23.1358 9.57586C22.8849 9.52132 22.6231 9.58949 22.3559 9.77491C22.2359 9.85672 22.1786 10.004 22.2059 10.1512L22.5195 11.7873C22.5304 11.8391 22.5686 11.88 22.6177 11.8937C22.6286 11.8964 22.6422 11.8991 22.6531 11.8991C22.6913 11.8991 22.7295 11.8828 22.7567 11.8528L23.8202 10.6257C23.932 10.4948 23.9484 10.3094 23.8584 10.1621C23.722 9.93853 23.4848 9.65493 23.1385 9.58131L23.1358 9.57586Z" fill="white"/>
<path d="M16.0746 9.63048L17.4898 10.484C17.5116 10.4976 17.5362 10.5031 17.5607 10.5031C17.588 10.5031 17.6125 10.4949 17.6344 10.4812C17.678 10.4513 17.7025 10.3994 17.6943 10.3476L17.468 8.71153C17.4435 8.53974 17.3153 8.4034 17.1463 8.37341C16.8954 8.32705 16.5354 8.31887 16.2573 8.52884C16.0501 8.68427 15.9274 8.93241 15.8919 9.26508C15.8755 9.4096 15.9492 9.5514 16.0746 9.62502V9.63048Z" fill="white"/>
<path d="M14.9673 13.6445C14.8337 13.5327 14.6456 13.5218 14.5038 13.62C14.2938 13.7618 14.0347 14.0018 13.9748 14.3481C13.9311 14.6071 14.0075 14.8771 14.2093 15.1498C14.2802 15.2452 14.392 15.2997 14.5065 15.2997C14.5338 15.2997 14.561 15.297 14.5883 15.2916L16.178 14.9371C16.2298 14.9262 16.268 14.8853 16.2817 14.8362C16.2926 14.7844 16.2762 14.7326 16.2353 14.6998L14.9701 13.6473L14.9673 13.6445Z" fill="white"/>
<path d="M21.9613 24.6881L20.5842 25.5335C20.437 25.6234 20.3688 25.798 20.4124 25.967C20.4779 26.2206 20.6224 26.5615 20.9333 26.736C21.0614 26.8069 21.2059 26.8423 21.3614 26.8423C21.4786 26.8423 21.6068 26.8205 21.7377 26.7823C21.8767 26.7387 21.9749 26.616 21.9913 26.4688L22.1658 24.8218C22.1712 24.7699 22.1467 24.7209 22.1031 24.6909C22.0594 24.6636 22.0022 24.6636 21.9586 24.6909L21.9613 24.6881Z" fill="white"/>
<path d="M26.9071 28.5957C26.8907 28.5467 26.8471 28.5085 26.7953 28.503C26.7434 28.4976 26.6916 28.5194 26.6644 28.563L25.7618 29.9155C25.6663 30.0573 25.6745 30.2455 25.7809 30.3818C25.9445 30.589 26.2117 30.8399 26.5662 30.8699C26.588 30.8699 26.6126 30.8726 26.6344 30.8726C26.8662 30.8726 27.0952 30.7717 27.3161 30.5754C27.4224 30.48 27.4633 30.3245 27.417 30.1855L26.9071 28.5985V28.5957Z" fill="white"/>
<path d="M18.7684 19.6598L17.1514 19.5181C16.9796 19.5017 16.8188 19.6053 16.7588 19.7662C16.6688 20.0062 16.5897 20.3606 16.7424 20.6851C16.8542 20.9224 17.0669 21.0969 17.3778 21.206C17.4159 21.2196 17.4568 21.225 17.4977 21.225C17.5986 21.225 17.6995 21.1814 17.7704 21.1023L18.8612 19.8862C18.8966 19.848 18.9048 19.7935 18.8857 19.7444C18.8666 19.6953 18.823 19.6626 18.7712 19.6598H18.7684Z" fill="white"/>
<path d="M35.8334 24.7918C35.7489 24.6718 35.6016 24.6173 35.4571 24.6473L33.8619 24.9827C33.8101 24.9936 33.7719 25.0317 33.7583 25.0835C33.7447 25.1326 33.7638 25.1872 33.8019 25.2199L35.0535 26.2888C35.1272 26.3515 35.2172 26.3842 35.3071 26.3842C35.3808 26.3842 35.4544 26.3624 35.5171 26.3215C35.7271 26.1825 35.9916 25.9452 36.057 25.5989C36.1061 25.3399 36.0297 25.0699 35.8334 24.7945V24.7918Z" fill="white"/>
<path d="M33.3238 20.1642C33.3947 19.9161 33.4411 19.5534 33.2611 19.2453C33.1302 19.019 32.9039 18.8635 32.5849 18.7817C32.4431 18.7463 32.2931 18.7981 32.2058 18.9181L31.2242 20.2269C31.1942 20.2678 31.1887 20.3224 31.2105 20.3687C31.2323 20.4151 31.2814 20.4451 31.3332 20.4451H32.953C33.1248 20.4451 33.2775 20.3278 33.3238 20.1642Z" fill="white"/>
<path d="M42.9476 28.8355C42.7649 18.8526 34.5244 7.05632 24.5769 2.54342C20.094 0.509202 15.7529 0.181983 12.3525 1.62175L12.2844 1.65447C11.6081 1.99805 10.9346 2.38526 10.2829 2.80792L10.2202 2.84882C8.41227 4.02681 6.78708 5.46113 5.38821 7.10813C3.77393 9.00328 2.49232 11.1384 1.57884 13.4616C1.49158 13.6825 1.40704 13.9061 1.33615 14.1161C1.2298 14.4051 1.13163 14.7024 1.02802 15.0323L1.01983 15.0596C1.00893 15.0896 1.00075 15.1223 0.992566 15.1523C0.916215 15.4004 0.839864 15.6595 0.771693 15.9267C0.725337 16.0958 0.684435 16.2676 0.638078 16.4475L0.621717 16.5157C0.608083 16.5675 0.597176 16.622 0.588995 16.6602C0.515371 16.9793 0.449927 17.2983 0.392664 17.6064C0.166337 18.8171 0.0354489 20.0578 0.00818049 21.2931C0.00272683 21.5031 0 21.7158 0 21.9285C0 22.0403 0 22.1521 0 22.242C0 22.272 0 22.2993 0 22.3293C0.00272683 22.4984 0.00818049 22.6674 0.016361 22.8365V22.8528C0.1118 25.1652 0.548093 27.4367 1.31161 29.6099C1.52975 30.2289 1.77789 30.8534 2.0533 31.4642C2.266 31.9332 2.48687 32.3858 2.71047 32.8031C3.77666 34.8155 5.13189 36.667 6.73527 38.3003C7.85054 39.432 9.08034 40.4545 10.4001 41.3435C10.6483 41.5098 10.8991 41.6734 11.1473 41.8234C12.2844 42.5297 13.4951 43.1377 14.744 43.634C15.2757 43.8467 15.8047 44.0349 16.3174 44.1957L16.3937 44.2203C18.3597 44.8366 20.4076 45.1829 22.4718 45.2483C22.6327 45.2538 22.7908 45.2592 22.9545 45.2619C23.0417 45.2619 23.129 45.2619 23.2162 45.2619C23.4753 45.2619 23.7316 45.2592 23.9825 45.2483C24.4815 45.2319 24.9778 45.1992 25.455 45.1501C30.546 44.6511 35.3479 42.396 38.9855 38.7994L39.0155 38.7694C39.7245 38.0686 40.3871 37.316 40.9897 36.5334L41.0443 36.4543C42.3586 34.3846 42.9967 31.8241 42.9421 28.8382L42.9476 28.8355ZM40.1471 35.7835C39.8499 36.1707 39.5363 36.5497 39.2118 36.9151C38.2656 37.9813 37.0985 38.843 35.7678 39.3529C35.307 39.5301 34.8244 39.6719 34.3281 39.781C34.3199 39.7865 34.1126 39.8274 34.0227 39.8437C33.9518 39.8574 33.8836 39.8683 33.8127 39.8792C33.6709 39.901 33.5291 39.9201 33.3873 39.9364C33.33 39.9446 33.2728 39.9528 33.2155 39.9583C33.0165 39.9801 32.8119 39.9964 32.6074 40.0046C32.5665 40.0046 32.5229 40.0046 32.4793 40.0073C32.3129 40.0155 32.1466 40.0182 31.9775 40.0182C31.9066 40.0182 31.8357 40.0182 31.7621 40.0155C31.6176 40.0155 31.4703 40.0101 31.3231 40.0019C31.2467 39.9992 31.1731 39.9937 31.0968 39.9883C30.9441 39.9773 30.7914 39.9664 30.6359 39.9501C30.5678 39.9446 30.5023 39.9364 30.4342 39.931C30.396 39.9255 30.3578 39.9228 30.3169 39.9201H30.3224C29.5588 40.8745 28.1545 41.9407 26.742 42.7587C26.2457 42.846 25.7467 42.9196 25.2423 42.9687C24.8114 43.0123 24.3615 43.0396 23.9034 43.0559C23.6771 43.0641 23.448 43.0668 23.219 43.0668C23.1426 43.0668 23.0608 43.0668 22.9872 43.0668C22.8427 43.0668 22.7009 43.0614 22.5482 43.0559C21.0566 43.0069 19.5786 42.7969 18.1361 42.4315C19.8486 41.6053 22.6736 40.0537 24.3588 38.0986C24.367 38.0986 24.3724 38.1013 24.3806 38.104C24.3533 38.0904 24.3261 38.0767 24.2988 38.0631C24.1706 38.0004 24.0397 37.9431 23.9116 37.8777C23.6553 37.7495 23.3989 37.6159 23.1453 37.4768C22.2591 36.9915 21.392 36.4515 20.5467 35.8571C20.4949 35.8217 20.443 35.7808 20.3912 35.7453C20.3885 35.7453 20.3858 35.7398 20.3831 35.7398C20.2113 35.6171 20.0367 35.4944 19.8677 35.3663C19.8704 35.3663 19.8731 35.3717 19.8759 35.3745C18.7688 36.7515 15.9165 38.8975 12.917 40.3209C12.7098 40.2009 12.4998 40.081 12.298 39.9555C12.0689 39.8165 11.8426 39.6692 11.6217 39.5192C10.5092 38.7721 9.47028 37.9131 8.51589 36.9696C10.2938 35.8053 12.9006 33.9401 15.562 31.5078C15.5511 31.4942 15.5375 31.4805 15.5266 31.4696C15.4966 31.4369 15.4666 31.4096 15.4366 31.3769C15.2784 31.2051 15.1257 31.0279 14.9703 30.8534C14.8367 30.7034 14.7003 30.5534 14.5667 30.4007C14.3704 30.1744 14.1822 29.9426 13.9941 29.7108C13.885 29.5772 13.7732 29.4436 13.6641 29.31C13.4705 29.0646 13.2824 28.8164 13.0942 28.5656C12.9961 28.4374 12.8979 28.3092 12.8025 28.1783C12.6252 27.9357 12.4534 27.6875 12.2816 27.4421C12.2162 27.3467 12.1453 27.254 12.0799 27.1558C12.0799 27.1558 12.0799 27.1558 12.0771 27.1585C8.7613 29.2118 6.97523 30.5752 4.97919 32.3804C4.86194 32.1759 4.75014 31.9714 4.63834 31.7641C4.43655 31.3851 4.23477 30.9788 4.04389 30.5561C3.79575 30.0026 3.56942 29.4354 3.37036 28.8764C3.16857 28.3011 2.99406 27.7202 2.84408 27.1312C4.24295 25.3315 7.26155 22.722 9.19214 21.953C8.90855 21.304 8.6495 20.6496 8.41772 19.9951C8.415 19.9842 8.40954 19.9733 8.40682 19.9651C8.34137 19.7743 8.27593 19.5861 8.21321 19.3952C8.19958 19.3516 8.18322 19.3052 8.16958 19.2616C8.1205 19.1116 8.07414 18.9617 8.03051 18.809C8.00597 18.7244 7.9787 18.6426 7.95689 18.5581C7.92689 18.4517 7.8969 18.3427 7.8669 18.2363C7.83418 18.1136 7.79873 17.9909 7.76601 17.8682C7.76056 17.8464 7.7551 17.8273 7.74965 17.8055C7.73602 17.7482 7.72238 17.6937 7.70875 17.6364C7.62967 17.3174 7.55332 16.9983 7.48787 16.6793C4.90011 17.7428 3.20402 19.3352 2.21964 20.5132C2.27418 19.6679 2.3778 18.8253 2.53323 17.9991C2.58504 17.7182 2.64503 17.4319 2.71592 17.1292L2.75955 16.9465C2.79773 16.7911 2.8359 16.6384 2.87953 16.4802C2.94225 16.243 3.00769 16.0085 3.08132 15.7767L3.11404 15.6704C3.20402 15.3759 3.29401 15.1114 3.39217 14.8414C3.46035 14.6451 3.53397 14.4488 3.61032 14.2552C3.83665 13.6798 4.09024 13.1181 4.36565 12.57C5.30368 11.7056 6.35897 10.9066 7.22064 10.4349C7.22064 10.4403 7.22064 10.4485 7.22064 10.454C7.22064 10.4458 7.22337 10.4376 7.22337 10.4294C7.23155 10.364 7.23973 10.2958 7.24791 10.2304C7.47151 8.82058 7.8969 7.56897 8.49135 6.48914C8.49135 6.48914 8.49135 6.48641 8.49135 6.48369C8.56497 6.35007 8.64132 6.21919 8.7204 6.09102C8.72585 6.08012 8.73131 6.07194 8.73676 6.06103C8.81039 5.94378 8.88674 5.82652 8.96309 5.71472C8.97672 5.69563 8.98763 5.67655 9.00127 5.65746C9.07216 5.55384 9.14579 5.45567 9.22214 5.35478C9.24395 5.32751 9.26304 5.30024 9.28213 5.27298C9.3503 5.18572 9.41847 5.10118 9.48937 5.01938C9.51936 4.98393 9.54936 4.94576 9.57935 4.90758C9.63934 4.83668 9.70206 4.77124 9.76478 4.70307C9.80841 4.65671 9.84931 4.60763 9.89294 4.564C9.94202 4.51219 9.99383 4.46311 10.0429 4.41402C10.0947 4.36221 10.1465 4.3104 10.1983 4.26132C10.2202 4.24223 10.2392 4.22315 10.2611 4.20406C10.2747 4.19042 10.2883 4.17952 10.3047 4.16588C10.3865 4.08953 10.471 4.01591 10.5583 3.94501C10.6728 3.84957 10.7873 3.75413 10.9073 3.66415C11.5209 3.26603 12.1371 2.87064 12.7916 2.53796C15.802 1.26453 19.7695 1.46632 24.1406 3.44873C33.7582 7.81165 41.6987 19.1498 41.8705 28.7673C41.9223 31.5951 41.2951 33.9592 40.1417 35.778L40.1471 35.7835Z" fill="white"/>
</svg>
