<svg width="178" height="40" viewBox="0 0 178 40" fill="none" xmlns="http://www.w3.org/2000/svg">
<g clip-path="url(#clip0_2916_3667)">
<path d="M97.9766 9.2295C98.2153 8.58983 98.3366 7.91178 98.3348 7.22839C98.3348 5.70537 97.8314 4.44384 96.8245 3.44381C95.8176 2.44377 94.5595 1.94297 93.0502 1.94141C88.3334 1.94141 84.3527 3.57664 81.1084 6.84711C77.864 10.1176 76.2413 14.1289 76.2402 18.8812C76.2402 19.5503 76.2802 20.2188 76.3599 20.8831C76.2802 21.5471 76.2403 22.2154 76.2402 22.8842C76.2402 27.6375 77.8629 31.6489 81.1084 34.9183C84.3538 38.1877 88.3344 39.823 93.0502 39.824C94.5595 39.824 95.8176 39.3232 96.8245 38.3216C97.8314 37.32 98.3348 36.059 98.3348 34.5386C98.3366 33.8547 98.2153 33.1761 97.9766 32.5359C98.2152 31.8957 98.3366 31.2171 98.3348 30.5332C98.3348 28.9314 97.7909 27.6234 96.7033 26.6093C97.7909 25.5957 98.3348 24.2875 98.3348 22.6846C98.3364 22.001 98.2151 21.3227 97.9766 20.6827C98.2152 20.0424 98.3366 19.3639 98.3348 18.68C98.3348 17.2128 97.8578 15.9717 96.9037 14.9565C97.8567 13.9418 98.3337 12.7004 98.3348 11.2322C98.3364 10.5483 98.2151 9.86978 97.9766 9.2295ZM95.9209 10.1252C95.1766 10.8752 94.1845 11.2713 93.0464 11.2713C91.7965 11.269 90.5655 11.5787 89.4634 12.1729C88.3614 12.7671 87.4225 13.6271 86.7309 14.6762H93.0464C94.1713 14.6762 95.1603 15.0622 95.9054 15.7911C96.6598 16.5317 97.0583 17.5307 97.0583 18.6792C97.0583 19.8277 96.6637 20.826 95.9186 21.576C95.1735 22.326 94.1806 22.7229 93.044 22.7229H86.5118C87.0222 23.603 87.7065 24.3681 88.5224 24.9707C89.8185 25.9724 91.4107 26.5069 93.044 26.4887C94.1783 26.4887 95.1704 26.8864 95.9186 27.6373C96.6668 28.3881 97.0583 29.3878 97.0583 30.534C97.0583 31.6802 96.6598 32.6831 95.9069 33.423C95.1541 34.1628 94.1907 34.5378 93.0464 34.5378C88.7034 34.5378 84.9898 33.0135 82.0072 30.0079C79.0247 27.0023 77.5089 23.2569 77.5089 18.882C77.5089 14.5071 79.0231 10.764 82.0072 7.75764C84.9914 4.75127 88.7019 3.22616 93.0464 3.22616C94.1907 3.22616 95.1526 3.60196 95.9069 4.34259C96.6613 5.08322 97.0583 6.07986 97.0583 7.22996C97.0583 8.38005 96.6675 9.37591 95.9209 10.1252Z" fill="#1E1E1E"/>
<path d="M93.0507 22.7238H86.5185C87.0289 23.6039 87.7132 24.369 88.5291 24.9716C89.8252 25.9733 91.4174 26.5078 93.0507 26.4896C94.185 26.4896 95.1771 26.8873 95.9253 27.6381C96.6734 28.389 97.065 29.3887 97.065 30.5349C97.065 31.6811 96.6665 32.684 95.9136 33.4238C95.1608 34.1637 94.1974 34.5387 93.053 34.5387C88.7101 34.5387 84.9965 33.0144 82.0139 30.0088C79.0314 27.0032 77.5156 23.2578 77.5156 18.8829C77.5156 14.508 79.0298 10.7649 82.0139 7.75853C84.998 4.75216 88.7086 3.22705 93.053 3.22705C94.1974 3.22705 95.1593 3.60285 95.9136 4.34348C96.668 5.08411 97.065 6.08075 97.065 7.23085C97.065 8.38094 96.6703 9.37836 95.9237 10.1276C95.1771 10.8769 94.1873 11.2738 93.0492 11.2738C91.7993 11.2715 90.5683 11.5812 89.4662 12.1754C88.3642 12.7695 87.4253 13.6296 86.7337 14.6787H93.0492C94.1741 14.6787 95.1631 15.0646 95.9082 15.7935C96.6626 16.5342 97.0611 17.5331 97.0611 18.6817C97.0611 19.8302 96.6665 20.8284 95.9214 21.5784C95.1763 22.3285 94.185 22.7238 93.0507 22.7238Z" fill="#DF5051"/>
<path d="M118.667 30.4542C118.667 28.9317 118.17 27.6631 117.176 26.6484C116.182 25.6338 114.93 25.1267 113.421 25.1273H111.673C111.248 25.1273 111.037 24.9151 111.037 24.486V7.22839C111.037 5.70537 110.534 4.44384 109.527 3.44381C108.521 2.44377 107.263 1.94297 105.752 1.94141C104.241 1.94141 102.989 2.44221 101.997 3.44381C101.004 4.44541 100.507 5.70694 100.506 7.22839V28.4914C100.506 31.6685 101.579 34.3379 103.725 36.4998C105.87 38.6617 108.52 39.7429 111.673 39.7434H113.421C114.93 39.7434 116.182 39.2431 117.176 38.2425C118.17 37.242 118.667 35.9805 118.667 34.458C118.669 33.7741 118.547 33.0955 118.309 32.4553C118.552 31.8169 118.673 31.138 118.667 30.4542ZM116.275 33.329C115.532 34.0767 114.573 34.4556 113.421 34.4556H111.673C108.861 34.4556 106.483 33.4973 104.603 31.6082C102.723 29.719 101.776 27.3217 101.776 24.4837V7.22839C101.776 6.0689 102.153 5.10123 102.896 4.35277C103.625 3.61605 104.612 3.22459 105.748 3.22459C106.885 3.22459 107.855 3.60039 108.609 4.34102C109.363 5.08165 109.761 6.0783 109.761 7.22839V24.486C109.761 25.045 109.935 25.4788 110.31 25.8546C110.684 26.2304 111.116 26.4089 111.669 26.4089H113.417C114.556 26.4089 115.548 26.8113 116.283 27.5691C117.018 28.327 117.391 29.3002 117.391 30.4534C117.391 31.6066 117.007 32.5884 116.275 33.329Z" fill="#1E1E1E"/>
<path d="M117.39 30.4534C117.39 31.5964 117.001 32.5907 116.27 33.329C115.539 34.0673 114.569 34.4556 113.417 34.4556H111.669C108.856 34.4556 106.479 33.4974 104.599 31.6082C102.719 29.719 101.771 27.3218 101.771 24.4837V7.22841C101.771 6.06892 102.148 5.10124 102.891 4.35278C103.621 3.61606 104.607 3.22461 105.744 3.22461C106.88 3.22461 107.851 3.60041 108.604 4.34104C109.358 5.08167 109.757 6.07831 109.757 7.22841V24.4861C109.757 25.0451 109.931 25.4788 110.305 25.8546C110.68 26.2304 111.111 26.4089 111.665 26.4089H113.413C114.552 26.4089 115.543 26.8113 116.278 27.5692C117.013 28.327 117.39 29.3002 117.39 30.4534Z" fill="#DF5051"/>
<path d="M141.531 13.4478C140.078 11.9838 138.315 11.2713 136.139 11.2713C133.963 11.2713 132.197 11.9759 130.744 13.4306C129.291 14.8852 128.588 16.664 128.588 18.8804C128.588 21.0726 129.3 22.8474 130.763 24.3099C132.226 25.7724 133.986 26.4895 136.138 26.4895C138.313 26.4895 140.077 25.7778 141.528 24.3138C142.979 22.8498 143.689 21.0733 143.689 18.8804C143.689 16.6875 142.984 14.9111 141.531 13.4478ZM139.914 24.0069C138.826 24.8081 137.568 25.2084 136.139 25.2079C134.711 25.2074 133.46 24.807 132.386 24.0069C131.334 23.2346 130.56 22.1381 130.18 20.8831C130.525 19.6117 131.298 18.5005 132.366 17.7397C133.454 16.9521 134.712 16.5586 136.141 16.5591C137.915 16.5591 139.412 17.1593 140.631 18.3598C141.317 19.0595 141.833 19.9086 142.141 20.8416C141.767 22.1164 140.984 23.2299 139.914 24.0069ZM141.531 13.4478C140.078 11.9838 138.315 11.2713 136.139 11.2713C133.963 11.2713 132.197 11.9759 130.744 13.4306C129.291 14.8852 128.588 16.664 128.588 18.8804C128.588 21.0726 129.3 22.8474 130.763 24.3099C132.226 25.7724 133.986 26.4895 136.138 26.4895C138.313 26.4895 140.077 25.7778 141.528 24.3138C142.979 22.8498 143.689 21.0733 143.689 18.8804C143.689 16.6875 142.984 14.9111 141.531 13.4478ZM139.914 24.0069C138.826 24.8081 137.568 25.2084 136.139 25.2079C134.711 25.2074 133.46 24.807 132.386 24.0069C131.334 23.2346 130.56 22.1381 130.18 20.8831C130.525 19.6117 131.298 18.5005 132.366 17.7397C133.454 16.9521 134.712 16.5586 136.141 16.5591C137.915 16.5591 139.412 17.1593 140.631 18.3598C141.317 19.0595 141.833 19.9086 142.141 20.8416C141.767 22.1164 140.984 23.2299 139.914 24.0069ZM141.531 13.4478C140.078 11.9838 138.315 11.2713 136.139 11.2713C133.963 11.2713 132.197 11.9759 130.744 13.4306C129.291 14.8852 128.588 16.664 128.588 18.8804C128.588 21.0726 129.3 22.8474 130.763 24.3099C132.226 25.7724 133.986 26.4895 136.138 26.4895C138.313 26.4895 140.077 25.7778 141.528 24.3138C142.979 22.8498 143.689 21.0733 143.689 18.8804C143.689 16.6875 142.984 14.9111 141.531 13.4478ZM139.914 24.0069C138.826 24.8081 137.568 25.2084 136.139 25.2079C134.711 25.2074 133.46 24.807 132.386 24.0069C131.334 23.2346 130.56 22.1381 130.18 20.8831C130.525 19.6117 131.298 18.5005 132.366 17.7397C133.454 16.9521 134.712 16.5586 136.141 16.5591C137.915 16.5591 139.412 17.1593 140.631 18.3598C141.317 19.0595 141.833 19.9086 142.141 20.8416C141.767 22.1164 140.984 23.2299 139.914 24.0069ZM141.531 13.4478C140.078 11.9838 138.315 11.2713 136.139 11.2713C133.963 11.2713 132.197 11.9759 130.744 13.4306C129.291 14.8852 128.588 16.664 128.588 18.8804C128.588 21.0726 129.3 22.8474 130.763 24.3099C132.226 25.7724 133.986 26.4895 136.138 26.4895C138.313 26.4895 140.077 25.7778 141.528 24.3138C142.979 22.8498 143.689 21.0733 143.689 18.8804C143.689 16.6875 142.984 14.9111 141.531 13.4478ZM139.914 24.0069C138.826 24.8081 137.568 25.2084 136.139 25.2079C134.711 25.2074 133.46 24.807 132.386 24.0069C131.334 23.2346 130.56 22.1381 130.18 20.8831C130.525 19.6117 131.298 18.5005 132.366 17.7397C133.454 16.9521 134.712 16.5586 136.141 16.5591C137.915 16.5591 139.412 17.1593 140.631 18.3598C141.317 19.0595 141.833 19.9086 142.141 20.8416C141.767 22.1164 140.984 23.2299 139.914 24.0069ZM141.531 13.4478C140.078 11.9838 138.315 11.2713 136.139 11.2713C133.963 11.2713 132.197 11.9759 130.744 13.4306C129.291 14.8852 128.588 16.664 128.588 18.8804C128.588 21.0726 129.3 22.8474 130.763 24.3099C132.226 25.7724 133.986 26.4895 136.138 26.4895C138.313 26.4895 140.077 25.7778 141.528 24.3138C142.979 22.8498 143.689 21.0733 143.689 18.8804C143.689 16.6875 142.984 14.9111 141.531 13.4478ZM139.914 24.0069C138.826 24.8081 137.568 25.2084 136.139 25.2079C134.711 25.2074 133.46 24.807 132.386 24.0069C131.334 23.2346 130.56 22.1381 130.18 20.8831C130.525 19.6117 131.298 18.5005 132.366 17.7397C133.454 16.9521 134.712 16.5586 136.141 16.5591C137.915 16.5591 139.412 17.1593 140.631 18.3598C141.317 19.0595 141.833 19.9086 142.141 20.8416C141.767 22.1164 140.984 23.2299 139.914 24.0069ZM141.531 13.4478C140.078 11.9838 138.315 11.2713 136.139 11.2713C133.963 11.2713 132.197 11.9759 130.744 13.4306C129.291 14.8852 128.588 16.664 128.588 18.8804C128.588 21.0726 129.3 22.8474 130.763 24.3099C132.226 25.7724 133.986 26.4895 136.138 26.4895C138.313 26.4895 140.077 25.7778 141.528 24.3138C142.979 22.8498 143.689 21.0733 143.689 18.8804C143.689 16.6875 142.984 14.9111 141.531 13.4478ZM139.914 24.0069C138.826 24.8081 137.568 25.2084 136.139 25.2079C134.711 25.2074 133.46 24.807 132.386 24.0069C131.334 23.2346 130.56 22.1381 130.18 20.8831C130.525 19.6117 131.298 18.5005 132.366 17.7397C133.454 16.9521 134.712 16.5586 136.141 16.5591C137.915 16.5591 139.412 17.1593 140.631 18.3598C141.317 19.0595 141.833 19.9086 142.141 20.8416C141.767 22.1164 140.984 23.2299 139.914 24.0069ZM141.531 13.4478C140.078 11.9838 138.315 11.2713 136.139 11.2713C133.963 11.2713 132.197 11.9759 130.744 13.4306C129.291 14.8852 128.588 16.664 128.588 18.8804C128.588 21.0726 129.3 22.8474 130.763 24.3099C132.226 25.7724 133.986 26.4895 136.138 26.4895C138.313 26.4895 140.077 25.7778 141.528 24.3138C142.979 22.8498 143.689 21.0733 143.689 18.8804C143.689 16.6875 142.984 14.9111 141.531 13.4478ZM139.914 24.0069C138.826 24.8081 137.568 25.2084 136.139 25.2079C134.711 25.2074 133.46 24.807 132.386 24.0069C131.334 23.2346 130.56 22.1381 130.18 20.8831C130.525 19.6117 131.298 18.5005 132.366 17.7397C133.454 16.9521 134.712 16.5586 136.141 16.5591C137.915 16.5591 139.412 17.1593 140.631 18.3598C141.317 19.0595 141.833 19.9086 142.141 20.8416C141.767 22.1164 140.984 23.2299 139.914 24.0069ZM141.531 13.4478C140.078 11.9838 138.315 11.2713 136.139 11.2713C133.963 11.2713 132.197 11.9759 130.744 13.4306C129.291 14.8852 128.588 16.664 128.588 18.8804C128.588 21.0726 129.3 22.8474 130.763 24.3099C132.226 25.7724 133.986 26.4895 136.138 26.4895C138.313 26.4895 140.077 25.7778 141.528 24.3138C142.979 22.8498 143.689 21.0733 143.689 18.8804C143.689 16.6875 142.984 14.9111 141.531 13.4478ZM139.914 24.0069C138.826 24.8081 137.568 25.2084 136.139 25.2079C134.711 25.2074 133.46 24.807 132.386 24.0069C131.334 23.2346 130.56 22.1381 130.18 20.8831C130.525 19.6117 131.298 18.5005 132.366 17.7397C133.454 16.9521 134.712 16.5586 136.141 16.5591C137.915 16.5591 139.412 17.1593 140.631 18.3598C141.317 19.0595 141.833 19.9086 142.141 20.8416C141.767 22.1164 140.984 23.2299 139.914 24.0069ZM141.531 13.4478C140.078 11.9838 138.315 11.2713 136.139 11.2713C133.963 11.2713 132.197 11.9759 130.744 13.4306C129.291 14.8852 128.588 16.664 128.588 18.8804C128.588 21.0726 129.3 22.8474 130.763 24.3099C132.226 25.7724 133.986 26.4895 136.138 26.4895C138.313 26.4895 140.077 25.7778 141.528 24.3138C142.979 22.8498 143.689 21.0733 143.689 18.8804C143.689 16.6875 142.984 14.9111 141.531 13.4478ZM139.914 24.0069C138.826 24.8081 137.568 25.2084 136.139 25.2079C134.711 25.2074 133.46 24.807 132.386 24.0069C131.334 23.2346 130.56 22.1381 130.18 20.8831C130.525 19.6117 131.298 18.5005 132.366 17.7397C133.454 16.9521 134.712 16.5586 136.141 16.5591C137.915 16.5591 139.412 17.1593 140.631 18.3598C141.317 19.0595 141.833 19.9086 142.141 20.8416C141.767 22.1164 140.984 23.2299 139.914 24.0069ZM141.531 13.4478C140.078 11.9838 138.315 11.2713 136.139 11.2713C133.963 11.2713 132.197 11.9759 130.744 13.4306C129.291 14.8852 128.588 16.664 128.588 18.8804C128.588 21.0726 129.3 22.8474 130.763 24.3099C132.226 25.7724 133.986 26.4895 136.138 26.4895C138.313 26.4895 140.077 25.7778 141.528 24.3138C142.979 22.8498 143.689 21.0733 143.689 18.8804C143.689 16.6875 142.984 14.9111 141.531 13.4478ZM139.914 24.0069C138.826 24.8081 137.568 25.2084 136.139 25.2079C134.711 25.2074 133.46 24.807 132.386 24.0069C131.334 23.2346 130.56 22.1381 130.18 20.8831C130.525 19.6117 131.298 18.5005 132.366 17.7397C133.454 16.9521 134.712 16.5586 136.141 16.5591C137.915 16.5591 139.412 17.1593 140.631 18.3598C141.317 19.0595 141.833 19.9086 142.141 20.8416C141.767 22.1164 140.984 23.2299 139.914 24.0069ZM141.531 13.4478C140.078 11.9838 138.315 11.2713 136.139 11.2713C133.963 11.2713 132.197 11.9759 130.744 13.4306C129.291 14.8852 128.588 16.664 128.588 18.8804C128.588 21.0726 129.3 22.8474 130.763 24.3099C132.226 25.7724 133.986 26.4895 136.138 26.4895C138.313 26.4895 140.077 25.7778 141.528 24.3138C142.979 22.8498 143.689 21.0733 143.689 18.8804C143.689 16.6875 142.984 14.9111 141.531 13.4478ZM139.914 24.0069C138.826 24.8081 137.568 25.2084 136.139 25.2079C134.711 25.2074 133.46 24.807 132.386 24.0069C131.334 23.2346 130.56 22.1381 130.18 20.8831C130.525 19.6117 131.298 18.5005 132.366 17.7397C133.454 16.9521 134.712 16.5586 136.141 16.5591C137.915 16.5591 139.412 17.1593 140.631 18.3598C141.317 19.0595 141.833 19.9086 142.141 20.8416C141.767 22.1164 140.984 23.2299 139.914 24.0069ZM141.531 13.4478C140.078 11.9838 138.315 11.2713 136.139 11.2713C133.963 11.2713 132.197 11.9759 130.744 13.4306C129.291 14.8852 128.588 16.664 128.588 18.8804C128.588 21.0726 129.3 22.8474 130.763 24.3099C132.226 25.7724 133.986 26.4895 136.138 26.4895C138.313 26.4895 140.077 25.7778 141.528 24.3138C142.979 22.8498 143.689 21.0733 143.689 18.8804C143.689 16.6875 142.984 14.9111 141.531 13.4478ZM139.914 24.0069C138.826 24.8081 137.568 25.2084 136.139 25.2079C134.711 25.2074 133.46 24.807 132.386 24.0069C131.334 23.2346 130.56 22.1381 130.18 20.8831C130.525 19.6117 131.298 18.5005 132.366 17.7397C133.454 16.9521 134.712 16.5586 136.141 16.5591C137.915 16.5591 139.412 17.1593 140.631 18.3598C141.317 19.0595 141.833 19.9086 142.141 20.8416C141.767 22.1164 140.984 23.2299 139.914 24.0069ZM152.949 18.8812C152.949 14.1316 151.326 10.1202 148.08 6.84711C144.835 3.57403 140.855 1.9388 136.139 1.94141C131.423 1.94141 127.443 3.57664 124.199 6.84711C120.955 10.1176 119.333 14.1289 119.334 18.8812C119.334 19.5503 119.374 20.2188 119.454 20.8831C119.374 21.5471 119.334 22.2154 119.334 22.8842C119.334 27.6375 120.957 31.6489 124.202 34.9183C127.448 38.1877 131.428 39.823 136.142 39.824C140.831 39.824 144.805 38.182 148.063 34.8979C151.322 31.6139 152.951 27.6093 152.952 22.8842C152.952 22.2286 152.912 21.5736 152.832 20.923C152.911 20.2454 152.95 19.5635 152.949 18.8812ZM147.178 30.0048C144.195 33.0103 140.481 34.5347 136.139 34.5347C131.797 34.5347 128.084 33.0119 125.1 30.0048C122.116 26.9976 120.603 23.2537 120.603 18.8789C120.603 14.504 122.116 10.7609 125.1 7.7545C128.084 4.74814 131.796 3.22303 136.139 3.22303C140.482 3.22303 144.195 4.75048 147.179 7.75607C150.163 10.7617 151.675 14.5047 151.675 18.8804C151.675 23.2561 150.163 26.9984 147.178 30.0048ZM136.139 11.2698C133.964 11.2698 132.197 11.9744 130.744 13.429C129.291 14.8837 128.588 16.6624 128.588 18.8789C128.588 21.071 129.3 22.8458 130.763 24.3083C132.226 25.7708 133.986 26.4879 136.138 26.4879C138.313 26.4879 140.077 25.7763 141.528 24.3122C142.979 22.8482 143.689 21.0718 143.689 18.8789C143.689 16.6859 142.982 14.9095 141.53 13.4462C140.077 11.983 138.315 11.2713 136.139 11.2713V11.2698ZM139.914 24.0053C138.826 24.8065 137.568 25.2068 136.139 25.2063C134.711 25.2058 133.46 24.806 132.386 24.0069C131.334 23.2346 130.56 22.1381 130.18 20.8831C130.525 19.6117 131.298 18.5005 132.366 17.7397C133.454 16.9521 134.712 16.5586 136.141 16.5591C137.915 16.5591 139.412 17.1593 140.631 18.3598C141.317 19.0595 141.833 19.9086 142.141 20.8416C141.767 22.1164 140.984 23.2299 139.914 24.0069V24.0053ZM141.531 13.4462C140.078 11.9822 138.315 11.2698 136.139 11.2698C133.963 11.2698 132.197 11.9744 130.744 13.429C129.291 14.8837 128.588 16.6624 128.588 18.8789C128.588 21.071 129.3 22.8458 130.763 24.3083C132.226 25.7708 133.986 26.4879 136.138 26.4879C138.313 26.4879 140.077 25.7763 141.528 24.3122C142.979 22.8482 143.689 21.0718 143.689 18.8789C143.689 16.6859 142.984 14.9111 141.531 13.4478V13.4462ZM139.914 24.0053C138.826 24.8065 137.568 25.2068 136.139 25.2063C134.711 25.2058 133.46 24.806 132.386 24.0069C131.334 23.2346 130.56 22.1381 130.18 20.8831C130.525 19.6117 131.298 18.5005 132.366 17.7397C133.454 16.9521 134.712 16.5586 136.141 16.5591C137.915 16.5591 139.412 17.1593 140.631 18.3598C141.317 19.0595 141.833 19.9086 142.141 20.8416C141.767 22.1164 140.984 23.2299 139.914 24.0069V24.0053ZM141.531 13.4462C140.078 11.9822 138.315 11.2698 136.139 11.2698C133.963 11.2698 132.197 11.9744 130.744 13.429C129.291 14.8837 128.588 16.6624 128.588 18.8789C128.588 21.071 129.3 22.8458 130.763 24.3083C132.226 25.7708 133.986 26.4879 136.138 26.4879C138.313 26.4879 140.077 25.7763 141.528 24.3122C142.979 22.8482 143.689 21.0718 143.689 18.8789C143.689 16.6859 142.984 14.9111 141.531 13.4478V13.4462ZM139.914 24.0053C138.826 24.8065 137.568 25.2068 136.139 25.2063C134.711 25.2058 133.46 24.806 132.386 24.0069C131.334 23.2346 130.56 22.1381 130.18 20.8831C130.525 19.6117 131.298 18.5005 132.366 17.7397C133.454 16.9521 134.712 16.5586 136.141 16.5591C137.915 16.5591 139.412 17.1593 140.631 18.3598C141.317 19.0595 141.833 19.9086 142.141 20.8416C141.767 22.1164 140.984 23.2299 139.914 24.0069V24.0053ZM141.531 13.4462C140.078 11.9822 138.315 11.2698 136.139 11.2698C133.963 11.2698 132.197 11.9744 130.744 13.429C129.291 14.8837 128.588 16.6624 128.588 18.8789C128.588 21.071 129.3 22.8458 130.763 24.3083C132.226 25.7708 133.986 26.4879 136.138 26.4879C138.313 26.4879 140.077 25.7763 141.528 24.3122C142.979 22.8482 143.689 21.0718 143.689 18.8789C143.689 16.6859 142.984 14.9111 141.531 13.4478V13.4462ZM139.914 24.0053C138.826 24.8065 137.568 25.2068 136.139 25.2063C134.711 25.2058 133.46 24.806 132.386 24.0069C131.334 23.2346 130.56 22.1381 130.18 20.8831C130.525 19.6117 131.298 18.5005 132.366 17.7397C133.454 16.9521 134.712 16.5586 136.141 16.5591C137.915 16.5591 139.412 17.1593 140.631 18.3598C141.317 19.0595 141.833 19.9086 142.141 20.8416C141.767 22.1164 140.984 23.2299 139.914 24.0069V24.0053ZM141.531 13.4462C140.078 11.9822 138.315 11.2698 136.139 11.2698C133.963 11.2698 132.197 11.9744 130.744 13.429C129.291 14.8837 128.588 16.6624 128.588 18.8789C128.588 21.071 129.3 22.8458 130.763 24.3083C132.226 25.7708 133.986 26.4879 136.138 26.4879C138.313 26.4879 140.077 25.7763 141.528 24.3122C142.979 22.8482 143.689 21.0718 143.689 18.8789C143.689 16.6859 142.984 14.9111 141.531 13.4478V13.4462ZM139.914 24.0053C138.826 24.8065 137.568 25.2068 136.139 25.2063C134.711 25.2058 133.46 24.806 132.386 24.0069C131.334 23.2346 130.56 22.1381 130.18 20.8831C130.525 19.6117 131.298 18.5005 132.366 17.7397C133.454 16.9521 134.712 16.5586 136.141 16.5591C137.915 16.5591 139.412 17.1593 140.631 18.3598C141.317 19.0595 141.833 19.9086 142.141 20.8416C141.767 22.1164 140.984 23.2299 139.914 24.0069V24.0053ZM141.531 13.4462C140.078 11.9822 138.315 11.2698 136.139 11.2698C133.963 11.2698 132.197 11.9744 130.744 13.429C129.291 14.8837 128.588 16.6624 128.588 18.8789C128.588 21.071 129.3 22.8458 130.763 24.3083C132.226 25.7708 133.986 26.4879 136.138 26.4879C138.313 26.4879 140.077 25.7763 141.528 24.3122C142.979 22.8482 143.689 21.0718 143.689 18.8789C143.689 16.6859 142.984 14.9111 141.531 13.4478V13.4462ZM139.914 24.0053C138.826 24.8065 137.568 25.2068 136.139 25.2063C134.711 25.2058 133.46 24.806 132.386 24.0069C131.334 23.2346 130.56 22.1381 130.18 20.8831C130.525 19.6117 131.298 18.5005 132.366 17.7397C133.454 16.9521 134.712 16.5586 136.141 16.5591C137.915 16.5591 139.412 17.1593 140.631 18.3598C141.317 19.0595 141.833 19.9086 142.141 20.8416C141.767 22.1164 140.984 23.2299 139.914 24.0069V24.0053ZM141.531 13.4462C140.078 11.9822 138.315 11.2698 136.139 11.2698C133.963 11.2698 132.197 11.9744 130.744 13.429C129.291 14.8837 128.588 16.6624 128.588 18.8789C128.588 21.071 129.3 22.8458 130.763 24.3083C132.226 25.7708 133.986 26.4879 136.138 26.4879C138.313 26.4879 140.077 25.7763 141.528 24.3122C142.979 22.8482 143.689 21.0718 143.689 18.8789C143.689 16.6859 142.984 14.9111 141.531 13.4478V13.4462ZM139.914 24.0053C138.826 24.8065 137.568 25.2068 136.139 25.2063C134.711 25.2058 133.46 24.806 132.386 24.0069C131.334 23.2346 130.56 22.1381 130.18 20.8831C130.525 19.6117 131.298 18.5005 132.366 17.7397C133.454 16.9521 134.712 16.5586 136.141 16.5591C137.915 16.5591 139.412 17.1593 140.631 18.3598C141.317 19.0595 141.833 19.9086 142.141 20.8416C141.767 22.1164 140.984 23.2299 139.914 24.0069V24.0053ZM141.531 13.4462C140.078 11.9822 138.315 11.2698 136.139 11.2698C133.963 11.2698 132.197 11.9744 130.744 13.429C129.291 14.8837 128.588 16.6624 128.588 18.8789C128.588 21.071 129.3 22.8458 130.763 24.3083C132.226 25.7708 133.986 26.4879 136.138 26.4879C138.313 26.4879 140.077 25.7763 141.528 24.3122C142.979 22.8482 143.689 21.0718 143.689 18.8789C143.689 16.6859 142.984 14.9111 141.531 13.4478V13.4462ZM139.914 24.0053C138.826 24.8065 137.568 25.2068 136.139 25.2063C134.711 25.2058 133.46 24.806 132.386 24.0069C131.334 23.2346 130.56 22.1381 130.18 20.8831C130.525 19.6117 131.298 18.5005 132.366 17.7397C133.454 16.9521 134.712 16.5586 136.141 16.5591C137.915 16.5591 139.412 17.1593 140.631 18.3598C141.317 19.0595 141.833 19.9086 142.141 20.8416C141.767 22.1164 140.984 23.2299 139.914 24.0069V24.0053ZM141.531 13.4462C140.078 11.9822 138.315 11.2698 136.139 11.2698C133.963 11.2698 132.197 11.9744 130.744 13.429C129.291 14.8837 128.588 16.6624 128.588 18.8789C128.588 21.071 129.3 22.8458 130.763 24.3083C132.226 25.7708 133.986 26.4879 136.138 26.4879C138.313 26.4879 140.077 25.7763 141.528 24.3122C142.979 22.8482 143.689 21.0718 143.689 18.8789C143.689 16.6859 142.984 14.9111 141.531 13.4478V13.4462ZM139.914 24.0053C138.826 24.8065 137.568 25.2068 136.139 25.2063C134.711 25.2058 133.46 24.806 132.386 24.0069C131.334 23.2346 130.56 22.1381 130.18 20.8831C130.525 19.6117 131.298 18.5005 132.366 17.7397C133.454 16.9521 134.712 16.5586 136.141 16.5591C137.915 16.5591 139.412 17.1593 140.631 18.3598C141.317 19.0595 141.833 19.9086 142.141 20.8416C141.767 22.1164 140.984 23.2299 139.914 24.0069V24.0053ZM141.531 13.4462C140.078 11.9822 138.315 11.2698 136.139 11.2698C133.963 11.2698 132.197 11.9744 130.744 13.429C129.291 14.8837 128.588 16.6624 128.588 18.8789C128.588 21.071 129.3 22.8458 130.763 24.3083C132.226 25.7708 133.986 26.4879 136.138 26.4879C138.313 26.4879 140.077 25.7763 141.528 24.3122C142.979 22.8482 143.689 21.0718 143.689 18.8789C143.689 16.6859 142.984 14.9111 141.531 13.4478V13.4462ZM139.914 24.0053C138.826 24.8065 137.568 25.2068 136.139 25.2063C134.711 25.2058 133.46 24.806 132.386 24.0069C131.334 23.2346 130.56 22.1381 130.18 20.8831C130.525 19.6117 131.298 18.5005 132.366 17.7397C133.454 16.9521 134.712 16.5586 136.141 16.5591C137.915 16.5591 139.412 17.1593 140.631 18.3598C141.317 19.0595 141.833 19.9086 142.141 20.8416C141.767 22.1164 140.984 23.2299 139.914 24.0069V24.0053ZM141.531 13.4462C140.078 11.9822 138.315 11.2698 136.139 11.2698C133.963 11.2698 132.197 11.9744 130.744 13.429C129.291 14.8837 128.588 16.6624 128.588 18.8789C128.588 21.071 129.3 22.8458 130.763 24.3083C132.226 25.7708 133.986 26.4879 136.138 26.4879C138.313 26.4879 140.077 25.7763 141.528 24.3122C142.979 22.8482 143.689 21.0718 143.689 18.8789C143.689 16.6859 142.984 14.9111 141.531 13.4478V13.4462ZM139.914 24.0053C138.826 24.8065 137.568 25.2068 136.139 25.2063C134.711 25.2058 133.46 24.806 132.386 24.0069C131.334 23.2346 130.56 22.1381 130.18 20.8831C130.525 19.6117 131.298 18.5005 132.366 17.7397C133.454 16.9521 134.712 16.5586 136.141 16.5591C137.915 16.5591 139.412 17.1593 140.631 18.3598C141.317 19.0595 141.833 19.9086 142.141 20.8416C141.767 22.1164 140.984 23.2299 139.914 24.0069V24.0053Z" fill="#1E1E1E"/>
<path d="M147.179 7.75608C144.197 4.7505 140.483 3.22461 136.139 3.22461C131.796 3.22461 128.083 4.7505 125.1 7.75608C122.118 10.7617 120.604 14.5055 120.604 18.8804C120.604 23.2553 122.116 26.9976 125.1 30.0063C128.084 33.0151 131.798 34.5363 136.139 34.5363C140.481 34.5363 144.195 33.0119 147.178 30.0048C150.162 26.9976 151.675 23.2545 151.675 18.8789C151.675 14.5032 150.163 10.7609 147.179 7.75608ZM141.53 24.3138C140.078 25.7779 138.316 26.4895 136.139 26.4895C133.987 26.4895 132.231 25.7779 130.765 24.3099C129.299 22.842 128.589 21.0718 128.589 18.8804C128.589 16.664 129.294 14.8813 130.745 13.4306C132.197 11.9799 133.963 11.2713 136.141 11.2713C138.319 11.2713 140.08 11.9838 141.533 13.4478C142.986 14.9119 143.692 16.6891 143.692 18.8804C143.692 21.0718 142.984 22.8513 141.53 24.3138Z" fill="#DF5051"/>
<path d="M177.411 25.9767L177.384 12.7135C177.384 9.7243 176.259 7.16158 174.007 5.02528C171.835 2.97041 169.252 1.94245 166.257 1.94141C163.132 1.94141 160.489 3.02939 158.329 5.20535C156.169 7.38132 155.09 10.0445 155.092 13.1949V34.458C155.092 35.9789 155.588 37.2404 156.581 38.2425C157.574 39.2447 158.826 39.7449 160.337 39.7434C161.846 39.7434 163.104 39.2431 164.112 38.2425C165.119 37.242 165.622 35.9805 165.621 34.458V17.1987C165.621 16.7713 165.834 16.5591 166.257 16.5591C166.654 16.5591 166.854 16.7713 166.854 17.1987L166.879 27.7343L166.895 34.9786V34.9841C166.989 36.302 167.487 37.4101 168.392 38.3083C169.399 39.3089 170.659 39.8091 172.172 39.8091C172.203 39.8091 172.232 39.8091 172.262 39.8091C173.733 39.7904 174.956 39.2906 175.934 38.3099C176.469 37.7781 176.877 37.1297 177.125 36.4145C177.33 35.8063 177.431 35.1675 177.425 34.5253V32.5625L177.411 25.9767ZM176.147 30.6742C176.115 31.7522 175.728 32.6956 175.026 33.3995C174.284 34.1464 173.323 34.5245 172.171 34.5245C171.039 34.5245 170.049 34.1385 169.307 33.4081C168.622 32.741 168.226 31.8462 168.166 30.8245C168.156 30.7078 168.155 30.6037 168.155 30.5223V27.3429L168.127 13.1996C168.132 12.946 168.085 12.6941 167.988 12.4598C167.892 12.2255 167.748 12.0138 167.567 11.8382C167.401 11.6557 167.198 11.5109 166.973 11.4136C166.747 11.3162 166.504 11.2685 166.258 11.2737C166.007 11.2698 165.757 11.3168 165.523 11.4121C165.29 11.5073 165.078 11.6488 164.9 11.8281C164.722 12.0074 164.582 12.221 164.487 12.456C164.392 12.6911 164.346 12.9429 164.349 13.1965V30.4534C164.349 31.605 163.951 32.604 163.196 33.3423C162.442 34.0806 161.487 34.4556 160.337 34.4556C159.188 34.4556 158.227 34.0767 157.485 33.329C156.752 32.5939 156.365 31.5996 156.365 30.4534V13.1942C156.365 10.3882 157.323 7.99956 159.211 6.09396C161.099 4.18835 163.473 3.22459 166.258 3.22459C168.867 3.22459 171.178 4.14451 173.126 5.95773C175.108 7.79835 176.113 10.0727 176.113 12.7135L176.147 30.6499V30.6742Z" fill="#1E1E1E"/>
<path d="M176.147 30.6499V30.671C176.115 31.7491 175.728 32.6925 175.027 33.3964C174.284 34.1432 173.323 34.5214 172.171 34.5214C171.039 34.5214 170.049 34.1354 169.307 33.405C168.623 32.7379 168.226 31.8431 168.166 30.8214C168.156 30.7047 168.155 30.6006 168.155 30.5192V27.3429L168.128 13.1997C168.132 12.946 168.085 12.6941 167.988 12.4598C167.892 12.2255 167.748 12.0138 167.567 11.8382C167.401 11.6557 167.199 11.511 166.973 11.4136C166.747 11.3163 166.504 11.2686 166.258 11.2737C166.007 11.2698 165.757 11.3169 165.524 11.4121C165.29 11.5073 165.078 11.6488 164.9 11.8281C164.722 12.0075 164.582 12.221 164.487 12.456C164.393 12.6911 164.346 12.9429 164.35 13.1965V30.4534C164.35 31.6051 163.951 32.6041 163.197 33.3423C162.442 34.0806 161.487 34.4556 160.338 34.4556C159.188 34.4556 158.227 34.0767 157.485 33.329C156.752 32.5939 156.365 31.5996 156.365 30.4534V13.1942C156.365 10.3882 157.323 7.99957 159.211 6.09397C161.099 4.18837 163.473 3.22461 166.258 3.22461C168.867 3.22461 171.179 4.14453 173.126 5.95774C175.108 7.79836 176.113 10.0727 176.113 12.7135L176.147 30.6499Z" fill="#DF5051"/>
<path d="M69.604 6.1651C67.713 4.26107 65.3411 3.29574 62.5566 3.29574C60.5765 3.27936 58.6399 3.88103 57.0126 5.01814C55.3857 3.88095 53.4493 3.27926 51.4694 3.29574C48.6849 3.29574 46.313 4.26107 44.422 6.1651C42.531 8.06914 41.5762 10.4594 41.5762 13.2653V30.5245C41.5762 31.6762 41.9747 32.6752 42.726 33.4103C43.4773 34.1455 44.4422 34.5268 45.5881 34.5268C46.7341 34.5268 47.699 34.1478 48.4402 33.4017C49.1814 32.6556 49.5613 31.6707 49.5613 30.5245V13.2653C49.5713 12.762 49.7768 12.2826 50.1336 11.9303C50.4905 11.5779 50.9701 11.3805 51.4697 11.3805C51.9693 11.3805 52.449 11.5779 52.8058 11.9303C53.1626 12.2826 53.3681 12.762 53.3782 13.2653V30.5245C53.3782 31.6707 53.7667 32.665 54.4977 33.4002C55.1659 34.0735 56.0112 34.4461 57.0126 34.5142C58.0148 34.4461 58.8601 34.0735 59.5282 33.4002C60.2609 32.665 60.6478 31.6707 60.6478 30.5245V13.2653C60.6427 13.0095 60.6882 12.7552 60.7818 12.5173C60.8754 12.2795 61.0152 12.0628 61.1929 11.8801C61.3707 11.6973 61.5828 11.5522 61.8169 11.4531C62.051 11.3539 62.3023 11.3029 62.5563 11.3029C62.8102 11.3029 63.0615 11.3539 63.2956 11.4531C63.5297 11.5522 63.7418 11.6973 63.9196 11.8801C64.0973 12.0628 64.2371 12.2795 64.3307 12.5173C64.4243 12.7552 64.4699 13.0095 64.4647 13.2653V30.5245C64.4647 31.6707 64.8532 32.665 65.5858 33.4017C66.3184 34.1384 67.2865 34.5268 68.4379 34.5268C69.5892 34.5268 70.5472 34.151 71.3 33.4103C72.0528 32.6697 72.4498 31.6762 72.4498 30.5245V13.2653C72.4498 10.4594 71.4919 8.0707 69.604 6.1651Z" fill="#DF5051"/>
<path d="M70.4861 5.24578C68.3273 3.07086 65.6858 1.98288 62.5616 1.98183C60.6167 1.96618 58.7029 2.47373 57.0176 3.45214C55.3314 2.47298 53.4164 1.96539 51.4704 1.98183C48.3447 1.98183 45.7032 3.06982 43.546 5.24578C41.3887 7.42175 40.3083 10.0849 40.3047 13.2354V34.4984C40.3047 36.0193 40.8079 37.2808 41.8142 38.283C42.8206 39.2851 44.0789 39.7854 45.5892 39.7838C47.099 39.7838 48.3509 39.2835 49.3448 38.283C50.3387 37.2824 50.8352 36.0209 50.8341 34.4984V17.2431C50.8341 16.8156 51.047 16.6034 51.4704 16.6034C51.8938 16.6034 52.1067 16.8156 52.1067 17.2431V34.4984C52.1067 36.0193 52.6032 37.2808 53.5961 38.283C54.5154 39.2079 55.6549 39.705 57.0145 39.7744C58.374 39.704 59.5135 39.2068 60.4329 38.283C61.4242 37.2808 61.9199 36.0193 61.9199 34.4984V17.2431C61.9199 16.8156 62.1327 16.6034 62.5562 16.6034C62.9796 16.6034 63.1924 16.8156 63.1924 17.2431V34.4984C63.1924 36.0193 63.6889 37.2808 64.6818 38.283C65.6747 39.2851 66.9265 39.7854 68.4374 39.7838C69.9472 39.7838 71.2055 39.2835 72.2124 38.283C73.2192 37.2824 73.7224 36.0209 73.7219 34.4984V13.2354C73.7229 10.086 72.6443 7.42279 70.4861 5.24578ZM72.4509 30.4938C72.4509 31.6455 72.0523 32.6445 71.301 33.3796C70.5498 34.1148 69.5848 34.496 68.4389 34.496C67.293 34.496 66.328 34.1171 65.5869 33.371C64.8457 32.6249 64.4658 31.64 64.4658 30.4938V13.2346C64.4557 12.7312 64.2502 12.2519 63.8934 11.8995C63.5366 11.5472 63.0569 11.3498 62.5573 11.3498C62.0577 11.3498 61.578 11.5472 61.2212 11.8995C60.8644 12.2519 60.6589 12.7312 60.6488 13.2346V30.4938C60.6488 31.64 60.2604 32.6343 59.5293 33.3694C58.8612 34.0427 58.0159 34.4154 57.0137 34.4835C56.0122 34.4154 55.167 34.0427 54.4988 33.3694C53.7662 32.6343 53.3793 31.64 53.3793 30.4938V13.2346C53.3844 12.9788 53.3388 12.7245 53.2452 12.4866C53.1516 12.2488 53.0119 12.0321 52.8341 11.8494C52.6564 11.6666 52.4443 11.5214 52.2102 11.4223C51.9761 11.3232 51.7247 11.2722 51.4708 11.2722C51.2169 11.2722 50.9655 11.3232 50.7314 11.4223C50.4973 11.5214 50.2852 11.6666 50.1075 11.8494C49.9298 12.0321 49.79 12.2488 49.6964 12.4866C49.6028 12.7245 49.5572 12.9788 49.5623 13.2346V30.4938C49.5623 31.64 49.1739 32.6343 48.4413 33.371C47.7086 34.1077 46.7406 34.496 45.5892 34.496C44.4378 34.496 43.4799 34.1202 42.7271 33.3796C41.9743 32.639 41.5773 31.6455 41.5773 30.4938V13.2346C41.5773 10.4286 42.5352 8.03998 44.4231 6.13438C46.311 4.22878 48.686 3.26502 51.4704 3.26502C53.4504 3.24824 55.3869 3.84995 57.0137 4.98742C58.6408 3.85003 60.5775 3.24833 62.5577 3.26502C65.3421 3.26502 67.7141 4.23035 69.605 6.13438C71.496 8.03842 72.4509 10.4318 72.4509 13.2346V30.4938Z" fill="#1E1E1E"/>
<path d="M34.5892 33.9565C35.2107 33.3356 35.7934 32.6709 36.3271 31.9702C37.3977 30.2721 37.9773 28.0627 37.9299 25.422C37.7683 16.4389 30.411 5.8516 21.4959 1.77656C17.4444 -0.076584 13.768 -0.265265 10.9781 0.923974C10.3721 1.23401 9.78402 1.57614 9.21533 1.9488C7.59625 3.00416 6.14265 4.29361 4.89804 5.77096C3.49028 7.43621 2.35056 9.34024 1.53791 11.4173C1.46177 11.6115 1.38952 11.8072 1.32115 12.0045C1.22481 12.2707 1.13625 12.54 1.05234 12.8117C1.04224 12.843 1.03214 12.8759 1.02282 12.9087C0.951341 13.1397 0.885304 13.3738 0.823928 13.6094C0.783529 13.7598 0.746237 13.9116 0.708946 14.0635C0.693408 14.1293 0.677868 14.1935 0.663107 14.2585C0.599401 14.5364 0.541133 14.8183 0.48908 15.1009C0.290968 16.1672 0.175208 17.2633 0.148794 18.3852C0.143355 18.5731 0.142578 18.7618 0.142578 18.9504C0.142578 19.0475 0.142578 19.1446 0.144909 19.2433C0.144909 19.2573 0.14491 19.2714 0.145686 19.2855C0.148794 19.4484 0.154232 19.6089 0.162001 19.7702V19.7725C0.248238 21.8707 0.645239 23.8914 1.30561 25.7868C1.50139 26.3489 1.72048 26.8978 1.96055 27.4364C2.14157 27.8404 2.33424 28.2381 2.5409 28.628C3.4895 30.4326 4.69216 32.0814 6.09914 33.5251C7.08582 34.5358 8.17038 35.4432 9.33808 36.2347C9.55717 36.3819 9.77781 36.5275 10.0008 36.6645C11.0069 37.2932 12.0681 37.8319 13.1768 38.2758C13.6297 38.4582 14.0897 38.625 14.5574 38.7721C14.5822 38.78 14.6086 38.7886 14.6335 38.7964C16.3411 39.335 18.1428 39.6506 20.0027 39.7108C20.1433 39.7163 20.284 39.7195 20.4254 39.7218C20.5015 39.7226 20.5792 39.7226 20.6561 39.7226C20.8822 39.7226 21.1075 39.7195 21.3305 39.7108C21.7679 39.6952 22.2021 39.667 22.6318 39.6247C27.2855 39.1652 31.4443 37.0951 34.5768 33.9659C34.5814 33.9627 34.5845 33.9596 34.5892 33.9565Z" fill="#B0CF6C"/>
<path d="M34.4466 34.0551C31.3133 37.1907 27.1483 39.2654 22.4892 39.7257C22.0596 39.768 21.6253 39.797 21.1879 39.8119C20.9649 39.8205 20.7396 39.8236 20.5135 39.8236C20.4366 39.8236 20.3589 39.8236 20.2828 39.8228C20.1422 39.8205 20.0015 39.8173 19.8601 39.8119C18.0002 39.7516 16.1986 39.4368 14.4909 38.8974C14.4661 38.8896 14.4396 38.881 14.4148 38.8731C13.9471 38.726 13.4871 38.5592 13.0342 38.3768C11.9256 37.9329 10.8643 37.3934 9.8582 36.7655C9.63523 36.6278 9.41459 36.4829 9.1955 36.3357C8.02858 35.545 6.94324 34.6368 5.95656 33.6261C4.55036 32.1824 3.34693 30.5336 2.39832 28.729C2.19166 28.3391 1.99899 27.9414 1.81797 27.5374C1.5779 26.9988 1.35881 26.4492 1.16303 25.8878C0.50266 23.9924 0.106437 21.9717 0.0194227 19.8735V19.8712C0.0116536 19.7099 0.00621475 19.5494 0.00310712 19.3865C0.00233021 19.3724 0.00233063 19.3584 0.00233063 19.3443C-9.47855e-08 19.2464 0 19.1493 0 19.0515C0 18.8628 0.000777052 18.6741 0.00621542 18.4862C0.0318534 17.3643 0.148389 16.2682 0.346501 15.2019C0.398554 14.9193 0.456822 14.6374 0.520529 14.3595C0.534513 14.2937 0.550828 14.2295 0.566366 14.1645C0.602881 14.0127 0.640949 13.8616 0.681349 13.7104C0.742724 13.4748 0.808763 13.2415 0.880238 13.0097C0.888784 12.9769 0.89966 12.944 0.90976 12.9127C0.99289 12.641 1.08223 12.3717 1.17857 12.1055C1.24694 11.9082 1.31919 11.7125 1.39533 11.5183C2.2072 9.44046 3.3477 7.53643 4.75546 5.87197C5.99929 4.39462 7.45367 3.10517 9.07275 2.0498C7.3045 3.39954 6.10029 5.48599 5.67299 8.18937C5.63259 8.44382 5.59918 8.70531 5.57199 8.9715C5.56422 9.05684 5.55645 9.14139 5.55024 9.2283C5.51372 9.67925 5.49741 10.1459 5.50362 10.625C5.50285 10.6712 5.50363 10.7166 5.5044 10.7628C5.50673 10.9116 5.51062 11.0595 5.51761 11.2091C5.51839 11.2098 5.51839 11.2114 5.51839 11.2122C5.51839 11.2231 5.51839 11.2341 5.51916 11.2451C5.55956 12.1407 5.66988 13.0497 5.84624 13.9665C5.89907 14.246 5.9589 14.5255 6.02493 14.8057C6.05989 14.9584 6.09641 15.1103 6.13525 15.263C6.53614 16.8421 7.11804 18.4298 7.85611 19.9831C7.85611 19.9831 7.85611 19.9831 7.85611 19.9839C8.2298 20.7746 8.64467 21.556 9.0945 22.3264C9.34233 22.7499 9.60105 23.168 9.87063 23.5821C10.8659 25.1182 12.0056 26.5846 13.2556 27.939C14.3363 29.1118 15.5001 30.1985 16.7269 31.1732C17.1425 31.5052 17.5659 31.8223 17.9956 32.1245C18.7787 32.6796 19.5828 33.1837 20.404 33.637C20.6386 33.767 20.8763 33.8923 21.1141 34.0121C21.3868 34.1506 21.661 34.2829 21.936 34.4082C22.1668 34.5139 22.396 34.6141 22.6236 34.7096C23.2614 34.9735 23.8884 35.1974 24.5045 35.3798C24.7275 35.4456 24.9481 35.5066 25.1672 35.5606C28.9267 36.5135 32.1827 35.92 34.4466 34.0551Z" fill="#72A05C"/>
<path d="M21.9359 34.4098C13.0201 30.3339 5.66275 19.7474 5.50271 10.7628C5.43124 6.79342 6.77684 3.80036 9.07183 2.04899C9.64053 1.67789 10.2279 1.33498 10.8346 1.02495C13.6245 -0.165073 17.3009 0.0243915 21.3524 1.87675C30.2667 5.95258 37.624 16.5399 37.7856 25.5237C37.8338 28.1645 37.2534 30.3739 36.1836 32.0712C35.6491 32.7719 35.0672 33.4358 34.4449 34.0567C31.554 36.4367 27.0433 36.746 21.9359 34.4098Z" fill="#B0CF6C"/>
<path d="M6.68385 10.7424C6.62636 7.29912 7.68995 4.63567 9.75964 3.03618C10.2771 2.69953 10.81 2.39029 11.3445 2.11548C13.9246 1.03194 17.3104 1.33336 20.885 2.96807C25.0026 4.85097 28.912 8.24958 31.893 12.5399C34.8592 16.8091 36.5343 21.4204 36.6073 25.5252V25.5464C36.6461 27.8607 36.1777 29.8195 35.2151 31.3697C34.7365 31.9929 34.2113 32.5933 33.6519 33.1547C30.991 35.3116 26.8959 35.3727 22.4069 33.3191C18.2885 31.4362 14.3791 28.0368 11.3981 23.748C8.43112 19.4796 6.75766 14.8675 6.68463 10.7619L6.68385 10.7424Z" fill="#F2ACAC"/>
<path d="M7.86336 10.7425C7.81286 7.71262 8.7063 5.39051 10.4481 4.02199C10.9073 3.72527 11.3789 3.45125 11.8512 3.20698C14.1245 2.27062 17.1637 2.57204 20.4151 4.05878C24.3385 5.85243 28.0739 9.1062 30.9321 13.2188C33.7616 17.2899 35.3582 21.6609 35.4273 25.5261V25.5457C35.4615 27.6001 35.0637 29.324 34.2433 30.6699C33.8183 31.2202 33.353 31.7518 32.8596 32.2506C30.5507 34.0826 26.9163 34.0755 22.8756 32.2278C18.9506 30.4334 15.2152 27.1804 12.3578 23.0678C9.52827 18.9967 7.9325 14.6257 7.86336 10.7605V10.7425Z" fill="#EA7F80"/>
<path d="M28.5378 32.2969C27.0096 32.2969 25.2398 31.8569 23.418 31.0239C19.7043 29.3257 16.1578 26.2309 13.4324 22.3093C10.7512 18.4519 9.23937 14.3416 9.17567 10.7371V10.7215C9.14537 8.92548 9.47555 6.50081 11.2096 5.10254C11.5988 4.85279 11.999 4.62105 12.3991 4.41201C13.089 4.13643 13.8814 3.99707 14.7554 3.99707C16.2898 3.99707 18.0596 4.4355 19.8737 5.2646C23.5866 6.96195 27.1324 10.0568 29.8578 13.9784C32.5389 17.8366 34.0508 21.9468 34.116 25.5513V25.5709C34.1455 27.3356 33.8247 28.7981 33.162 29.9184C32.7992 30.3835 32.4045 30.8336 31.9881 31.2595C31.0884 31.9477 29.9285 32.2969 28.5378 32.2969Z" fill="#E05151"/>
<path d="M28.5371 30.9735C27.1946 30.9735 25.6121 30.5742 23.9604 29.8187C20.4573 28.2169 17.1003 25.2802 14.5077 21.5504C11.975 17.906 10.5478 14.0572 10.488 10.7126V10.7009C10.4631 9.22351 10.7032 7.25136 11.9781 6.17643C12.2943 5.976 12.6175 5.78811 12.9407 5.61743C13.4628 5.41857 14.0727 5.31836 14.754 5.31836C16.1027 5.31836 17.6845 5.71608 19.33 6.46845C22.8315 8.0695 26.1886 11.0062 28.7811 14.7368C31.3138 18.3812 32.7418 22.2308 32.8016 25.5746V25.5941C32.8265 27.0691 32.581 28.2717 32.0736 29.1705C31.7769 29.5455 31.4575 29.9111 31.1219 30.2587C30.4647 30.7332 29.5953 30.9735 28.5371 30.9735Z" fill="#DF3A3A"/>
<path d="M26.3423 37.6438C26.2957 37.7018 26.2266 37.7276 26.159 37.7456C25.8941 37.8168 25.6136 37.7957 25.3254 37.7354C24.4537 37.5561 23.5222 37.0324 22.795 37.679C22.7724 37.6986 22.7484 37.7237 22.7429 37.7566C22.7351 37.8067 22.7755 37.8482 22.8113 37.8787C22.948 37.9875 23.5998 38.3602 23.3668 38.6467C23.3085 38.718 23.2192 38.7391 23.136 38.7595C22.7701 38.8401 22.405 38.9239 22.0406 39.0116C22.0989 39.3059 22.2682 39.5651 22.4889 39.7263C22.0592 39.7686 21.6249 39.7976 21.1875 39.8125C20.9646 39.8211 20.7393 39.8242 20.5132 39.8242C20.4363 39.8242 20.3586 39.8242 20.2824 39.8234C20.1418 39.8211 20.0012 39.8179 19.8598 39.8125C17.9999 39.7522 16.1982 39.4375 14.4906 38.898C14.4657 38.8902 14.4393 38.8816 14.4144 38.8738C14.3298 38.5637 14.2529 37.964 14.3375 37.8482C14.4447 37.7033 14.6079 37.6329 14.7656 37.571C15.0321 37.4637 15.3126 37.3557 15.5907 37.4121C16.5509 37.6039 16.784 38.3124 17.491 37.1576C17.728 36.7717 18.0403 36.6401 18.3409 36.3614C18.5025 36.2111 18.6292 36.3301 18.6657 36.0843C18.7115 35.7852 18.3223 35.2685 18.2019 35.036C18.191 35.0156 18.1801 34.9921 18.1825 34.9671C18.1871 34.9138 18.2438 34.8942 18.2904 34.8872C18.8514 34.8097 19.4076 34.9671 19.9686 34.8872C20.5233 34.8073 20.8651 34.5873 21.1013 34.0479C21.1067 34.0362 21.1114 34.0252 21.1145 34.0127C21.3872 34.1513 21.6615 34.2836 21.9365 34.4088C22.1672 34.5145 22.3964 34.6147 22.624 34.7103C23.2619 34.9741 23.8889 35.198 24.5049 35.3804C24.7279 35.4462 24.9486 35.5073 25.1676 35.5613C25.4644 36.1164 25.8669 36.565 26.2398 37.0887C26.3548 37.25 26.4651 37.4911 26.3423 37.6438Z" fill="#B0CF6C"/>
<path d="M14.8204 31.08C15.4738 31.812 15.6338 31.769 15.4994 32.0273C15.2982 32.4133 14.1709 32.2638 13.8368 32.2685C14.0536 32.5292 14.2696 32.7899 14.4863 33.0514C14.5104 33.0803 14.5361 33.1124 14.5399 33.15C14.55 33.2487 14.4226 33.2948 14.324 33.3035C13.9984 33.3316 13.669 33.3222 13.3458 33.2761C13.4911 33.4225 13.5051 33.6816 13.3761 33.8429C13.2254 34.0323 12.9504 34.0566 12.7095 34.0386C12.4695 34.0206 12.2147 33.9783 11.9971 34.0832C11.2233 34.4567 12.7709 35.3649 11.3942 35.6968C11.1091 35.7657 10.7758 35.8236 10.5513 35.6342C10.4689 35.5645 10.4115 35.4674 10.3291 35.397C9.78216 34.9319 9.92044 36.8038 9.85985 36.7663C9.63687 36.6277 9.41623 36.4836 9.19792 36.3357C8.02945 35.5441 6.94488 34.6368 5.95898 33.626C6.09494 33.6307 6.36842 33.6456 6.55177 33.7004C6.80426 33.7748 7.00781 33.8538 7.11658 33.536C7.16785 33.3872 7.04277 33.2839 7.12124 33.1665C7.29993 32.8987 8.01935 33.0052 8.26718 33.0044C8.34487 33.0044 8.42489 33.0036 8.49559 32.9699C8.97028 32.7405 8.56396 31.8958 9.06507 31.5787C9.21657 31.4832 9.38904 31.4229 9.53044 31.3125C10.1621 30.8177 9.55996 30.4184 9.60424 29.872C9.65396 29.2676 10.7502 29.1673 11.148 29.3388C11.7912 29.616 12.0064 29.6755 12.2558 28.9356C12.3475 28.6624 12.7997 28.0674 13.0801 27.964C13.1252 27.946 13.1943 27.9397 13.2565 27.939C14.338 29.1118 15.501 30.1984 16.7277 31.1724C15.8723 31.3556 14.8204 31.08 14.8204 31.08Z" fill="#B0CF6C"/>
<path d="M2.40246 28.7299L3.70766 28.8935C3.70766 28.8935 3.69601 28.5819 3.61987 28.3971C3.38291 27.8186 4.12176 28.1951 4.21809 27.7277C4.24684 27.5892 4.21343 27.4467 4.20022 27.305C4.18702 27.164 4.201 27.0067 4.30045 26.9065C4.54906 26.6567 5.03462 26.9902 5.30732 26.7671C5.41065 26.6826 5.44639 26.5424 5.50621 26.4226C5.82163 25.7838 6.63584 25.909 7.14238 26.2073C7.14238 26.2073 7.8214 25.4495 7.60853 25.1512C7.37157 24.82 7.05614 24.6752 7.41896 24.3244C7.46791 24.2775 8.90674 23.4327 8.76457 23.3842C8.99142 23.4617 9.21673 23.5955 9.45602 23.6394C9.63238 23.6715 9.79475 24.0183 9.87244 23.5815C9.60285 23.1665 9.34414 22.7484 9.09553 22.3249C8.6457 21.5553 8.23005 20.7739 7.85714 19.9824C7.95347 20.3214 7.9861 20.2901 7.88666 20.388C7.73594 20.5359 7.68855 20.9352 7.43061 20.6683C7.17268 20.4028 7.23095 20.3535 7.04604 20.3433C6.86192 20.3339 6.93028 20.1296 6.68323 20.4804C6.44161 20.8248 6.59699 20.9532 6.51541 21.0448C6.48745 21.0761 6.48589 21.1145 6.45792 21.1443C6.14172 21.0808 5.8496 20.8851 5.74861 20.5633C5.55749 21.1223 5.5738 21.7502 5.79366 22.2983C5.59478 22.1526 5.03851 21.5451 4.80388 21.9045C4.73396 22.0117 4.7293 22.1479 4.72775 22.2763C4.72386 22.5222 4.72075 22.7688 4.71687 23.0146C4.48535 22.869 4.25461 22.7242 4.02309 22.5785C3.96016 22.5386 3.87858 22.4987 3.81643 22.5402C3.75972 22.5778 3.75739 22.6592 3.76049 22.7281C3.77137 22.9262 3.79778 23.1289 3.76127 23.3168C3.48935 23.2769 3.1716 23.4225 3.12654 23.7216C3.09701 23.9181 3.19957 24.3534 3.03486 24.5029C2.56716 24.9281 1.86017 23.85 1.65119 24.8639C1.62322 25.0009 1.60146 25.1434 1.63642 25.2788C1.69625 25.509 2.43509 25.9482 1.72499 25.9208C1.47327 25.9098 1.29536 25.8957 1.16406 25.8871C1.16484 25.8879 2.40013 28.7299 2.40246 28.7299Z" fill="#B0CF6C"/>
<path d="M5.49622 11.1427C5.4667 11.0714 5.25072 10.7661 5.31443 10.7043C5.32608 10.6925 5.4162 10.6542 5.50399 10.626C5.50322 10.6722 5.50399 10.7176 5.50477 10.7638C5.5071 10.9125 5.51098 11.0605 5.51798 11.21C5.51409 11.1858 5.50555 11.1638 5.49622 11.1427Z" fill="#B0CF6C"/>
<path d="M5.73166 14.7651C5.78682 15.0392 5.8109 15.3194 5.80313 15.6021C5.8008 15.6819 5.76507 15.7884 5.65552 15.8041C5.61201 15.8119 5.57084 15.7986 5.53355 15.7845C5.18627 15.6624 4.87317 15.4823 4.48006 15.4189C4.56008 15.4306 4.46374 16.5791 4.38294 16.7302C4.33555 16.8195 4.2229 16.9072 4.09626 16.9181C3.99527 16.926 3.90981 16.8868 3.83289 16.8485C3.63012 16.749 3.43356 16.6371 3.20826 16.5721C3.3683 17.2039 3.37141 17.7175 3.12901 18.3978C3.20826 18.1763 2.26509 17.9038 2.03512 18.0408C1.75 18.2123 1.98929 18.7141 1.71659 18.942C1.26365 19.3185 1.06243 18.7204 0.734579 18.6907C0.245126 18.6484 0.373316 18.8715 0.101397 19.1479C-0.0337848 19.2841 0.0104997 19.2403 0.162774 19.6294C0.110721 19.5472 0.0578913 19.4665 0.00506143 19.3874C0.00428452 19.3733 0.00428376 19.3593 0.00428376 19.3452C0.00195303 19.2473 0.00195313 19.1502 0.00195313 19.0524C0.00195313 18.8637 0.00273018 18.675 0.00816854 18.4871C0.0338065 17.3652 0.150343 16.2691 0.348455 15.2028C0.400508 14.9202 0.458777 14.6383 0.522483 14.3604C0.575313 14.3267 0.627366 14.2876 0.678642 14.2437C0.937352 14.019 0.856554 13.8648 0.683303 13.7113C0.744679 13.4757 0.810716 13.2424 0.882191 13.0106C0.890737 12.9778 0.901615 12.9449 0.911714 12.9136C0.994844 12.6419 1.08419 12.3726 1.18052 12.1064C1.51071 12.1502 2.01182 12.1682 2.07941 12.1581C2.56653 12.0837 3.0218 11.8151 3.18573 11.4519C3.24166 11.3297 3.26342 11.2029 3.33489 11.0823C3.59671 10.6439 4.32001 10.9179 4.73799 10.6893C5.04021 10.5257 5.03166 10.2149 4.98039 9.97061C4.95242 9.83517 4.88716 9.59873 5.00214 9.45467C5.12256 9.30201 5.35874 9.28478 5.55142 9.22998C5.5149 9.68094 5.49859 10.1475 5.5048 10.6267C5.50402 10.6729 5.5048 10.7183 5.50558 10.7645C5.50791 10.9132 5.51179 11.0612 5.51878 11.2107C5.51956 11.2115 5.51956 11.2131 5.51956 11.2139C5.51956 11.2248 5.51956 11.2358 5.52034 11.2468C5.56074 12.1424 5.67106 13.0514 5.84742 13.9681C5.90025 14.2476 5.96007 14.5271 6.02611 14.8074C5.92122 14.8129 5.81712 14.7996 5.73166 14.7651Z" fill="#B0CF6C"/>
<path d="M28.5358 26.7778L28.4806 28.2638C28.4768 28.3656 28.5358 28.4595 28.6259 28.4956C28.9002 28.6028 29.4704 28.7234 29.674 27.9898C29.6965 27.9099 29.6701 27.8222 29.6103 27.7667L28.5358 26.7778Z" fill="#1E1E1E"/>
<path d="M23.5742 13.355L24.8856 12.868C24.9758 12.8343 25.034 12.7419 25.0286 12.6402C25.0131 12.3301 24.8919 11.7242 24.1748 11.7907C24.0963 11.7978 24.031 11.8557 24.007 11.9348L23.5742 13.355Z" fill="#1E1E1E"/>
<path d="M19.5731 10.161L20.4883 9.05398C20.5513 8.97804 20.5598 8.86609 20.5085 8.7784C20.3539 8.51299 19.974 8.04012 19.3828 8.46915C19.3183 8.51613 19.2872 8.60068 19.3028 8.68367L19.5731 10.161Z" fill="#1E1E1E"/>
<path d="M15.1855 8.90487L14.9913 7.42752C14.9781 7.32574 14.9043 7.24432 14.8095 7.22709C14.5221 7.17307 13.9425 7.16289 13.8664 7.92545C13.8578 8.00844 13.8982 8.08986 13.9666 8.1337L15.1855 8.90487Z" fill="#1E1E1E"/>
<path d="M13.9678 12.9095L12.8777 11.959C12.8032 11.894 12.6975 11.887 12.6183 11.9433C12.3782 12.114 11.9563 12.5297 12.3922 13.1498C12.4396 13.2179 12.5211 13.2485 12.5973 13.2305L13.9678 12.9095Z" fill="#1E1E1E"/>
<path d="M19.0378 21.9458L17.8514 22.7091C17.7699 22.7616 17.731 22.8649 17.7551 22.9644C17.8297 23.2658 18.0635 23.835 18.7503 23.6134C18.8257 23.5891 18.8785 23.5187 18.8871 23.4349L19.0378 21.9458Z" fill="#1E1E1E"/>
<path d="M23.1262 25.4077L22.3478 26.6291C22.2942 26.7128 22.2988 26.8248 22.3594 26.9054C22.5428 27.1497 22.9747 27.5693 23.51 27.0651C23.5683 27.0103 23.5893 26.9219 23.5644 26.8412L23.1262 25.4077Z" fill="#1E1E1E"/>
<path d="M16.2179 17.4214L14.8249 17.2938C14.7293 17.2852 14.64 17.3431 14.6058 17.4387C14.5017 17.7268 14.3821 18.3288 15.0673 18.5786C15.1419 18.606 15.2242 18.5825 15.2771 18.5206L16.2179 17.4214Z" fill="#1E1E1E"/>
<path d="M29.248 22.226L30.3272 23.1906C30.401 23.2571 30.5066 23.265 30.5859 23.2094C30.8283 23.0418 31.2548 22.6316 30.826 22.006C30.7793 21.9379 30.6985 21.9058 30.6216 21.923L29.248 22.226Z" fill="#1E1E1E"/>
<path d="M27.0469 17.8848L28.443 17.884C28.5385 17.884 28.6224 17.8175 28.6489 17.7196C28.7289 17.4229 28.7996 16.8114 28.0973 16.6243C28.0203 16.604 27.9403 16.6353 27.8929 16.701L27.0469 17.8848Z" fill="#1E1E1E"/>
</g>
<defs>
<clipPath id="clip0_2916_3667">
<rect width="177.425" height="39.6481" fill="white" transform="translate(0 0.175781)"/>
</clipPath>
</defs>
</svg>
