<svg width="178" height="40" viewBox="0 0 178 40" fill="none" xmlns="http://www.w3.org/2000/svg">
<g clip-path="url(#clip0_183_1173)">
<path d="M97.9766 9.05372C98.2153 8.41405 98.3366 7.736 98.3348 7.05261C98.3348 5.52959 97.8314 4.26806 96.8245 3.26803C95.8176 2.26799 94.5595 1.76719 93.0502 1.76562C88.3334 1.76562 84.3527 3.40086 81.1084 6.67133C77.864 9.9418 76.2413 13.9532 76.2402 18.7054C76.2402 19.3745 76.2802 20.043 76.3599 20.7073C76.2802 21.3713 76.2403 22.0396 76.2402 22.7084C76.2402 27.4617 77.8629 31.4731 81.1084 34.7425C84.3538 38.012 88.3344 39.6472 93.0502 39.6482C94.5595 39.6482 95.8176 39.1474 96.8245 38.1458C97.8314 37.1442 98.3348 35.8832 98.3348 34.3628C98.3366 33.6789 98.2153 33.0004 97.9766 32.3601C98.2152 31.7199 98.3366 31.0414 98.3348 30.3575C98.3348 28.7556 97.7909 27.4476 96.7033 26.4335C97.7909 25.4199 98.3348 24.1117 98.3348 22.5088C98.3364 21.8252 98.2151 21.1469 97.9766 20.5069C98.2152 19.8667 98.3366 19.1881 98.3348 18.5042C98.3348 17.037 97.8578 15.7959 96.9037 14.7807C97.8567 13.7661 98.3337 12.5246 98.3348 11.0564C98.3364 10.3725 98.2151 9.694 97.9766 9.05372ZM95.9209 9.94937C95.1766 10.6994 94.1845 11.0955 93.0464 11.0955C91.7965 11.0932 90.5655 11.403 89.4634 11.9971C88.3614 12.5913 87.4225 13.4513 86.7309 14.5004H93.0464C94.1713 14.5004 95.1603 14.8864 95.9054 15.6153C96.6598 16.3559 97.0583 17.3549 97.0583 18.5034C97.0583 19.652 96.6637 20.6502 95.9186 21.4002C95.1735 22.1502 94.1806 22.5472 93.044 22.5472H86.5118C87.0222 23.4272 87.7065 24.1923 88.5224 24.7949C89.8185 25.7966 91.4107 26.3311 93.044 26.313C94.1783 26.313 95.1704 26.7107 95.9186 27.4615C96.6668 28.2123 97.0583 29.2121 97.0583 30.3582C97.0583 31.5044 96.6598 32.5073 95.9069 33.2472C95.1541 33.987 94.1907 34.362 93.0464 34.362C88.7034 34.362 84.9898 32.8377 82.0072 29.8321C79.0247 26.8265 77.5089 23.0811 77.5089 18.7062C77.5089 14.3313 79.0231 10.5882 82.0072 7.58185C84.9914 4.57548 88.7019 3.05038 93.0464 3.05038C94.1907 3.05038 95.1526 3.42617 95.9069 4.16681C96.6613 4.90744 97.0583 5.90408 97.0583 7.05417C97.0583 8.20427 96.6675 9.20013 95.9209 9.94937Z" fill="white"/>
<path d="M93.0507 22.5476H86.5185C87.0289 23.4276 87.7132 24.1927 88.5291 24.7953C89.8252 25.797 91.4174 26.3315 93.0507 26.3133C94.185 26.3133 95.1771 26.7111 95.9253 27.4619C96.6734 28.2127 97.065 29.2125 97.065 30.3586C97.065 31.5048 96.6665 32.5077 95.9136 33.2476C95.1608 33.9874 94.1974 34.3624 93.053 34.3624C88.7101 34.3624 84.9965 32.8381 82.0139 29.8325C79.0314 26.8269 77.5156 23.0815 77.5156 18.7066C77.5156 14.3317 79.0298 10.5886 82.0139 7.58226C84.998 4.57589 88.7086 3.05078 93.053 3.05078C94.1974 3.05078 95.1593 3.42658 95.9136 4.16721C96.668 4.90784 97.065 5.90448 97.065 7.05458C97.065 8.20467 96.6703 9.2021 95.9237 9.95134C95.1771 10.7006 94.1873 11.0975 93.0492 11.0975C91.7993 11.0952 90.5683 11.4049 89.4662 11.9991C88.3642 12.5933 87.4253 13.4533 86.7337 14.5024H93.0492C94.1741 14.5024 95.1631 14.8884 95.9082 15.6172C96.6626 16.3579 97.0611 17.3569 97.0611 18.5054C97.0611 19.6539 96.6665 20.6521 95.9214 21.4022C95.1763 22.1522 94.185 22.5476 93.0507 22.5476Z" fill="#DF5051"/>
<path d="M118.667 30.2784C118.667 28.7559 118.17 27.4873 117.176 26.4727C116.182 25.458 114.93 24.9509 113.421 24.9515H111.673C111.248 24.9515 111.037 24.7393 111.037 24.3103V7.05261C111.037 5.52959 110.534 4.26806 109.527 3.26803C108.521 2.26799 107.263 1.76719 105.752 1.76562C104.241 1.76562 102.989 2.26643 101.997 3.26803C101.004 4.26963 100.507 5.53116 100.506 7.05261V28.3156C100.506 31.4927 101.579 34.1621 103.725 36.324C105.87 38.4859 108.52 39.5671 111.673 39.5676H113.421C114.93 39.5676 116.182 39.0673 117.176 38.0668C118.17 37.0662 118.667 35.8047 118.667 34.2822C118.669 33.5983 118.547 32.9198 118.309 32.2795C118.552 31.6411 118.673 30.9622 118.667 30.2784ZM116.275 33.1532C115.532 33.9009 114.573 34.2798 113.421 34.2798H111.673C108.861 34.2798 106.483 33.3215 104.603 31.4324C102.723 29.5432 101.776 27.146 101.776 24.3079V7.05261C101.776 5.89312 102.153 4.92544 102.896 4.17698C103.625 3.44027 104.612 3.04881 105.748 3.04881C106.885 3.04881 107.855 3.42461 108.609 4.16524C109.363 4.90587 109.761 5.90251 109.761 7.05261V24.3103C109.761 24.8693 109.935 25.303 110.31 25.6788C110.684 26.0546 111.116 26.2331 111.669 26.2331H113.417C114.556 26.2331 115.548 26.6355 116.283 27.3934C117.018 28.1512 117.391 29.1244 117.391 30.2776C117.391 31.4308 117.007 32.4126 116.275 33.1532Z" fill="white"/>
<path d="M117.39 30.2776C117.39 31.4207 117.001 32.415 116.27 33.1532C115.539 33.8915 114.569 34.2799 113.417 34.2799H111.669C108.856 34.2799 106.479 33.3216 104.599 31.4324C102.719 29.5433 101.771 27.146 101.771 24.3079V7.05262C101.771 5.89314 102.148 4.92546 102.891 4.177C103.621 3.44028 104.607 3.04883 105.744 3.04883C106.88 3.04883 107.851 3.42462 108.604 4.16526C109.358 4.90589 109.757 5.90253 109.757 7.05262V24.3103C109.757 24.8693 109.931 25.303 110.305 25.6788C110.68 26.0546 111.111 26.2331 111.665 26.2331H113.413C114.552 26.2331 115.543 26.6355 116.278 27.3934C117.013 28.1512 117.39 29.1244 117.39 30.2776Z" fill="#DF5051"/>
<path d="M141.531 13.272C140.078 11.808 138.315 11.0955 136.139 11.0955C133.963 11.0955 132.197 11.8002 130.744 13.2548C129.291 14.7095 128.588 16.4882 128.588 18.7046C128.588 20.8968 129.3 22.6716 130.763 24.1341C132.226 25.5966 133.986 26.3137 136.138 26.3137C138.313 26.3137 140.077 25.6021 141.528 24.138C142.979 22.674 143.689 20.8976 143.689 18.7046C143.689 16.5117 142.984 14.7353 141.531 13.272ZM139.914 23.8311C138.826 24.6323 137.568 25.0326 136.139 25.0321C134.711 25.0316 133.46 24.6313 132.386 23.8311C131.334 23.0588 130.56 21.9623 130.18 20.7073C130.525 19.4359 131.298 18.3247 132.366 17.5639C133.454 16.7763 134.712 16.3828 136.141 16.3833C137.915 16.3833 139.412 16.9835 140.631 18.184C141.317 18.8837 141.833 19.7329 142.141 20.6658C141.767 21.9406 140.984 23.0541 139.914 23.8311ZM141.531 13.272C140.078 11.808 138.315 11.0955 136.139 11.0955C133.963 11.0955 132.197 11.8002 130.744 13.2548C129.291 14.7095 128.588 16.4882 128.588 18.7046C128.588 20.8968 129.3 22.6716 130.763 24.1341C132.226 25.5966 133.986 26.3137 136.138 26.3137C138.313 26.3137 140.077 25.6021 141.528 24.138C142.979 22.674 143.689 20.8976 143.689 18.7046C143.689 16.5117 142.984 14.7353 141.531 13.272ZM139.914 23.8311C138.826 24.6323 137.568 25.0326 136.139 25.0321C134.711 25.0316 133.46 24.6313 132.386 23.8311C131.334 23.0588 130.56 21.9623 130.18 20.7073C130.525 19.4359 131.298 18.3247 132.366 17.5639C133.454 16.7763 134.712 16.3828 136.141 16.3833C137.915 16.3833 139.412 16.9835 140.631 18.184C141.317 18.8837 141.833 19.7329 142.141 20.6658C141.767 21.9406 140.984 23.0541 139.914 23.8311ZM141.531 13.272C140.078 11.808 138.315 11.0955 136.139 11.0955C133.963 11.0955 132.197 11.8002 130.744 13.2548C129.291 14.7095 128.588 16.4882 128.588 18.7046C128.588 20.8968 129.3 22.6716 130.763 24.1341C132.226 25.5966 133.986 26.3137 136.138 26.3137C138.313 26.3137 140.077 25.6021 141.528 24.138C142.979 22.674 143.689 20.8976 143.689 18.7046C143.689 16.5117 142.984 14.7353 141.531 13.272ZM139.914 23.8311C138.826 24.6323 137.568 25.0326 136.139 25.0321C134.711 25.0316 133.46 24.6313 132.386 23.8311C131.334 23.0588 130.56 21.9623 130.18 20.7073C130.525 19.4359 131.298 18.3247 132.366 17.5639C133.454 16.7763 134.712 16.3828 136.141 16.3833C137.915 16.3833 139.412 16.9835 140.631 18.184C141.317 18.8837 141.833 19.7329 142.141 20.6658C141.767 21.9406 140.984 23.0541 139.914 23.8311ZM141.531 13.272C140.078 11.808 138.315 11.0955 136.139 11.0955C133.963 11.0955 132.197 11.8002 130.744 13.2548C129.291 14.7095 128.588 16.4882 128.588 18.7046C128.588 20.8968 129.3 22.6716 130.763 24.1341C132.226 25.5966 133.986 26.3137 136.138 26.3137C138.313 26.3137 140.077 25.6021 141.528 24.138C142.979 22.674 143.689 20.8976 143.689 18.7046C143.689 16.5117 142.984 14.7353 141.531 13.272ZM139.914 23.8311C138.826 24.6323 137.568 25.0326 136.139 25.0321C134.711 25.0316 133.46 24.6313 132.386 23.8311C131.334 23.0588 130.56 21.9623 130.18 20.7073C130.525 19.4359 131.298 18.3247 132.366 17.5639C133.454 16.7763 134.712 16.3828 136.141 16.3833C137.915 16.3833 139.412 16.9835 140.631 18.184C141.317 18.8837 141.833 19.7329 142.141 20.6658C141.767 21.9406 140.984 23.0541 139.914 23.8311ZM141.531 13.272C140.078 11.808 138.315 11.0955 136.139 11.0955C133.963 11.0955 132.197 11.8002 130.744 13.2548C129.291 14.7095 128.588 16.4882 128.588 18.7046C128.588 20.8968 129.3 22.6716 130.763 24.1341C132.226 25.5966 133.986 26.3137 136.138 26.3137C138.313 26.3137 140.077 25.6021 141.528 24.138C142.979 22.674 143.689 20.8976 143.689 18.7046C143.689 16.5117 142.984 14.7353 141.531 13.272ZM139.914 23.8311C138.826 24.6323 137.568 25.0326 136.139 25.0321C134.711 25.0316 133.46 24.6313 132.386 23.8311C131.334 23.0588 130.56 21.9623 130.18 20.7073C130.525 19.4359 131.298 18.3247 132.366 17.5639C133.454 16.7763 134.712 16.3828 136.141 16.3833C137.915 16.3833 139.412 16.9835 140.631 18.184C141.317 18.8837 141.833 19.7329 142.141 20.6658C141.767 21.9406 140.984 23.0541 139.914 23.8311ZM141.531 13.272C140.078 11.808 138.315 11.0955 136.139 11.0955C133.963 11.0955 132.197 11.8002 130.744 13.2548C129.291 14.7095 128.588 16.4882 128.588 18.7046C128.588 20.8968 129.3 22.6716 130.763 24.1341C132.226 25.5966 133.986 26.3137 136.138 26.3137C138.313 26.3137 140.077 25.6021 141.528 24.138C142.979 22.674 143.689 20.8976 143.689 18.7046C143.689 16.5117 142.984 14.7353 141.531 13.272ZM139.914 23.8311C138.826 24.6323 137.568 25.0326 136.139 25.0321C134.711 25.0316 133.46 24.6313 132.386 23.8311C131.334 23.0588 130.56 21.9623 130.18 20.7073C130.525 19.4359 131.298 18.3247 132.366 17.5639C133.454 16.7763 134.712 16.3828 136.141 16.3833C137.915 16.3833 139.412 16.9835 140.631 18.184C141.317 18.8837 141.833 19.7329 142.141 20.6658C141.767 21.9406 140.984 23.0541 139.914 23.8311ZM141.531 13.272C140.078 11.808 138.315 11.0955 136.139 11.0955C133.963 11.0955 132.197 11.8002 130.744 13.2548C129.291 14.7095 128.588 16.4882 128.588 18.7046C128.588 20.8968 129.3 22.6716 130.763 24.1341C132.226 25.5966 133.986 26.3137 136.138 26.3137C138.313 26.3137 140.077 25.6021 141.528 24.138C142.979 22.674 143.689 20.8976 143.689 18.7046C143.689 16.5117 142.984 14.7353 141.531 13.272ZM139.914 23.8311C138.826 24.6323 137.568 25.0326 136.139 25.0321C134.711 25.0316 133.46 24.6313 132.386 23.8311C131.334 23.0588 130.56 21.9623 130.18 20.7073C130.525 19.4359 131.298 18.3247 132.366 17.5639C133.454 16.7763 134.712 16.3828 136.141 16.3833C137.915 16.3833 139.412 16.9835 140.631 18.184C141.317 18.8837 141.833 19.7329 142.141 20.6658C141.767 21.9406 140.984 23.0541 139.914 23.8311ZM141.531 13.272C140.078 11.808 138.315 11.0955 136.139 11.0955C133.963 11.0955 132.197 11.8002 130.744 13.2548C129.291 14.7095 128.588 16.4882 128.588 18.7046C128.588 20.8968 129.3 22.6716 130.763 24.1341C132.226 25.5966 133.986 26.3137 136.138 26.3137C138.313 26.3137 140.077 25.6021 141.528 24.138C142.979 22.674 143.689 20.8976 143.689 18.7046C143.689 16.5117 142.984 14.7353 141.531 13.272ZM139.914 23.8311C138.826 24.6323 137.568 25.0326 136.139 25.0321C134.711 25.0316 133.46 24.6313 132.386 23.8311C131.334 23.0588 130.56 21.9623 130.18 20.7073C130.525 19.4359 131.298 18.3247 132.366 17.5639C133.454 16.7763 134.712 16.3828 136.141 16.3833C137.915 16.3833 139.412 16.9835 140.631 18.184C141.317 18.8837 141.833 19.7329 142.141 20.6658C141.767 21.9406 140.984 23.0541 139.914 23.8311ZM141.531 13.272C140.078 11.808 138.315 11.0955 136.139 11.0955C133.963 11.0955 132.197 11.8002 130.744 13.2548C129.291 14.7095 128.588 16.4882 128.588 18.7046C128.588 20.8968 129.3 22.6716 130.763 24.1341C132.226 25.5966 133.986 26.3137 136.138 26.3137C138.313 26.3137 140.077 25.6021 141.528 24.138C142.979 22.674 143.689 20.8976 143.689 18.7046C143.689 16.5117 142.984 14.7353 141.531 13.272ZM139.914 23.8311C138.826 24.6323 137.568 25.0326 136.139 25.0321C134.711 25.0316 133.46 24.6313 132.386 23.8311C131.334 23.0588 130.56 21.9623 130.18 20.7073C130.525 19.4359 131.298 18.3247 132.366 17.5639C133.454 16.7763 134.712 16.3828 136.141 16.3833C137.915 16.3833 139.412 16.9835 140.631 18.184C141.317 18.8837 141.833 19.7329 142.141 20.6658C141.767 21.9406 140.984 23.0541 139.914 23.8311ZM141.531 13.272C140.078 11.808 138.315 11.0955 136.139 11.0955C133.963 11.0955 132.197 11.8002 130.744 13.2548C129.291 14.7095 128.588 16.4882 128.588 18.7046C128.588 20.8968 129.3 22.6716 130.763 24.1341C132.226 25.5966 133.986 26.3137 136.138 26.3137C138.313 26.3137 140.077 25.6021 141.528 24.138C142.979 22.674 143.689 20.8976 143.689 18.7046C143.689 16.5117 142.984 14.7353 141.531 13.272ZM139.914 23.8311C138.826 24.6323 137.568 25.0326 136.139 25.0321C134.711 25.0316 133.46 24.6313 132.386 23.8311C131.334 23.0588 130.56 21.9623 130.18 20.7073C130.525 19.4359 131.298 18.3247 132.366 17.5639C133.454 16.7763 134.712 16.3828 136.141 16.3833C137.915 16.3833 139.412 16.9835 140.631 18.184C141.317 18.8837 141.833 19.7329 142.141 20.6658C141.767 21.9406 140.984 23.0541 139.914 23.8311ZM141.531 13.272C140.078 11.808 138.315 11.0955 136.139 11.0955C133.963 11.0955 132.197 11.8002 130.744 13.2548C129.291 14.7095 128.588 16.4882 128.588 18.7046C128.588 20.8968 129.3 22.6716 130.763 24.1341C132.226 25.5966 133.986 26.3137 136.138 26.3137C138.313 26.3137 140.077 25.6021 141.528 24.138C142.979 22.674 143.689 20.8976 143.689 18.7046C143.689 16.5117 142.984 14.7353 141.531 13.272ZM139.914 23.8311C138.826 24.6323 137.568 25.0326 136.139 25.0321C134.711 25.0316 133.46 24.6313 132.386 23.8311C131.334 23.0588 130.56 21.9623 130.18 20.7073C130.525 19.4359 131.298 18.3247 132.366 17.5639C133.454 16.7763 134.712 16.3828 136.141 16.3833C137.915 16.3833 139.412 16.9835 140.631 18.184C141.317 18.8837 141.833 19.7329 142.141 20.6658C141.767 21.9406 140.984 23.0541 139.914 23.8311ZM141.531 13.272C140.078 11.808 138.315 11.0955 136.139 11.0955C133.963 11.0955 132.197 11.8002 130.744 13.2548C129.291 14.7095 128.588 16.4882 128.588 18.7046C128.588 20.8968 129.3 22.6716 130.763 24.1341C132.226 25.5966 133.986 26.3137 136.138 26.3137C138.313 26.3137 140.077 25.6021 141.528 24.138C142.979 22.674 143.689 20.8976 143.689 18.7046C143.689 16.5117 142.984 14.7353 141.531 13.272ZM139.914 23.8311C138.826 24.6323 137.568 25.0326 136.139 25.0321C134.711 25.0316 133.46 24.6313 132.386 23.8311C131.334 23.0588 130.56 21.9623 130.18 20.7073C130.525 19.4359 131.298 18.3247 132.366 17.5639C133.454 16.7763 134.712 16.3828 136.141 16.3833C137.915 16.3833 139.412 16.9835 140.631 18.184C141.317 18.8837 141.833 19.7329 142.141 20.6658C141.767 21.9406 140.984 23.0541 139.914 23.8311ZM152.949 18.7054C152.949 13.9558 151.326 9.94441 148.08 6.67133C144.835 3.39825 140.855 1.76302 136.139 1.76563C131.423 1.76563 127.443 3.40086 124.199 6.67133C120.955 9.9418 119.333 13.9532 119.334 18.7054C119.334 19.3745 119.374 20.043 119.454 20.7073C119.374 21.3713 119.334 22.0396 119.334 22.7084C119.334 27.4617 120.957 31.4731 124.202 34.7425C127.448 38.0119 131.428 39.6472 136.142 39.6482C140.831 39.6482 144.805 38.0062 148.063 34.7222C151.322 31.4381 152.951 27.4335 152.952 22.7084C152.952 22.0528 152.912 21.3979 152.832 20.7472C152.911 20.0696 152.95 19.3878 152.949 18.7054ZM147.178 29.829C144.195 32.8346 140.481 34.3589 136.139 34.3589C131.797 34.3589 128.084 32.8361 125.1 29.829C122.116 26.8218 120.603 23.078 120.603 18.7031C120.603 14.3282 122.116 10.5851 125.1 7.57872C128.084 4.57236 131.796 3.04725 136.139 3.04725C140.482 3.04725 144.195 4.5747 147.179 7.58029C150.163 10.5859 151.675 14.329 151.675 18.7046C151.675 23.0803 150.163 26.8226 147.178 29.829ZM136.139 11.094C133.964 11.094 132.197 11.7986 130.744 13.2532C129.291 14.7079 128.588 16.4867 128.588 18.7031C128.588 20.8952 129.3 22.6701 130.763 24.1325C132.226 25.595 133.986 26.3122 136.138 26.3122C138.313 26.3122 140.077 25.6005 141.528 24.1365C142.979 22.6724 143.689 20.896 143.689 18.7031C143.689 16.5101 142.982 14.7337 141.53 13.2705C140.077 11.8072 138.315 11.0955 136.139 11.0955V11.094ZM139.914 23.8296C138.826 24.6307 137.568 25.0311 136.139 25.0305C134.711 25.03 133.46 24.6302 132.386 23.8311C131.334 23.0588 130.56 21.9623 130.18 20.7073C130.525 19.4359 131.298 18.3247 132.366 17.5639C133.454 16.7763 134.712 16.3828 136.141 16.3833C137.915 16.3833 139.412 16.9835 140.631 18.184C141.317 18.8837 141.833 19.7329 142.141 20.6658C141.767 21.9406 140.984 23.0541 139.914 23.8311V23.8296ZM141.531 13.2705C140.078 11.8064 138.315 11.094 136.139 11.094C133.963 11.094 132.197 11.7986 130.744 13.2532C129.291 14.7079 128.588 16.4867 128.588 18.7031C128.588 20.8952 129.3 22.6701 130.763 24.1325C132.226 25.595 133.986 26.3122 136.138 26.3122C138.313 26.3122 140.077 25.6005 141.528 24.1365C142.979 22.6724 143.689 20.896 143.689 18.7031C143.689 16.5101 142.984 14.7353 141.531 13.272V13.2705ZM139.914 23.8296C138.826 24.6307 137.568 25.0311 136.139 25.0305C134.711 25.03 133.46 24.6302 132.386 23.8311C131.334 23.0588 130.56 21.9623 130.18 20.7073C130.525 19.4359 131.298 18.3247 132.366 17.5639C133.454 16.7763 134.712 16.3828 136.141 16.3833C137.915 16.3833 139.412 16.9835 140.631 18.184C141.317 18.8837 141.833 19.7329 142.141 20.6658C141.767 21.9406 140.984 23.0541 139.914 23.8311V23.8296ZM141.531 13.2705C140.078 11.8064 138.315 11.094 136.139 11.094C133.963 11.094 132.197 11.7986 130.744 13.2532C129.291 14.7079 128.588 16.4867 128.588 18.7031C128.588 20.8952 129.3 22.6701 130.763 24.1325C132.226 25.595 133.986 26.3122 136.138 26.3122C138.313 26.3122 140.077 25.6005 141.528 24.1365C142.979 22.6724 143.689 20.896 143.689 18.7031C143.689 16.5101 142.984 14.7353 141.531 13.272V13.2705ZM139.914 23.8296C138.826 24.6307 137.568 25.0311 136.139 25.0305C134.711 25.03 133.46 24.6302 132.386 23.8311C131.334 23.0588 130.56 21.9623 130.18 20.7073C130.525 19.4359 131.298 18.3247 132.366 17.5639C133.454 16.7763 134.712 16.3828 136.141 16.3833C137.915 16.3833 139.412 16.9835 140.631 18.184C141.317 18.8837 141.833 19.7329 142.141 20.6658C141.767 21.9406 140.984 23.0541 139.914 23.8311V23.8296ZM141.531 13.2705C140.078 11.8064 138.315 11.094 136.139 11.094C133.963 11.094 132.197 11.7986 130.744 13.2532C129.291 14.7079 128.588 16.4867 128.588 18.7031C128.588 20.8952 129.3 22.6701 130.763 24.1325C132.226 25.595 133.986 26.3122 136.138 26.3122C138.313 26.3122 140.077 25.6005 141.528 24.1365C142.979 22.6724 143.689 20.896 143.689 18.7031C143.689 16.5101 142.984 14.7353 141.531 13.272V13.2705ZM139.914 23.8296C138.826 24.6307 137.568 25.0311 136.139 25.0305C134.711 25.03 133.46 24.6302 132.386 23.8311C131.334 23.0588 130.56 21.9623 130.18 20.7073C130.525 19.4359 131.298 18.3247 132.366 17.5639C133.454 16.7763 134.712 16.3828 136.141 16.3833C137.915 16.3833 139.412 16.9835 140.631 18.184C141.317 18.8837 141.833 19.7329 142.141 20.6658C141.767 21.9406 140.984 23.0541 139.914 23.8311V23.8296ZM141.531 13.2705C140.078 11.8064 138.315 11.094 136.139 11.094C133.963 11.094 132.197 11.7986 130.744 13.2532C129.291 14.7079 128.588 16.4867 128.588 18.7031C128.588 20.8952 129.3 22.6701 130.763 24.1325C132.226 25.595 133.986 26.3122 136.138 26.3122C138.313 26.3122 140.077 25.6005 141.528 24.1365C142.979 22.6724 143.689 20.896 143.689 18.7031C143.689 16.5101 142.984 14.7353 141.531 13.272V13.2705ZM139.914 23.8296C138.826 24.6307 137.568 25.0311 136.139 25.0305C134.711 25.03 133.46 24.6302 132.386 23.8311C131.334 23.0588 130.56 21.9623 130.18 20.7073C130.525 19.4359 131.298 18.3247 132.366 17.5639C133.454 16.7763 134.712 16.3828 136.141 16.3833C137.915 16.3833 139.412 16.9835 140.631 18.184C141.317 18.8837 141.833 19.7329 142.141 20.6658C141.767 21.9406 140.984 23.0541 139.914 23.8311V23.8296ZM141.531 13.2705C140.078 11.8064 138.315 11.094 136.139 11.094C133.963 11.094 132.197 11.7986 130.744 13.2532C129.291 14.7079 128.588 16.4867 128.588 18.7031C128.588 20.8952 129.3 22.6701 130.763 24.1325C132.226 25.595 133.986 26.3122 136.138 26.3122C138.313 26.3122 140.077 25.6005 141.528 24.1365C142.979 22.6724 143.689 20.896 143.689 18.7031C143.689 16.5101 142.984 14.7353 141.531 13.272V13.2705ZM139.914 23.8296C138.826 24.6307 137.568 25.0311 136.139 25.0305C134.711 25.03 133.46 24.6302 132.386 23.8311C131.334 23.0588 130.56 21.9623 130.18 20.7073C130.525 19.4359 131.298 18.3247 132.366 17.5639C133.454 16.7763 134.712 16.3828 136.141 16.3833C137.915 16.3833 139.412 16.9835 140.631 18.184C141.317 18.8837 141.833 19.7329 142.141 20.6658C141.767 21.9406 140.984 23.0541 139.914 23.8311V23.8296ZM141.531 13.2705C140.078 11.8064 138.315 11.094 136.139 11.094C133.963 11.094 132.197 11.7986 130.744 13.2532C129.291 14.7079 128.588 16.4867 128.588 18.7031C128.588 20.8952 129.3 22.6701 130.763 24.1325C132.226 25.595 133.986 26.3122 136.138 26.3122C138.313 26.3122 140.077 25.6005 141.528 24.1365C142.979 22.6724 143.689 20.896 143.689 18.7031C143.689 16.5101 142.984 14.7353 141.531 13.272V13.2705ZM139.914 23.8296C138.826 24.6307 137.568 25.0311 136.139 25.0305C134.711 25.03 133.46 24.6302 132.386 23.8311C131.334 23.0588 130.56 21.9623 130.18 20.7073C130.525 19.4359 131.298 18.3247 132.366 17.5639C133.454 16.7763 134.712 16.3828 136.141 16.3833C137.915 16.3833 139.412 16.9835 140.631 18.184C141.317 18.8837 141.833 19.7329 142.141 20.6658C141.767 21.9406 140.984 23.0541 139.914 23.8311V23.8296ZM141.531 13.2705C140.078 11.8064 138.315 11.094 136.139 11.094C133.963 11.094 132.197 11.7986 130.744 13.2532C129.291 14.7079 128.588 16.4867 128.588 18.7031C128.588 20.8952 129.3 22.6701 130.763 24.1325C132.226 25.595 133.986 26.3122 136.138 26.3122C138.313 26.3122 140.077 25.6005 141.528 24.1365C142.979 22.6724 143.689 20.896 143.689 18.7031C143.689 16.5101 142.984 14.7353 141.531 13.272V13.2705ZM139.914 23.8296C138.826 24.6307 137.568 25.0311 136.139 25.0305C134.711 25.03 133.46 24.6302 132.386 23.8311C131.334 23.0588 130.56 21.9623 130.18 20.7073C130.525 19.4359 131.298 18.3247 132.366 17.5639C133.454 16.7763 134.712 16.3828 136.141 16.3833C137.915 16.3833 139.412 16.9835 140.631 18.184C141.317 18.8837 141.833 19.7329 142.141 20.6658C141.767 21.9406 140.984 23.0541 139.914 23.8311V23.8296ZM141.531 13.2705C140.078 11.8064 138.315 11.094 136.139 11.094C133.963 11.094 132.197 11.7986 130.744 13.2532C129.291 14.7079 128.588 16.4867 128.588 18.7031C128.588 20.8952 129.3 22.6701 130.763 24.1325C132.226 25.595 133.986 26.3122 136.138 26.3122C138.313 26.3122 140.077 25.6005 141.528 24.1365C142.979 22.6724 143.689 20.896 143.689 18.7031C143.689 16.5101 142.984 14.7353 141.531 13.272V13.2705ZM139.914 23.8296C138.826 24.6307 137.568 25.0311 136.139 25.0305C134.711 25.03 133.46 24.6302 132.386 23.8311C131.334 23.0588 130.56 21.9623 130.18 20.7073C130.525 19.4359 131.298 18.3247 132.366 17.5639C133.454 16.7763 134.712 16.3828 136.141 16.3833C137.915 16.3833 139.412 16.9835 140.631 18.184C141.317 18.8837 141.833 19.7329 142.141 20.6658C141.767 21.9406 140.984 23.0541 139.914 23.8311V23.8296ZM141.531 13.2705C140.078 11.8064 138.315 11.094 136.139 11.094C133.963 11.094 132.197 11.7986 130.744 13.2532C129.291 14.7079 128.588 16.4867 128.588 18.7031C128.588 20.8952 129.3 22.6701 130.763 24.1325C132.226 25.595 133.986 26.3122 136.138 26.3122C138.313 26.3122 140.077 25.6005 141.528 24.1365C142.979 22.6724 143.689 20.896 143.689 18.7031C143.689 16.5101 142.984 14.7353 141.531 13.272V13.2705ZM139.914 23.8296C138.826 24.6307 137.568 25.0311 136.139 25.0305C134.711 25.03 133.46 24.6302 132.386 23.8311C131.334 23.0588 130.56 21.9623 130.18 20.7073C130.525 19.4359 131.298 18.3247 132.366 17.5639C133.454 16.7763 134.712 16.3828 136.141 16.3833C137.915 16.3833 139.412 16.9835 140.631 18.184C141.317 18.8837 141.833 19.7329 142.141 20.6658C141.767 21.9406 140.984 23.0541 139.914 23.8311V23.8296ZM141.531 13.2705C140.078 11.8064 138.315 11.094 136.139 11.094C133.963 11.094 132.197 11.7986 130.744 13.2532C129.291 14.7079 128.588 16.4867 128.588 18.7031C128.588 20.8952 129.3 22.6701 130.763 24.1325C132.226 25.595 133.986 26.3122 136.138 26.3122C138.313 26.3122 140.077 25.6005 141.528 24.1365C142.979 22.6724 143.689 20.896 143.689 18.7031C143.689 16.5101 142.984 14.7353 141.531 13.272V13.2705ZM139.914 23.8296C138.826 24.6307 137.568 25.0311 136.139 25.0305C134.711 25.03 133.46 24.6302 132.386 23.8311C131.334 23.0588 130.56 21.9623 130.18 20.7073C130.525 19.4359 131.298 18.3247 132.366 17.5639C133.454 16.7763 134.712 16.3828 136.141 16.3833C137.915 16.3833 139.412 16.9835 140.631 18.184C141.317 18.8837 141.833 19.7329 142.141 20.6658C141.767 21.9406 140.984 23.0541 139.914 23.8311V23.8296Z" fill="white"/>
<path d="M147.179 7.5803C144.197 4.57472 140.483 3.04883 136.139 3.04883C131.796 3.04883 128.083 4.57472 125.1 7.5803C122.118 10.5859 120.604 14.3298 120.604 18.7047C120.604 23.0795 122.116 26.8218 125.1 29.8306C128.084 32.8393 131.798 34.3605 136.139 34.3605C140.481 34.3605 144.195 32.8362 147.178 29.829C150.162 26.8219 151.675 23.0788 151.675 18.7031C151.675 14.3274 150.163 10.5851 147.179 7.5803ZM141.53 24.138C140.078 25.6021 138.316 26.3137 136.139 26.3137C133.987 26.3137 132.231 25.6021 130.765 24.1341C129.299 22.6662 128.589 20.896 128.589 18.7047C128.589 16.4882 129.294 14.7056 130.745 13.2548C132.197 11.8041 133.963 11.0956 136.141 11.0956C138.319 11.0956 140.08 11.808 141.533 13.272C142.986 14.7361 143.692 16.5133 143.692 18.7047C143.692 20.896 142.984 22.6756 141.53 24.138Z" fill="#DF5051"/>
<path d="M177.411 25.8009L177.384 12.5377C177.384 9.54852 176.259 6.9858 174.007 4.8495C171.835 2.79463 169.252 1.76667 166.257 1.76562C163.132 1.76562 160.489 2.85361 158.329 5.02957C156.169 7.20554 155.09 9.86873 155.092 13.0192V34.2822C155.092 35.8031 155.588 37.0646 156.581 38.0668C157.574 39.0689 158.826 39.5692 160.337 39.5676C161.846 39.5676 163.104 39.0673 164.112 38.0668C165.119 37.0662 165.622 35.8047 165.621 34.2822V17.023C165.621 16.5955 165.834 16.3833 166.257 16.3833C166.654 16.3833 166.854 16.5955 166.854 17.023L166.879 27.5586L166.895 34.8028V34.8083C166.989 36.1262 167.487 37.2343 168.392 38.1325C169.399 39.1331 170.659 39.6334 172.172 39.6334C172.203 39.6334 172.232 39.6334 172.262 39.6334C173.733 39.6146 174.956 39.1148 175.934 38.1341C176.469 37.6023 176.877 36.9539 177.125 36.2387C177.33 35.6305 177.431 34.9918 177.425 34.3495V32.3868L177.411 25.8009ZM176.147 30.4984C176.115 31.5764 175.728 32.5199 175.026 33.2237C174.284 33.9706 173.323 34.3487 172.171 34.3487C171.039 34.3487 170.049 33.9628 169.307 33.2323C168.622 32.5653 168.226 31.6704 168.166 30.6487C168.156 30.532 168.155 30.4279 168.155 30.3465V27.1671L168.127 13.0239C168.132 12.7702 168.085 12.5183 167.988 12.284C167.892 12.0497 167.748 11.8381 167.567 11.6624C167.401 11.4799 167.198 11.3352 166.973 11.2378C166.747 11.1405 166.504 11.0928 166.258 11.0979C166.007 11.094 165.757 11.1411 165.523 11.2363C165.29 11.3315 165.078 11.473 164.9 11.6523C164.722 11.8317 164.582 12.0452 164.487 12.2802C164.392 12.5153 164.346 12.7671 164.349 13.0207V30.2776C164.349 31.4293 163.951 32.4283 163.196 33.1665C162.442 33.9048 161.487 34.2798 160.337 34.2798C159.188 34.2798 158.227 33.9009 157.485 33.1532C156.752 32.4181 156.365 31.4238 156.365 30.2776V13.0184C156.365 10.2124 157.323 7.82377 159.211 5.91817C161.099 4.01257 163.473 3.04881 166.258 3.04881C168.867 3.04881 171.178 3.96873 173.126 5.78195C175.108 7.62257 176.113 9.89692 176.113 12.5377L176.147 30.4741V30.4984Z" fill="white"/>
<path d="M176.147 30.4741V30.4953C176.115 31.5733 175.728 32.5167 175.027 33.2206C174.284 33.9675 173.323 34.3456 172.171 34.3456C171.039 34.3456 170.049 33.9596 169.307 33.2292C168.623 32.5621 168.226 31.6673 168.166 30.6456C168.156 30.5289 168.155 30.4248 168.155 30.3434V27.1671L168.128 13.0239C168.132 12.7702 168.085 12.5183 167.988 12.284C167.892 12.0497 167.748 11.8381 167.567 11.6624C167.401 11.4799 167.199 11.3352 166.973 11.2378C166.747 11.1405 166.504 11.0928 166.258 11.0979C166.007 11.094 165.757 11.1411 165.524 11.2363C165.29 11.3315 165.078 11.473 164.9 11.6523C164.722 11.8317 164.582 12.0452 164.487 12.2802C164.393 12.5153 164.346 12.7671 164.35 13.0207V30.2776C164.35 31.4293 163.951 32.4283 163.197 33.1666C162.442 33.9048 161.487 34.2799 160.338 34.2799C159.188 34.2799 158.227 33.9009 157.485 33.1532C156.752 32.4181 156.365 31.4238 156.365 30.2776V13.0184C156.365 10.2124 157.323 7.82379 159.211 5.91819C161.099 4.01259 163.473 3.04883 166.258 3.04883C168.867 3.04883 171.179 3.96875 173.126 5.78196C175.108 7.62258 176.113 9.89693 176.113 12.5377L176.147 30.4741Z" fill="#DF5051"/>
<path d="M69.604 5.98883C67.713 4.0848 65.3411 3.11947 62.5566 3.11947C60.5765 3.10309 58.6399 3.70476 57.0126 4.84187C55.3857 3.70468 53.4493 3.10299 51.4694 3.11947C48.6849 3.11947 46.313 4.0848 44.422 5.98883C42.531 7.89287 41.5762 10.2831 41.5762 13.089V30.3483C41.5762 31.4999 41.9747 32.4989 42.726 33.2341C43.4773 33.9692 44.4422 34.3505 45.5881 34.3505C46.7341 34.3505 47.699 33.9716 48.4402 33.2255C49.1814 32.4793 49.5613 31.4944 49.5613 30.3483V13.089C49.5713 12.5857 49.7768 12.1064 50.1336 11.754C50.4905 11.4016 50.9701 11.2042 51.4697 11.2042C51.9693 11.2042 52.449 11.4016 52.8058 11.754C53.1626 12.1064 53.3681 12.5857 53.3782 13.089V30.3483C53.3782 31.4944 53.7667 32.4887 54.4977 33.2239C55.1659 33.8972 56.0112 34.2699 57.0126 34.338C58.0148 34.2699 58.8601 33.8972 59.5282 33.2239C60.2609 32.4887 60.6478 31.4944 60.6478 30.3483V13.089C60.6427 12.8332 60.6882 12.5789 60.7818 12.3411C60.8754 12.1032 61.0152 11.8866 61.1929 11.7038C61.3707 11.5211 61.5828 11.3759 61.8169 11.2768C62.051 11.1777 62.3023 11.1266 62.5563 11.1266C62.8102 11.1266 63.0615 11.1777 63.2956 11.2768C63.5297 11.3759 63.7418 11.5211 63.9196 11.7038C64.0973 11.8866 64.2371 12.1032 64.3307 12.3411C64.4243 12.5789 64.4699 12.8332 64.4647 13.089V30.3483C64.4647 31.4944 64.8532 32.4887 65.5858 33.2255C66.3184 33.9622 67.2865 34.3505 68.4379 34.3505C69.5892 34.3505 70.5472 33.9747 71.3 33.2341C72.0528 32.4934 72.4498 31.4999 72.4498 30.3483V13.089C72.4498 10.2831 71.4919 7.89443 69.604 5.98883Z" fill="#DF5051"/>
<path d="M70.4861 5.07C68.3273 2.89508 65.6858 1.8071 62.5616 1.80605C60.6167 1.79039 58.7029 2.29795 57.0176 3.27635C55.3314 2.2972 53.4164 1.78961 51.4704 1.80605C48.3447 1.80605 45.7032 2.89403 43.546 5.07C41.3887 7.24596 40.3083 9.90916 40.3047 13.0596V34.3226C40.3047 35.8435 40.8079 37.1051 41.8142 38.1072C42.8206 39.1093 44.0789 39.6096 45.5892 39.608C47.099 39.608 48.3509 39.1077 49.3448 38.1072C50.3387 37.1066 50.8352 35.8451 50.8341 34.3226V17.0673C50.8341 16.6398 51.047 16.4277 51.4704 16.4277C51.8938 16.4277 52.1067 16.6398 52.1067 17.0673V34.3226C52.1067 35.8435 52.6032 37.1051 53.5961 38.1072C54.5154 39.0321 55.6549 39.5292 57.0145 39.5986C58.374 39.5282 59.5135 39.031 60.4329 38.1072C61.4242 37.1051 61.9199 35.8435 61.9199 34.3226V17.0673C61.9199 16.6398 62.1327 16.4277 62.5562 16.4277C62.9796 16.4277 63.1924 16.6398 63.1924 17.0673V34.3226C63.1924 35.8435 63.6889 37.1051 64.6818 38.1072C65.6747 39.1093 66.9265 39.6096 68.4374 39.608C69.9472 39.608 71.2055 39.1077 72.2124 38.1072C73.2192 37.1066 73.7224 35.8451 73.7219 34.3226V13.0596C73.7229 9.9102 72.6443 7.24701 70.4861 5.07ZM72.4509 30.318C72.4509 31.4697 72.0523 32.4687 71.301 33.2038C70.5498 33.939 69.5848 34.3203 68.4389 34.3203C67.293 34.3203 66.328 33.9413 65.5869 33.1952C64.8457 32.4491 64.4658 31.4642 64.4658 30.318V13.0588C64.4557 12.5555 64.2502 12.0761 63.8934 11.7238C63.5366 11.3714 63.0569 11.174 62.5573 11.174C62.0577 11.174 61.578 11.3714 61.2212 11.7238C60.8644 12.0761 60.6589 12.5555 60.6488 13.0588V30.318C60.6488 31.4642 60.2604 32.4585 59.5293 33.1937C58.8612 33.867 58.0159 34.2396 57.0137 34.3077C56.0122 34.2396 55.167 33.867 54.4988 33.1937C53.7662 32.4585 53.3793 31.4642 53.3793 30.318V13.0588C53.3844 12.803 53.3388 12.5487 53.2452 12.3108C53.1516 12.073 53.0119 11.8563 52.8341 11.6736C52.6564 11.4908 52.4443 11.3457 52.2102 11.2466C51.9761 11.1474 51.7247 11.0964 51.4708 11.0964C51.2169 11.0964 50.9655 11.1474 50.7314 11.2466C50.4973 11.3457 50.2852 11.4908 50.1075 11.6736C49.9298 11.8563 49.79 12.073 49.6964 12.3108C49.6028 12.5487 49.5572 12.803 49.5623 13.0588V30.318C49.5623 31.4642 49.1739 32.4585 48.4413 33.1952C47.7086 33.9319 46.7406 34.3203 45.5892 34.3203C44.4378 34.3203 43.4799 33.9445 42.7271 33.2038C41.9743 32.4632 41.5773 31.4697 41.5773 30.318V13.0588C41.5773 10.2529 42.5352 7.8642 44.4231 5.9586C46.311 4.053 48.686 3.08924 51.4704 3.08924C53.4504 3.07245 55.3869 3.67417 57.0137 4.81164C58.6408 3.67424 60.5775 3.07255 62.5577 3.08924C65.3421 3.08924 67.7141 4.05457 69.605 5.9586C71.496 7.86264 72.4509 10.256 72.4509 13.0588V30.318Z" fill="white"/>
<path d="M34.5892 33.7807C35.2107 33.1598 35.7934 32.4951 36.3271 31.7944C37.3977 30.0963 37.9773 27.8869 37.9299 25.2462C37.7683 16.2631 30.411 5.67582 21.4959 1.60078C17.4444 -0.252365 13.768 -0.441046 10.9781 0.748192C10.3721 1.05822 9.78402 1.40036 9.21533 1.77302C7.59625 2.82838 6.14265 4.11783 4.89804 5.59518C3.49028 7.26043 2.35056 9.16446 1.53791 11.2415C1.46177 11.4357 1.38952 11.6314 1.32115 11.8287C1.22481 12.0949 1.13625 12.3642 1.05234 12.6359C1.04224 12.6672 1.03214 12.7001 1.02282 12.733C0.951341 12.9639 0.885304 13.198 0.823928 13.4337C0.783529 13.584 0.746237 13.7359 0.708946 13.8878C0.693408 13.9535 0.677868 14.0177 0.663107 14.0827C0.599401 14.3606 0.541133 14.6425 0.48908 14.9251C0.290968 15.9914 0.175208 17.0875 0.148794 18.2094C0.143355 18.3973 0.142578 18.586 0.142578 18.7747C0.142578 18.8717 0.142578 18.9688 0.144909 19.0675C0.144909 19.0816 0.14491 19.0957 0.145686 19.1098C0.148794 19.2726 0.154232 19.4331 0.162001 19.5944V19.5967C0.248238 21.6949 0.645239 23.7156 1.30561 25.611C1.50139 26.1732 1.72048 26.722 1.96055 27.2606C2.14157 27.6646 2.33424 28.0623 2.5409 28.4522C3.4895 30.2568 4.69216 31.9056 6.09914 33.3493C7.08582 34.36 8.17038 35.2674 9.33808 36.059C9.55717 36.2061 9.77781 36.3518 10.0008 36.4888C11.0069 37.1174 12.0681 37.6561 13.1768 38.1C13.6297 38.2824 14.0897 38.4492 14.5574 38.5964C14.5822 38.6042 14.6086 38.6128 14.6335 38.6206C16.3411 39.1593 18.1428 39.4748 20.0027 39.5351C20.1433 39.5405 20.284 39.5437 20.4254 39.546C20.5015 39.5468 20.5792 39.5468 20.6561 39.5468C20.8822 39.5468 21.1075 39.5437 21.3305 39.5351C21.7679 39.5194 22.2021 39.4912 22.6318 39.4489C27.2855 38.9894 31.4443 36.9194 34.5768 33.7901C34.5814 33.7869 34.5845 33.7838 34.5892 33.7807Z" fill="#B0CF6C"/>
<path d="M34.4466 33.8793C31.3133 37.0149 27.1483 39.0896 22.4892 39.5499C22.0596 39.5922 21.6253 39.6212 21.1879 39.6361C20.9649 39.6447 20.7396 39.6478 20.5135 39.6478C20.4366 39.6478 20.3589 39.6478 20.2828 39.647C20.1422 39.6447 20.0015 39.6415 19.8601 39.6361C18.0002 39.5758 16.1986 39.2611 14.4909 38.7216C14.4661 38.7138 14.4396 38.7052 14.4148 38.6974C13.9471 38.5502 13.4871 38.3834 13.0342 38.201C11.9256 37.7571 10.8643 37.2177 9.8582 36.5898C9.63523 36.452 9.41459 36.3071 9.1955 36.16C8.02858 35.3692 6.94324 34.461 5.95656 33.4503C4.55036 32.0066 3.34693 30.3578 2.39832 28.5532C2.19166 28.1633 1.99899 27.7656 1.81797 27.3616C1.5779 26.823 1.35881 26.2734 1.16303 25.712C0.50266 23.8166 0.106437 21.7959 0.0194227 19.6977V19.6954C0.0116536 19.5341 0.00621475 19.3736 0.00310712 19.2108C0.00233021 19.1967 0.00233063 19.1826 0.00233063 19.1685C-9.47855e-08 19.0706 0 18.9735 0 18.8757C0 18.687 0.000777052 18.4983 0.00621542 18.3104C0.0318534 17.1885 0.148389 16.0924 0.346501 15.0261C0.398554 14.7435 0.456822 14.4616 0.520529 14.1837C0.534513 14.1179 0.550828 14.0537 0.566366 13.9888C0.602881 13.8369 0.640949 13.6858 0.681349 13.5347C0.742724 13.299 0.808763 13.0657 0.880238 12.834C0.888784 12.8011 0.89966 12.7682 0.90976 12.7369C0.99289 12.4652 1.08223 12.1959 1.17857 11.9297C1.24694 11.7324 1.31919 11.5367 1.39533 11.3425C2.2072 9.26468 3.3477 7.36065 4.75546 5.69619C5.99929 4.21884 7.45367 2.92938 9.07275 1.87402C7.3045 3.22376 6.10029 5.31021 5.67299 8.01359C5.63259 8.26804 5.59918 8.52953 5.57199 8.79572C5.56422 8.88106 5.55645 8.96561 5.55024 9.05252C5.51372 9.50347 5.49741 9.97008 5.50362 10.4492C5.50285 10.4954 5.50363 10.5408 5.5044 10.587C5.50673 10.7358 5.51062 10.8837 5.51761 11.0333C5.51839 11.0341 5.51839 11.0356 5.51839 11.0364C5.51839 11.0474 5.51839 11.0583 5.51916 11.0693C5.55956 11.9649 5.66988 12.8739 5.84624 13.7907C5.89907 14.0702 5.9589 14.3497 6.02493 14.63C6.05989 14.7826 6.09641 14.9345 6.13525 15.0872C6.53614 16.6663 7.11804 18.254 7.85611 19.8073C7.85611 19.8073 7.85611 19.8073 7.85611 19.8081C8.2298 20.5989 8.64467 21.3802 9.0945 22.1506C9.34233 22.5741 9.60105 22.9922 9.87063 23.4064C10.8659 24.9424 12.0056 26.4088 13.2556 27.7633C14.3363 28.9361 15.5001 30.0227 16.7269 30.9974C17.1425 31.3294 17.5659 31.6465 17.9956 31.9487C18.7787 32.5038 19.5828 33.008 20.404 33.4613C20.6386 33.5912 20.8763 33.7165 21.1141 33.8363C21.3868 33.9749 21.661 34.1072 21.936 34.2324C22.1668 34.3381 22.396 34.4383 22.6236 34.5338C23.2614 34.7977 23.8884 35.0216 24.5045 35.204C24.7275 35.2698 24.9481 35.3308 25.1672 35.3849C28.9267 36.3377 32.1827 35.7442 34.4466 33.8793Z" fill="#72A05C"/>
<path d="M21.9359 34.234C13.0201 30.1581 5.66275 19.5717 5.50271 10.587C5.43124 6.61764 6.77684 3.62458 9.07183 1.87321C9.64053 1.50211 10.2279 1.1592 10.8346 0.849168C13.6245 -0.340854 17.3009 -0.15139 21.3524 1.70097C30.2667 5.7768 37.624 16.3641 37.7856 25.348C37.8338 27.9887 37.2534 30.1981 36.1836 31.8954C35.6491 32.5961 35.0672 33.26 34.4449 33.8809C31.554 36.2609 27.0433 36.5702 21.9359 34.234Z" fill="#B0CF6C"/>
<path d="M6.68385 10.5666C6.62636 7.12334 7.68995 4.45989 9.75964 2.8604C10.2771 2.52375 10.81 2.2145 11.3445 1.9397C13.9246 0.856157 17.3104 1.15758 20.885 2.79229C25.0026 4.67519 28.912 8.07379 31.893 12.3641C34.8592 16.6333 36.5343 21.2447 36.6073 25.3495V25.3706C36.6461 27.6849 36.1777 29.6437 35.2151 31.1939C34.7365 31.8171 34.2113 32.4176 33.6519 32.9789C30.991 35.1358 26.8959 35.1969 22.4069 33.1433C18.2885 31.2604 14.3791 27.861 11.3981 23.5723C8.43112 19.3038 6.75766 14.6917 6.68463 10.5861L6.68385 10.5666Z" fill="#F2ACAC"/>
<path d="M7.86336 10.5667C7.81286 7.53684 8.7063 5.21473 10.4481 3.84621C10.9073 3.54948 11.3789 3.27547 11.8512 3.0312C14.1245 2.09484 17.1637 2.39626 20.4151 3.883C24.3385 5.67665 28.0739 8.93042 30.9321 13.043C33.7616 17.1142 35.3582 21.4851 35.4273 25.3504V25.3699C35.4615 27.4243 35.0637 29.1483 34.2433 30.4941C33.8183 31.0445 33.353 31.5761 32.8596 32.0748C30.5507 33.9068 26.9163 33.8997 22.8756 32.0521C18.9506 30.2576 15.2152 27.0047 12.3578 22.892C9.52827 18.8209 7.9325 14.4499 7.86336 10.5847V10.5667Z" fill="#EA7F80"/>
<path d="M28.5378 32.1211C27.0096 32.1211 25.2398 31.6811 23.418 30.8481C19.7043 29.15 16.1578 26.0551 13.4324 22.1335C10.7512 18.2761 9.23937 14.1659 9.17567 10.5614V10.5457C9.14537 8.7497 9.47555 6.32503 11.2096 4.92676C11.5988 4.67701 11.999 4.44527 12.3991 4.23623C13.089 3.96065 13.8814 3.82129 14.7554 3.82129C16.2898 3.82129 18.0596 4.25972 19.8737 5.08882C23.5866 6.78617 27.1324 9.881 29.8578 13.8026C32.5389 17.6608 34.0508 21.771 34.116 25.3756V25.3951C34.1455 27.1598 33.8247 28.6223 33.162 29.7426C32.7992 30.2077 32.4045 30.6578 31.9881 31.0837C31.0884 31.7719 29.9285 32.1211 28.5378 32.1211Z" fill="#E05151"/>
<path d="M28.5371 30.7977C27.1946 30.7977 25.6121 30.3984 23.9604 29.6429C20.4573 28.0411 17.1003 25.1044 14.5077 21.3746C11.975 17.7302 10.5478 13.8814 10.488 10.5368V10.5251C10.4631 9.04773 10.7032 7.07558 11.9781 6.00065C12.2943 5.80022 12.6175 5.61232 12.9407 5.44165C13.4628 5.24279 14.0727 5.14258 14.754 5.14258C16.1027 5.14258 17.6845 5.5403 19.33 6.29267C22.8315 7.89372 26.1886 10.8304 28.7811 14.561C31.3138 18.2054 32.7418 22.055 32.8016 25.3988V25.4184C32.8265 26.8934 32.581 28.0959 32.0736 28.9947C31.7769 29.3697 31.4575 29.7353 31.1219 30.0829C30.4647 30.5574 29.5953 30.7977 28.5371 30.7977Z" fill="#DF3A3A"/>
<path d="M26.3423 37.468C26.2957 37.526 26.2266 37.5518 26.159 37.5698C25.8941 37.6411 25.6136 37.6199 25.3254 37.5596C24.4537 37.3803 23.5222 36.8566 22.795 37.5033C22.7724 37.5228 22.7484 37.5479 22.7429 37.5808C22.7351 37.6309 22.7755 37.6724 22.8113 37.7029C22.948 37.8117 23.5998 38.1844 23.3668 38.4709C23.3085 38.5422 23.2192 38.5633 23.136 38.5837C22.7701 38.6643 22.405 38.7481 22.0406 38.8358C22.0989 39.1301 22.2682 39.3893 22.4889 39.5506C22.0592 39.5928 21.6249 39.6218 21.1875 39.6367C20.9646 39.6453 20.7393 39.6484 20.5132 39.6484C20.4363 39.6484 20.3586 39.6484 20.2824 39.6476C20.1418 39.6453 20.0012 39.6422 19.8598 39.6367C17.9999 39.5764 16.1982 39.2617 14.4906 38.7222C14.4657 38.7144 14.4393 38.7058 14.4144 38.698C14.3298 38.3879 14.2529 37.7882 14.3375 37.6724C14.4447 37.5275 14.6079 37.4571 14.7656 37.3952C15.0321 37.288 15.3126 37.1799 15.5907 37.2363C16.5509 37.4281 16.784 38.1366 17.491 36.9818C17.728 36.5959 18.0403 36.4643 18.3409 36.1856C18.5025 36.0353 18.6292 36.1543 18.6657 35.9085C18.7115 35.6094 18.3223 35.0927 18.2019 34.8602C18.191 34.8398 18.1801 34.8163 18.1825 34.7913C18.1871 34.738 18.2438 34.7185 18.2904 34.7114C18.8514 34.6339 19.4076 34.7913 19.9686 34.7114C20.5233 34.6316 20.8651 34.4116 21.1013 33.8721C21.1067 33.8604 21.1114 33.8494 21.1145 33.8369C21.3872 33.9755 21.6615 34.1078 21.9365 34.2331C22.1672 34.3388 22.3964 34.439 22.624 34.5345C23.2619 34.7983 23.8889 35.0222 24.5049 35.2046C24.7279 35.2704 24.9486 35.3315 25.1676 35.3855C25.4644 35.9406 25.8669 36.3892 26.2398 36.913C26.3548 37.0742 26.4651 37.3154 26.3423 37.468Z" fill="#B0CF6C"/>
<path d="M14.8204 30.9047C15.4738 31.6367 15.6338 31.5937 15.4994 31.852C15.2982 32.238 14.1709 32.0885 13.8368 32.0932C14.0536 32.3539 14.2696 32.6146 14.4863 32.8761C14.5104 32.905 14.5361 32.9371 14.5399 32.9747C14.55 33.0734 14.4226 33.1196 14.324 33.1282C13.9984 33.1564 13.669 33.147 13.3458 33.1008C13.4911 33.2472 13.5051 33.5063 13.3761 33.6676C13.2254 33.8571 12.9504 33.8813 12.7095 33.8633C12.4695 33.8453 12.2147 33.803 11.9971 33.9079C11.2233 34.2814 12.7709 35.1896 11.3942 35.5215C11.1091 35.5904 10.7758 35.6483 10.5513 35.4589C10.4689 35.3892 10.4115 35.2921 10.3291 35.2217C9.78216 34.7566 9.92044 36.6286 9.85985 36.591C9.63687 36.4524 9.41623 36.3083 9.19792 36.1604C8.02945 35.3689 6.94488 34.4615 5.95898 33.4507C6.09494 33.4554 6.36842 33.4703 6.55177 33.5251C6.80426 33.5995 7.00781 33.6785 7.11658 33.3607C7.16785 33.2119 7.04277 33.1086 7.12124 32.9912C7.29993 32.7234 8.01935 32.8299 8.26718 32.8291C8.34487 32.8291 8.42489 32.8283 8.49559 32.7946C8.97028 32.5653 8.56396 31.7205 9.06507 31.4034C9.21657 31.3079 9.38904 31.2476 9.53044 31.1372C10.1621 30.6424 9.55996 30.2431 9.60424 29.6967C9.65396 29.0923 10.7502 28.9921 11.148 29.1635C11.7912 29.4407 12.0064 29.5002 12.2558 28.7603C12.3475 28.4871 12.7997 27.8921 13.0801 27.7887C13.1252 27.7707 13.1943 27.7645 13.2565 27.7637C14.338 28.9365 15.501 30.0231 16.7277 30.9971C15.8723 31.1803 14.8204 30.9047 14.8204 30.9047Z" fill="#B0CF6C"/>
<path d="M2.40246 28.5541L3.70766 28.7177C3.70766 28.7177 3.69601 28.4061 3.61987 28.2213C3.38291 27.6428 4.12176 28.0194 4.21809 27.552C4.24684 27.4134 4.21343 27.2709 4.20022 27.1292C4.18702 26.9883 4.201 26.8309 4.30045 26.7307C4.54906 26.4809 5.03462 26.8145 5.30732 26.5913C5.41065 26.5068 5.44639 26.3666 5.50621 26.2468C5.82163 25.608 6.63584 25.7333 7.14238 26.0315C7.14238 26.0315 7.8214 25.2737 7.60853 24.9754C7.37157 24.6442 7.05614 24.4994 7.41896 24.1487C7.46791 24.1017 8.90674 23.2569 8.76457 23.2084C8.99142 23.2859 9.21673 23.4198 9.45602 23.4636C9.63238 23.4957 9.79475 23.8425 9.87244 23.4057C9.60285 22.9907 9.34414 22.5727 9.09553 22.1491C8.6457 21.3795 8.23005 20.5982 7.85714 19.8066C7.95347 20.1456 7.9861 20.1143 7.88666 20.2122C7.73594 20.3602 7.68855 20.7594 7.43061 20.4925C7.17268 20.2271 7.23095 20.1777 7.04604 20.1676C6.86192 20.1582 6.93028 19.9538 6.68323 20.3046C6.44161 20.6491 6.59699 20.7774 6.51541 20.869C6.48745 20.9004 6.48589 20.9387 6.45792 20.9685C6.14172 20.9051 5.8496 20.7093 5.74861 20.3876C5.55749 20.9466 5.5738 21.5744 5.79366 22.1225C5.59478 21.9769 5.03851 21.3693 4.80388 21.7287C4.73396 21.8359 4.7293 21.9722 4.72775 22.1006C4.72386 22.3464 4.72075 22.593 4.71687 22.8388C4.48535 22.6932 4.25461 22.5484 4.02309 22.4028C3.96016 22.3628 3.87858 22.3229 3.81643 22.3644C3.75972 22.402 3.75739 22.4834 3.76049 22.5523C3.77137 22.7504 3.79778 22.9532 3.76127 23.141C3.48935 23.1011 3.1716 23.2467 3.12654 23.5458C3.09701 23.7423 3.19957 24.1776 3.03486 24.3272C2.56716 24.7523 1.86017 23.6742 1.65119 24.6881C1.62322 24.8251 1.60146 24.9676 1.63642 25.103C1.69625 25.3332 2.43509 25.7724 1.72499 25.745C1.47327 25.734 1.29536 25.7199 1.16406 25.7113C1.16484 25.7121 2.40013 28.5541 2.40246 28.5541Z" fill="#B0CF6C"/>
<path d="M5.49622 10.9669C5.4667 10.8957 5.25072 10.5903 5.31443 10.5285C5.32608 10.5167 5.4162 10.4784 5.50399 10.4502C5.50322 10.4964 5.50399 10.5418 5.50477 10.588C5.5071 10.7367 5.51098 10.8847 5.51798 11.0342C5.51409 11.01 5.50555 10.988 5.49622 10.9669Z" fill="#B0CF6C"/>
<path d="M5.73166 14.5889C5.78682 14.8629 5.8109 15.1432 5.80313 15.4258C5.8008 15.5057 5.76507 15.6121 5.65552 15.6278C5.61201 15.6356 5.57084 15.6223 5.53355 15.6082C5.18627 15.4861 4.87317 15.306 4.48006 15.2426C4.56008 15.2544 4.46374 16.4029 4.38294 16.554C4.33555 16.6432 4.2229 16.7309 4.09626 16.7419C3.99527 16.7497 3.90981 16.7106 3.83289 16.6722C3.63012 16.5728 3.43356 16.4608 3.20826 16.3958C3.3683 17.0276 3.37141 17.5412 3.12901 18.2216C3.20826 18 2.26509 17.7276 2.03512 17.8646C1.75 18.036 1.98929 18.5379 1.71659 18.7657C1.26365 19.1423 1.06243 18.5441 0.734579 18.5144C0.245126 18.4721 0.373316 18.6952 0.101397 18.9716C-0.0337848 19.1078 0.0104997 19.064 0.162774 19.4531C0.110721 19.3709 0.0578913 19.2902 0.00506143 19.2112C0.00428452 19.1971 0.00428376 19.183 0.00428376 19.1689C0.00195303 19.071 0.00195313 18.9739 0.00195313 18.8761C0.00195313 18.6874 0.00273018 18.4987 0.00816854 18.3108C0.0338065 17.1889 0.150343 16.0928 0.348455 15.0265C0.400508 14.7439 0.458777 14.462 0.522483 14.1841C0.575313 14.1504 0.627366 14.1113 0.678642 14.0675C0.937352 13.8428 0.856554 13.6885 0.683303 13.5351C0.744679 13.2994 0.810716 13.0661 0.882191 12.8344C0.890737 12.8015 0.901615 12.7686 0.911714 12.7373C0.994844 12.4656 1.08419 12.1963 1.18052 11.9301C1.51071 11.974 2.01182 11.992 2.07941 11.9818C2.56653 11.9074 3.0218 11.6389 3.18573 11.2756C3.24166 11.1535 3.26342 11.0266 3.33489 10.9061C3.59671 10.4676 4.32001 10.7417 4.73799 10.5131C5.04021 10.3494 5.03166 10.0386 4.98039 9.79434C4.95242 9.6589 4.88716 9.42246 5.00214 9.27841C5.12256 9.12574 5.35874 9.10851 5.55142 9.05371C5.5149 9.50467 5.49859 9.97128 5.5048 10.4504C5.50402 10.4966 5.5048 10.542 5.50558 10.5882C5.50791 10.737 5.51179 10.8849 5.51878 11.0345C5.51956 11.0353 5.51956 11.0368 5.51956 11.0376C5.51956 11.0486 5.51956 11.0595 5.52034 11.0705C5.56074 11.9661 5.67106 12.8751 5.84742 13.7919C5.90025 14.0714 5.96007 14.3509 6.02611 14.6312C5.92122 14.6366 5.81712 14.6233 5.73166 14.5889Z" fill="#B0CF6C"/>
<path d="M28.5358 26.6025L28.4806 28.0885C28.4768 28.1903 28.5358 28.2842 28.6259 28.3203C28.9002 28.4275 29.4704 28.5481 29.674 27.8145C29.6965 27.7346 29.6701 27.647 29.6103 27.5914L28.5358 26.6025Z" fill="#1C1D1D"/>
<path d="M23.5742 13.1797L24.8856 12.6927C24.9758 12.659 25.034 12.5666 25.0286 12.4649C25.0131 12.1548 24.8919 11.5489 24.1748 11.6154C24.0963 11.6225 24.031 11.6804 24.007 11.7595L23.5742 13.1797Z" fill="#1C1D1D"/>
<path d="M19.5731 9.98474L20.4883 8.87771C20.5513 8.80177 20.5598 8.68982 20.5085 8.60213C20.3539 8.33673 19.974 7.86385 19.3828 8.29288C19.3183 8.33986 19.2872 8.42441 19.3028 8.5074L19.5731 9.98474Z" fill="#1C1D1D"/>
<path d="M15.1855 8.72957L14.9913 7.25223C14.9781 7.15045 14.9043 7.06903 14.8095 7.0518C14.5221 6.99778 13.9425 6.9876 13.8664 7.75015C13.8578 7.83314 13.8982 7.91457 13.9666 7.95841L15.1855 8.72957Z" fill="#1C1D1D"/>
<path d="M13.9678 12.7337L12.8777 11.7832C12.8032 11.7182 12.6975 11.7112 12.6183 11.7676C12.3782 11.9382 11.9563 12.354 12.3922 12.974C12.4396 13.0421 12.5211 13.0727 12.5973 13.0547L13.9678 12.7337Z" fill="#1C1D1D"/>
<path d="M19.0378 21.7705L17.8514 22.5338C17.7699 22.5863 17.731 22.6896 17.7551 22.7891C17.8297 23.0905 18.0635 23.6597 18.7503 23.4381C18.8257 23.4138 18.8785 23.3434 18.8871 23.2596L19.0378 21.7705Z" fill="#1C1D1D"/>
<path d="M23.1262 25.2324L22.3478 26.4538C22.2942 26.5375 22.2988 26.6495 22.3594 26.7301C22.5428 26.9744 22.9747 27.394 23.51 26.8898C23.5683 26.835 23.5893 26.7466 23.5644 26.6659L23.1262 25.2324Z" fill="#1C1D1D"/>
<path d="M16.2179 17.2456L14.8249 17.118C14.7293 17.1094 14.64 17.1674 14.6058 17.2629C14.5017 17.551 14.3821 18.153 15.0673 18.4028C15.1419 18.4302 15.2242 18.4067 15.2771 18.3449L16.2179 17.2456Z" fill="#1C1D1D"/>
<path d="M29.248 22.0507L30.3272 23.0153C30.401 23.0818 30.5066 23.0897 30.5859 23.0341C30.8283 22.8665 31.2548 22.4563 30.826 21.8307C30.7793 21.7626 30.6985 21.7305 30.6216 21.7477L29.248 22.0507Z" fill="#1C1D1D"/>
<path d="M27.0469 17.709L28.443 17.7082C28.5385 17.7082 28.6224 17.6417 28.6489 17.5438C28.7289 17.2471 28.7996 16.6357 28.0973 16.4485C28.0203 16.4282 27.9403 16.4595 27.8929 16.5253L27.0469 17.709Z" fill="#1C1D1D"/>
</g>
<defs>
<clipPath id="clip0_183_1173">
<rect width="177.425" height="39.6481" fill="white"/>
</clipPath>
</defs>
</svg>
