<svg width="24" height="24" viewBox="0 0 24 24" fill="none" xmlns="http://www.w3.org/2000/svg">
<rect width="24" height="24" rx="12" fill="white"/>
<path d="M9.71917 0.195505C12.646 -0.319279 15.7894 0.174431 18.3162 1.77297C21.3272 3.64244 23.493 6.88768 23.8871 10.431C24.2691 13.0169 23.6585 15.6902 22.4101 17.9661C20.4729 21.3257 16.8512 23.716 12.9558 23.9508C9.64096 24.2699 6.26594 23.0176 3.83243 20.7658C1.47713 18.6013 0.102453 15.4523 0.000179031 12.2613C-0.0148612 9.39236 0.917633 6.4602 2.83677 4.2957C4.56338 2.17636 7.06006 0.758454 9.71917 0.195505ZM11.879 4.94897C11.7827 5.37043 11.7135 5.79791 11.6594 6.2284C11.0578 6.05078 10.4501 5.88822 9.8395 5.73469C10.4321 7.36634 11.3104 8.9709 11.2743 10.7531C11.2503 12.0054 10.4261 13.0049 9.85754 14.0585C10.4712 14.0645 11.0878 14.0676 11.7045 14.0706C11.7045 14.5071 11.7045 14.9466 11.7045 15.3861C11.0096 15.3741 10.3057 15.4373 9.61991 15.3139C8.97318 15.1302 8.80172 14.4378 8.63327 13.8749C7.43908 13.8809 6.24187 13.8779 5.04768 13.8779C4.89427 15.934 6.59081 17.9841 8.67839 18.0835C10.4832 18.2009 12.2971 18.0955 14.1079 18.1376C14.9712 18.1045 16.006 18.252 16.6648 17.5627C17.7898 16.4398 18.265 14.6516 19.9074 14.1037C19.9014 13.8538 19.8894 13.3541 19.8834 13.1042C18.7584 13.4895 17.6123 13.7936 16.4722 14.1278C15.8285 14.2843 15.4675 14.8924 14.9351 15.2356C14.3305 15.4283 13.6838 15.3711 13.0581 15.4012C13.0581 14.9436 13.0581 14.486 13.0581 14.0284C13.3318 14.0284 13.8793 14.0314 14.153 14.0314C15.1306 13.0651 16.3158 11.9091 16.1353 10.4039C15.6962 8.77221 14.3606 7.64631 13.1213 6.60771C13.031 5.96348 13.1153 5.26506 12.658 4.73523C12.4625 4.78941 12.0745 4.89478 11.879 4.94897ZM5.81774 12.5563C6.98486 12.5653 8.15499 12.5593 9.32211 12.5623C9.60186 11.9873 9.92372 11.4244 10.0771 10.7982C10.1433 9.58503 9.66503 8.43504 9.24992 7.31818C7.99857 8.98896 6.95478 10.8073 5.81774 12.5563Z" fill="#5E6AFC"/>
</svg>
