<?xml version="1.0" standalone="no"?>
<!DOCTYPE svg PUBLIC "-//W3C//DTD SVG 20010904//EN"
 "http://www.w3.org/TR/2001/REC-SVG-20010904/DTD/svg10.dtd">
<svg version="1.0" xmlns="http://www.w3.org/2000/svg"
 width="285.000000pt" height="167.000000pt" viewBox="0 0 285.000000 167.000000"
 preserveAspectRatio="xMidYMid meet">

<g transform="translate(0.000000,167.000000) scale(0.100000,-0.100000)"
fill="#000000" stroke="none">
<path d="M510 1012 c0 -21 -7 -30 -30 -39 -42 -16 -58 -54 -36 -87 9 -14 27
-28 41 -32 19 -5 25 -13 25 -35 0 -35 -6 -36 -36 -8 l-22 21 -12 -22 c-10 -19
-8 -22 29 -38 34 -14 41 -22 41 -44 0 -18 5 -28 15 -28 10 0 15 10 15 28 0 22
7 31 33 43 27 12 33 20 35 51 3 35 0 39 -32 55 -29 13 -36 22 -36 45 0 34 12
36 32 6 l15 -22 12 22 c11 20 8 24 -24 39 -28 13 -35 22 -35 45 0 18 -5 28
-15 28 -10 0 -15 -10 -15 -28z m0 -89 c0 -25 -1 -26 -16 -11 -9 9 -13 21 -10
27 13 20 26 11 26 -16z m53 -119 c-9 -23 -23 -16 -23 12 0 22 2 24 14 14 8 -6
12 -18 9 -26z"/>
<path d="M650 1010 c0 -18 7 -20 85 -20 l84 0 -84 -119 c-47 -66 -85 -129 -85
-140 0 -20 5 -21 135 -21 128 0 135 1 135 20 0 18 -7 20 -80 20 -44 0 -80 3
-80 6 0 3 36 57 80 119 44 62 80 122 80 134 0 20 -4 21 -135 21 -128 0 -135
-1 -135 -20z"/>
<path d="M1990 870 l0 -150 45 0 45 0 0 150 0 150 -45 0 -45 0 0 -150z"/>
<path d="M2170 870 l0 -150 88 1 c104 0 152 14 169 50 17 34 1 81 -33 99 l-25
14 27 21 c19 15 25 28 22 50 -5 46 -52 65 -160 65 l-88 0 0 -150z m158 108
c32 -32 -4 -88 -55 -88 -21 0 -23 5 -23 50 0 50 0 50 33 50 18 0 38 -5 45 -12z
m15 -127 c6 -6 10 -25 10 -42 0 -39 -24 -59 -70 -59 l-33 0 0 61 0 62 41 -6
c23 -3 46 -10 52 -16z"/>
</g>
</svg>
