<svg width="20" height="21" viewBox="0 0 20 21" fill="none" xmlns="http://www.w3.org/2000/svg">
<g clip-path="url(#clip0_3916_46449)">
<path d="M9.85758 2.16669H10.1382C11.5438 2.19403 12.9432 2.57424 14.159 3.2829C15.7759 4.21421 17.0653 5.70217 17.7485 7.43915C18.1164 8.35679 18.3055 9.34182 18.3332 10.3291V10.639C18.3062 12.028 17.9344 13.4102 17.242 14.6159C16.6359 15.6791 15.7935 16.6071 14.7922 17.3112C13.4419 18.2725 11.7974 18.8031 10.1414 18.8334H9.86214C8.32275 18.8047 6.79183 18.348 5.49984 17.5088C3.69743 16.3561 2.36702 14.4867 1.88721 12.4001C1.75016 11.8239 1.68278 11.2331 1.6665 10.6416V10.361C1.69515 8.83759 2.14242 7.32261 2.96598 6.03908C3.77035 4.7715 4.92301 3.72756 6.26481 3.05373C7.37516 2.49058 8.6141 2.19305 9.85758 2.16669ZM13.4448 7.13934C11.8638 8.71812 10.2853 10.2995 8.70459 11.8783C7.9764 11.211 7.24788 10.5443 6.51969 9.87697C6.4152 9.78062 6.29834 9.69305 6.16065 9.65139C5.82015 9.5368 5.40739 9.67613 5.22054 9.98602C5.00863 10.3207 5.08122 10.7927 5.37679 11.0544C6.30094 11.8991 7.2277 12.7412 8.15348 13.5847C8.28662 13.709 8.45166 13.805 8.63493 13.8265C8.90055 13.8672 9.17301 13.7582 9.35628 13.5664C11.1154 11.8216 12.8742 10.0765 14.6323 8.33075C14.8341 8.13934 14.9452 7.8493 14.8931 7.57261C14.8335 7.2051 14.5057 6.89976 14.1333 6.87209C13.8768 6.84572 13.6213 6.95575 13.4448 7.13934Z" fill="#5768E4"/>
</g>
<defs>
<clipPath id="clip0_3916_46449">
<rect width="20" height="20" fill="white" transform="translate(0 0.5)"/>
</clipPath>
</defs>
</svg>
